<?xml version="1.0" standalone="no"?>
 <!DOCTYPE svg PUBLIC "-//W3C//DTD SVG 1.1//EN"
 "http://www.w3.org/Graphics/SVG/1.1/DTD/svg11.dtd">
<svg
  xmlns:svg="http://www.w3.org/2000/svg"
  xmlns="http://www.w3.org/2000/svg"
  xmlns:xlink="http://www.w3.org/1999/xlink"
  version="1.1"
  width="2048" height="1600" viewBox="167.62 54.28 73.03 57.05">
<title>SVG Image created as silk-back.svg date 2026/09/27 20:34:32 </title>
  <desc>Image generated by PCBNEW </desc>
<g style="fill:#edece5; fill-opacity:1.0000;stroke:#edece5; stroke-opacity:1.0000;
stroke-linecap:round; stroke-linejoin:round;"
 transform="translate(0 0) scale(1 1)">
</g>
<g style="fill:none;
stroke:#edece5; stroke-width:0.2000; stroke-opacity:1;
stroke-linecap:round; stroke-linejoin:round;">
<text x="234.2300" y="108.3101"
transform="scale(-1 1) translate(-468.460000 0)"
textLength="17.8762" font-size="1.3333" lengthAdjust="spacingAndGlyphs"
text-anchor="start" opacity="0" stroke-opacity="0">v4.0 Skylabs Telemetry</text>
<g class="stroked-text"><desc>v4.0 Skylabs Telemetry</desc>
<path d="M233.9556 107.5106
L233.7175 108.1773
" />
<path d="M233.7175 108.1773
L233.4794 107.5106
" />
<path d="M232.6698 107.5106
L232.6698 108.1773
" />
<path d="M232.9079 107.1297
L233.1460 107.8439
" />
<path d="M233.1460 107.8439
L232.5270 107.8439
" />
<path d="M232.1460 108.0820
L232.0984 108.1297
" />
<path d="M232.0984 108.1297
L232.1460 108.1773
" />
<path d="M232.1460 108.1773
L232.1937 108.1297
" />
<path d="M232.1937 108.1297
L232.1460 108.0820
" />
<path d="M232.1460 108.0820
L232.1460 108.1773
" />
<path d="M231.4794 107.1773
L231.3841 107.1773
" />
<path d="M231.3841 107.1773
L231.2889 107.2249
" />
<path d="M231.2889 107.2249
L231.2413 107.2725
" />
<path d="M231.2413 107.2725
L231.1937 107.3678
" />
<path d="M231.1937 107.3678
L231.1460 107.5582
" />
<path d="M231.1460 107.5582
L231.1460 107.7963
" />
<path d="M231.1460 107.7963
L231.1937 107.9868
" />
<path d="M231.1937 107.9868
L231.2413 108.0820
" />
<path d="M231.2413 108.0820
L231.2889 108.1297
" />
<path d="M231.2889 108.1297
L231.3841 108.1773
" />
<path d="M231.3841 108.1773
L231.4794 108.1773
" />
<path d="M231.4794 108.1773
L231.5746 108.1297
" />
<path d="M231.5746 108.1297
L231.6222 108.0820
" />
<path d="M231.6222 108.0820
L231.6698 107.9868
" />
<path d="M231.6698 107.9868
L231.7175 107.7963
" />
<path d="M231.7175 107.7963
L231.7175 107.5582
" />
<path d="M231.7175 107.5582
L231.6698 107.3678
" />
<path d="M231.6698 107.3678
L231.6222 107.2725
" />
<path d="M231.6222 107.2725
L231.5746 107.2249
" />
<path d="M231.5746 107.2249
L231.4794 107.1773
" />
<path d="M230.0032 108.1297
L229.8603 108.1773
" />
<path d="M229.8603 108.1773
L229.6222 108.1773
" />
<path d="M229.6222 108.1773
L229.5270 108.1297
" />
<path d="M229.5270 108.1297
L229.4794 108.0820
" />
<path d="M229.4794 108.0820
L229.4318 107.9868
" />
<path d="M229.4318 107.9868
L229.4318 107.8916
" />
<path d="M229.4318 107.8916
L229.4794 107.7963
" />
<path d="M229.4794 107.7963
L229.5270 107.7487
" />
<path d="M229.5270 107.7487
L229.6222 107.7011
" />
<path d="M229.6222 107.7011
L229.8127 107.6535
" />
<path d="M229.8127 107.6535
L229.9079 107.6058
" />
<path d="M229.9079 107.6058
L229.9556 107.5582
" />
<path d="M229.9556 107.5582
L230.0032 107.4630
" />
<path d="M230.0032 107.4630
L230.0032 107.3678
" />
<path d="M230.0032 107.3678
L229.9556 107.2725
" />
<path d="M229.9556 107.2725
L229.9079 107.2249
" />
<path d="M229.9079 107.2249
L229.8127 107.1773
" />
<path d="M229.8127 107.1773
L229.5746 107.1773
" />
<path d="M229.5746 107.1773
L229.4318 107.2249
" />
<path d="M229.0032 108.1773
L229.0032 107.1773
" />
<path d="M228.9079 107.7963
L228.6222 108.1773
" />
<path d="M228.6222 107.5106
L229.0032 107.8916
" />
<path d="M228.2889 107.5106
L228.0508 108.1773
" />
<path d="M227.8127 107.5106
L228.0508 108.1773
" />
<path d="M228.0508 108.1773
L228.1460 108.4154
" />
<path d="M228.1460 108.4154
L228.1937 108.4630
" />
<path d="M228.1937 108.4630
L228.2889 108.5106
" />
<path d="M227.2889 108.1773
L227.3841 108.1297
" />
<path d="M227.3841 108.1297
L227.4318 108.0344
" />
<path d="M227.4318 108.0344
L227.4318 107.1773
" />
<path d="M226.4794 108.1773
L226.4794 107.6535
" />
<path d="M226.4794 107.6535
L226.5270 107.5582
" />
<path d="M226.5270 107.5582
L226.6222 107.5106
" />
<path d="M226.6222 107.5106
L226.8127 107.5106
" />
<path d="M226.8127 107.5106
L226.9079 107.5582
" />
<path d="M226.4794 108.1297
L226.5746 108.1773
" />
<path d="M226.5746 108.1773
L226.8127 108.1773
" />
<path d="M226.8127 108.1773
L226.9079 108.1297
" />
<path d="M226.9079 108.1297
L226.9556 108.0344
" />
<path d="M226.9556 108.0344
L226.9556 107.9392
" />
<path d="M226.9556 107.9392
L226.9079 107.8439
" />
<path d="M226.9079 107.8439
L226.8127 107.7963
" />
<path d="M226.8127 107.7963
L226.5746 107.7963
" />
<path d="M226.5746 107.7963
L226.4794 107.7487
" />
<path d="M226.0032 108.1773
L226.0032 107.1773
" />
<path d="M226.0032 107.5582
L225.9079 107.5106
" />
<path d="M225.9079 107.5106
L225.7175 107.5106
" />
<path d="M225.7175 107.5106
L225.6222 107.5582
" />
<path d="M225.6222 107.5582
L225.5746 107.6058
" />
<path d="M225.5746 107.6058
L225.5270 107.7011
" />
<path d="M225.5270 107.7011
L225.5270 107.9868
" />
<path d="M225.5270 107.9868
L225.5746 108.0820
" />
<path d="M225.5746 108.0820
L225.6222 108.1297
" />
<path d="M225.6222 108.1297
L225.7175 108.1773
" />
<path d="M225.7175 108.1773
L225.9079 108.1773
" />
<path d="M225.9079 108.1773
L226.0032 108.1297
" />
<path d="M225.1460 108.1297
L225.0508 108.1773
" />
<path d="M225.0508 108.1773
L224.8603 108.1773
" />
<path d="M224.8603 108.1773
L224.7651 108.1297
" />
<path d="M224.7651 108.1297
L224.7175 108.0344
" />
<path d="M224.7175 108.0344
L224.7175 107.9868
" />
<path d="M224.7175 107.9868
L224.7651 107.8916
" />
<path d="M224.7651 107.8916
L224.8603 107.8439
" />
<path d="M224.8603 107.8439
L225.0032 107.8439
" />
<path d="M225.0032 107.8439
L225.0984 107.7963
" />
<path d="M225.0984 107.7963
L225.1460 107.7011
" />
<path d="M225.1460 107.7011
L225.1460 107.6535
" />
<path d="M225.1460 107.6535
L225.0984 107.5582
" />
<path d="M225.0984 107.5582
L225.0032 107.5106
" />
<path d="M225.0032 107.5106
L224.8603 107.5106
" />
<path d="M224.8603 107.5106
L224.7651 107.5582
" />
<path d="M223.6698 107.1773
L223.0984 107.1773
" />
<path d="M223.3841 108.1773
L223.3841 107.1773
" />
<path d="M222.3841 108.1297
L222.4794 108.1773
" />
<path d="M222.4794 108.1773
L222.6698 108.1773
" />
<path d="M222.6698 108.1773
L222.7651 108.1297
" />
<path d="M222.7651 108.1297
L222.8127 108.0344
" />
<path d="M222.8127 108.0344
L222.8127 107.6535
" />
<path d="M222.8127 107.6535
L222.7651 107.5582
" />
<path d="M222.7651 107.5582
L222.6698 107.5106
" />
<path d="M222.6698 107.5106
L222.4794 107.5106
" />
<path d="M222.4794 107.5106
L222.3841 107.5582
" />
<path d="M222.3841 107.5582
L222.3365 107.6535
" />
<path d="M222.3365 107.6535
L222.3365 107.7487
" />
<path d="M222.3365 107.7487
L222.8127 107.8439
" />
<path d="M221.7651 108.1773
L221.8603 108.1297
" />
<path d="M221.8603 108.1297
L221.9079 108.0344
" />
<path d="M221.9079 108.0344
L221.9079 107.1773
" />
<path d="M221.0032 108.1297
L221.0984 108.1773
" />
<path d="M221.0984 108.1773
L221.2889 108.1773
" />
<path d="M221.2889 108.1773
L221.3841 108.1297
" />
<path d="M221.3841 108.1297
L221.4318 108.0344
" />
<path d="M221.4318 108.0344
L221.4318 107.6535
" />
<path d="M221.4318 107.6535
L221.3841 107.5582
" />
<path d="M221.3841 107.5582
L221.2889 107.5106
" />
<path d="M221.2889 107.5106
L221.0984 107.5106
" />
<path d="M221.0984 107.5106
L221.0032 107.5582
" />
<path d="M221.0032 107.5582
L220.9556 107.6535
" />
<path d="M220.9556 107.6535
L220.9556 107.7487
" />
<path d="M220.9556 107.7487
L221.4318 107.8439
" />
<path d="M220.5270 108.1773
L220.5270 107.5106
" />
<path d="M220.5270 107.6058
L220.4794 107.5582
" />
<path d="M220.4794 107.5582
L220.3841 107.5106
" />
<path d="M220.3841 107.5106
L220.2413 107.5106
" />
<path d="M220.2413 107.5106
L220.1460 107.5582
" />
<path d="M220.1460 107.5582
L220.0984 107.6535
" />
<path d="M220.0984 107.6535
L220.0984 108.1773
" />
<path d="M220.0984 107.6535
L220.0508 107.5582
" />
<path d="M220.0508 107.5582
L219.9556 107.5106
" />
<path d="M219.9556 107.5106
L219.8127 107.5106
" />
<path d="M219.8127 107.5106
L219.7175 107.5582
" />
<path d="M219.7175 107.5582
L219.6698 107.6535
" />
<path d="M219.6698 107.6535
L219.6698 108.1773
" />
<path d="M218.8127 108.1297
L218.9079 108.1773
" />
<path d="M218.9079 108.1773
L219.0984 108.1773
" />
<path d="M219.0984 108.1773
L219.1937 108.1297
" />
<path d="M219.1937 108.1297
L219.2413 108.0344
" />
<path d="M219.2413 108.0344
L219.2413 107.6535
" />
<path d="M219.2413 107.6535
L219.1937 107.5582
" />
<path d="M219.1937 107.5582
L219.0984 107.5106
" />
<path d="M219.0984 107.5106
L218.9079 107.5106
" />
<path d="M218.9079 107.5106
L218.8127 107.5582
" />
<path d="M218.8127 107.5582
L218.7651 107.6535
" />
<path d="M218.7651 107.6535
L218.7651 107.7487
" />
<path d="M218.7651 107.7487
L219.2413 107.8439
" />
<path d="M218.4794 107.5106
L218.0984 107.5106
" />
<path d="M218.3365 107.1773
L218.3365 108.0344
" />
<path d="M218.3365 108.0344
L218.2889 108.1297
" />
<path d="M218.2889 108.1297
L218.1937 108.1773
" />
<path d="M218.1937 108.1773
L218.0984 108.1773
" />
<path d="M217.7651 108.1773
L217.7651 107.5106
" />
<path d="M217.7651 107.7011
L217.7175 107.6058
" />
<path d="M217.7175 107.6058
L217.6698 107.5582
" />
<path d="M217.6698 107.5582
L217.5746 107.5106
" />
<path d="M217.5746 107.5106
L217.4794 107.5106
" />
<path d="M217.2413 107.5106
L217.0032 108.1773
" />
<path d="M216.7651 107.5106
L217.0032 108.1773
" />
<path d="M217.0032 108.1773
L217.0984 108.4154
" />
<path d="M217.0984 108.4154
L217.1460 108.4630
" />
<path d="M217.1460 108.4630
L217.2413 108.5106
" />
</g><text x="234.2300" y="109.9200"
transform="scale(-1 1) translate(-468.460000 0)"
textLength="20.8762" font-size="1.3333" lengthAdjust="spacingAndGlyphs"
text-anchor="start" opacity="0" stroke-opacity="0">Designed by Andrew Chung</text>
<g class="stroked-text"><desc>Designed by Andrew Chung</desc>
<path d="M233.8603 109.7872
L233.8603 108.7872
" />
<path d="M233.8603 108.7872
L233.6222 108.7872
" />
<path d="M233.6222 108.7872
L233.4794 108.8348
" />
<path d="M233.4794 108.8348
L233.3841 108.9301
" />
<path d="M233.3841 108.9301
L233.3365 109.0253
" />
<path d="M233.3365 109.0253
L233.2889 109.2158
" />
<path d="M233.2889 109.2158
L233.2889 109.3586
" />
<path d="M233.2889 109.3586
L233.3365 109.5491
" />
<path d="M233.3365 109.5491
L233.3841 109.6444
" />
<path d="M233.3841 109.6444
L233.4794 109.7396
" />
<path d="M233.4794 109.7396
L233.6222 109.7872
" />
<path d="M233.6222 109.7872
L233.8603 109.7872
" />
<path d="M232.4794 109.7396
L232.5746 109.7872
" />
<path d="M232.5746 109.7872
L232.7651 109.7872
" />
<path d="M232.7651 109.7872
L232.8603 109.7396
" />
<path d="M232.8603 109.7396
L232.9079 109.6444
" />
<path d="M232.9079 109.6444
L232.9079 109.2634
" />
<path d="M232.9079 109.2634
L232.8603 109.1682
" />
<path d="M232.8603 109.1682
L232.7651 109.1206
" />
<path d="M232.7651 109.1206
L232.5746 109.1206
" />
<path d="M232.5746 109.1206
L232.4794 109.1682
" />
<path d="M232.4794 109.1682
L232.4318 109.2634
" />
<path d="M232.4318 109.2634
L232.4318 109.3586
" />
<path d="M232.4318 109.3586
L232.9079 109.4539
" />
<path d="M232.0508 109.7396
L231.9556 109.7872
" />
<path d="M231.9556 109.7872
L231.7651 109.7872
" />
<path d="M231.7651 109.7872
L231.6698 109.7396
" />
<path d="M231.6698 109.7396
L231.6222 109.6444
" />
<path d="M231.6222 109.6444
L231.6222 109.5967
" />
<path d="M231.6222 109.5967
L231.6698 109.5015
" />
<path d="M231.6698 109.5015
L231.7651 109.4539
" />
<path d="M231.7651 109.4539
L231.9079 109.4539
" />
<path d="M231.9079 109.4539
L232.0032 109.4063
" />
<path d="M232.0032 109.4063
L232.0508 109.3110
" />
<path d="M232.0508 109.3110
L232.0508 109.2634
" />
<path d="M232.0508 109.2634
L232.0032 109.1682
" />
<path d="M232.0032 109.1682
L231.9079 109.1206
" />
<path d="M231.9079 109.1206
L231.7651 109.1206
" />
<path d="M231.7651 109.1206
L231.6698 109.1682
" />
<path d="M231.1937 109.7872
L231.1937 109.1206
" />
<path d="M231.1937 108.7872
L231.2413 108.8348
" />
<path d="M231.2413 108.8348
L231.1937 108.8825
" />
<path d="M231.1937 108.8825
L231.1460 108.8348
" />
<path d="M231.1460 108.8348
L231.1937 108.7872
" />
<path d="M231.1937 108.7872
L231.1937 108.8825
" />
<path d="M230.2889 109.1206
L230.2889 109.9301
" />
<path d="M230.2889 109.9301
L230.3365 110.0253
" />
<path d="M230.3365 110.0253
L230.3841 110.0729
" />
<path d="M230.3841 110.0729
L230.4794 110.1206
" />
<path d="M230.4794 110.1206
L230.6222 110.1206
" />
<path d="M230.6222 110.1206
L230.7175 110.0729
" />
<path d="M230.2889 109.7396
L230.3841 109.7872
" />
<path d="M230.3841 109.7872
L230.5746 109.7872
" />
<path d="M230.5746 109.7872
L230.6698 109.7396
" />
<path d="M230.6698 109.7396
L230.7175 109.6920
" />
<path d="M230.7175 109.6920
L230.7651 109.5967
" />
<path d="M230.7651 109.5967
L230.7651 109.3110
" />
<path d="M230.7651 109.3110
L230.7175 109.2158
" />
<path d="M230.7175 109.2158
L230.6698 109.1682
" />
<path d="M230.6698 109.1682
L230.5746 109.1206
" />
<path d="M230.5746 109.1206
L230.3841 109.1206
" />
<path d="M230.3841 109.1206
L230.2889 109.1682
" />
<path d="M229.8127 109.1206
L229.8127 109.7872
" />
<path d="M229.8127 109.2158
L229.7651 109.1682
" />
<path d="M229.7651 109.1682
L229.6698 109.1206
" />
<path d="M229.6698 109.1206
L229.5270 109.1206
" />
<path d="M229.5270 109.1206
L229.4318 109.1682
" />
<path d="M229.4318 109.1682
L229.3841 109.2634
" />
<path d="M229.3841 109.2634
L229.3841 109.7872
" />
<path d="M228.5270 109.7396
L228.6222 109.7872
" />
<path d="M228.6222 109.7872
L228.8127 109.7872
" />
<path d="M228.8127 109.7872
L228.9079 109.7396
" />
<path d="M228.9079 109.7396
L228.9556 109.6444
" />
<path d="M228.9556 109.6444
L228.9556 109.2634
" />
<path d="M228.9556 109.2634
L228.9079 109.1682
" />
<path d="M228.9079 109.1682
L228.8127 109.1206
" />
<path d="M228.8127 109.1206
L228.6222 109.1206
" />
<path d="M228.6222 109.1206
L228.5270 109.1682
" />
<path d="M228.5270 109.1682
L228.4794 109.2634
" />
<path d="M228.4794 109.2634
L228.4794 109.3586
" />
<path d="M228.4794 109.3586
L228.9556 109.4539
" />
<path d="M227.6222 109.7872
L227.6222 108.7872
" />
<path d="M227.6222 109.7396
L227.7175 109.7872
" />
<path d="M227.7175 109.7872
L227.9079 109.7872
" />
<path d="M227.9079 109.7872
L228.0032 109.7396
" />
<path d="M228.0032 109.7396
L228.0508 109.6920
" />
<path d="M228.0508 109.6920
L228.0984 109.5967
" />
<path d="M228.0984 109.5967
L228.0984 109.3110
" />
<path d="M228.0984 109.3110
L228.0508 109.2158
" />
<path d="M228.0508 109.2158
L228.0032 109.1682
" />
<path d="M228.0032 109.1682
L227.9079 109.1206
" />
<path d="M227.9079 109.1206
L227.7175 109.1206
" />
<path d="M227.7175 109.1206
L227.6222 109.1682
" />
<path d="M226.3841 109.7872
L226.3841 108.7872
" />
<path d="M226.3841 109.1682
L226.2889 109.1206
" />
<path d="M226.2889 109.1206
L226.0984 109.1206
" />
<path d="M226.0984 109.1206
L226.0032 109.1682
" />
<path d="M226.0032 109.1682
L225.9556 109.2158
" />
<path d="M225.9556 109.2158
L225.9079 109.3110
" />
<path d="M225.9079 109.3110
L225.9079 109.5967
" />
<path d="M225.9079 109.5967
L225.9556 109.6920
" />
<path d="M225.9556 109.6920
L226.0032 109.7396
" />
<path d="M226.0032 109.7396
L226.0984 109.7872
" />
<path d="M226.0984 109.7872
L226.2889 109.7872
" />
<path d="M226.2889 109.7872
L226.3841 109.7396
" />
<path d="M225.5746 109.1206
L225.3365 109.7872
" />
<path d="M225.0984 109.1206
L225.3365 109.7872
" />
<path d="M225.3365 109.7872
L225.4318 110.0253
" />
<path d="M225.4318 110.0253
L225.4794 110.0729
" />
<path d="M225.4794 110.0729
L225.5746 110.1206
" />
<path d="M224.0032 109.5015
L223.5270 109.5015
" />
<path d="M224.0984 109.7872
L223.7651 108.7872
" />
<path d="M223.7651 108.7872
L223.4318 109.7872
" />
<path d="M223.0984 109.1206
L223.0984 109.7872
" />
<path d="M223.0984 109.2158
L223.0508 109.1682
" />
<path d="M223.0508 109.1682
L222.9556 109.1206
" />
<path d="M222.9556 109.1206
L222.8127 109.1206
" />
<path d="M222.8127 109.1206
L222.7175 109.1682
" />
<path d="M222.7175 109.1682
L222.6698 109.2634
" />
<path d="M222.6698 109.2634
L222.6698 109.7872
" />
<path d="M221.7651 109.7872
L221.7651 108.7872
" />
<path d="M221.7651 109.7396
L221.8603 109.7872
" />
<path d="M221.8603 109.7872
L222.0508 109.7872
" />
<path d="M222.0508 109.7872
L222.1460 109.7396
" />
<path d="M222.1460 109.7396
L222.1937 109.6920
" />
<path d="M222.1937 109.6920
L222.2413 109.5967
" />
<path d="M222.2413 109.5967
L222.2413 109.3110
" />
<path d="M222.2413 109.3110
L222.1937 109.2158
" />
<path d="M222.1937 109.2158
L222.1460 109.1682
" />
<path d="M222.1460 109.1682
L222.0508 109.1206
" />
<path d="M222.0508 109.1206
L221.8603 109.1206
" />
<path d="M221.8603 109.1206
L221.7651 109.1682
" />
<path d="M221.2889 109.7872
L221.2889 109.1206
" />
<path d="M221.2889 109.3110
L221.2413 109.2158
" />
<path d="M221.2413 109.2158
L221.1937 109.1682
" />
<path d="M221.1937 109.1682
L221.0984 109.1206
" />
<path d="M221.0984 109.1206
L221.0032 109.1206
" />
<path d="M220.2889 109.7396
L220.3841 109.7872
" />
<path d="M220.3841 109.7872
L220.5746 109.7872
" />
<path d="M220.5746 109.7872
L220.6698 109.7396
" />
<path d="M220.6698 109.7396
L220.7175 109.6444
" />
<path d="M220.7175 109.6444
L220.7175 109.2634
" />
<path d="M220.7175 109.2634
L220.6698 109.1682
" />
<path d="M220.6698 109.1682
L220.5746 109.1206
" />
<path d="M220.5746 109.1206
L220.3841 109.1206
" />
<path d="M220.3841 109.1206
L220.2889 109.1682
" />
<path d="M220.2889 109.1682
L220.2413 109.2634
" />
<path d="M220.2413 109.2634
L220.2413 109.3586
" />
<path d="M220.2413 109.3586
L220.7175 109.4539
" />
<path d="M219.9079 109.1206
L219.7175 109.7872
" />
<path d="M219.7175 109.7872
L219.5270 109.3110
" />
<path d="M219.5270 109.3110
L219.3365 109.7872
" />
<path d="M219.3365 109.7872
L219.1460 109.1206
" />
<path d="M217.4318 109.6920
L217.4794 109.7396
" />
<path d="M217.4794 109.7396
L217.6222 109.7872
" />
<path d="M217.6222 109.7872
L217.7175 109.7872
" />
<path d="M217.7175 109.7872
L217.8603 109.7396
" />
<path d="M217.8603 109.7396
L217.9556 109.6444
" />
<path d="M217.9556 109.6444
L218.0032 109.5491
" />
<path d="M218.0032 109.5491
L218.0508 109.3586
" />
<path d="M218.0508 109.3586
L218.0508 109.2158
" />
<path d="M218.0508 109.2158
L218.0032 109.0253
" />
<path d="M218.0032 109.0253
L217.9556 108.9301
" />
<path d="M217.9556 108.9301
L217.8603 108.8348
" />
<path d="M217.8603 108.8348
L217.7175 108.7872
" />
<path d="M217.7175 108.7872
L217.6222 108.7872
" />
<path d="M217.6222 108.7872
L217.4794 108.8348
" />
<path d="M217.4794 108.8348
L217.4318 108.8825
" />
<path d="M217.0032 109.7872
L217.0032 108.7872
" />
<path d="M216.5746 109.7872
L216.5746 109.2634
" />
<path d="M216.5746 109.2634
L216.6222 109.1682
" />
<path d="M216.6222 109.1682
L216.7175 109.1206
" />
<path d="M216.7175 109.1206
L216.8603 109.1206
" />
<path d="M216.8603 109.1206
L216.9556 109.1682
" />
<path d="M216.9556 109.1682
L217.0032 109.2158
" />
<path d="M215.6698 109.1206
L215.6698 109.7872
" />
<path d="M216.0984 109.1206
L216.0984 109.6444
" />
<path d="M216.0984 109.6444
L216.0508 109.7396
" />
<path d="M216.0508 109.7396
L215.9556 109.7872
" />
<path d="M215.9556 109.7872
L215.8127 109.7872
" />
<path d="M215.8127 109.7872
L215.7175 109.7396
" />
<path d="M215.7175 109.7396
L215.6698 109.6920
" />
<path d="M215.1937 109.1206
L215.1937 109.7872
" />
<path d="M215.1937 109.2158
L215.1460 109.1682
" />
<path d="M215.1460 109.1682
L215.0508 109.1206
" />
<path d="M215.0508 109.1206
L214.9079 109.1206
" />
<path d="M214.9079 109.1206
L214.8127 109.1682
" />
<path d="M214.8127 109.1682
L214.7651 109.2634
" />
<path d="M214.7651 109.2634
L214.7651 109.7872
" />
<path d="M213.8603 109.1206
L213.8603 109.9301
" />
<path d="M213.8603 109.9301
L213.9079 110.0253
" />
<path d="M213.9079 110.0253
L213.9556 110.0729
" />
<path d="M213.9556 110.0729
L214.0508 110.1206
" />
<path d="M214.0508 110.1206
L214.1937 110.1206
" />
<path d="M214.1937 110.1206
L214.2889 110.0729
" />
<path d="M213.8603 109.7396
L213.9556 109.7872
" />
<path d="M213.9556 109.7872
L214.1460 109.7872
" />
<path d="M214.1460 109.7872
L214.2413 109.7396
" />
<path d="M214.2413 109.7396
L214.2889 109.6920
" />
<path d="M214.2889 109.6920
L214.3365 109.5967
" />
<path d="M214.3365 109.5967
L214.3365 109.3110
" />
<path d="M214.3365 109.3110
L214.2889 109.2158
" />
<path d="M214.2889 109.2158
L214.2413 109.1682
" />
<path d="M214.2413 109.1682
L214.1460 109.1206
" />
<path d="M214.1460 109.1206
L213.9556 109.1206
" />
<path d="M213.9556 109.1206
L213.8603 109.1682
" />
</g></g>
<g style="fill:none;
stroke:#edece5; stroke-width:0.1500; stroke-opacity:1;
stroke-linecap:round; stroke-linejoin:round;">
<g transform="rotate(-90.000000 200.8300 81.9000)">
<text x="200.8300" y="82.4000"
transform="scale(-1 1) translate(-401.660000 0)"
textLength="2.9643" font-size="1.3333" lengthAdjust="spacingAndGlyphs"
text-anchor="middle" opacity="0" stroke-opacity="0">BT2</text>
</g>
<g class="stroked-text"><desc>BT2</desc>
<path d="M200.7610 81.1143
L200.8086 81.2571
" />
<path d="M200.8086 81.2571
L200.8562 81.3048
" />
<path d="M200.8562 81.3048
L200.9515 81.3524
" />
<path d="M200.9515 81.3524
L201.0943 81.3524
" />
<path d="M201.0943 81.3524
L201.1896 81.3048
" />
<path d="M201.1896 81.3048
L201.2372 81.2571
" />
<path d="M201.2372 81.2571
L201.2848 81.1619
" />
<path d="M201.2848 81.1619
L201.2848 80.7810
" />
<path d="M201.2848 80.7810
L200.2848 80.7810
" />
<path d="M200.2848 80.7810
L200.2848 81.1143
" />
<path d="M200.2848 81.1143
L200.3324 81.2095
" />
<path d="M200.3324 81.2095
L200.3801 81.2571
" />
<path d="M200.3801 81.2571
L200.4753 81.3048
" />
<path d="M200.4753 81.3048
L200.5705 81.3048
" />
<path d="M200.5705 81.3048
L200.6658 81.2571
" />
<path d="M200.6658 81.2571
L200.7134 81.2095
" />
<path d="M200.7134 81.2095
L200.7610 81.1143
" />
<path d="M200.7610 81.1143
L200.7610 80.7810
" />
<path d="M200.2848 81.6381
L200.2848 82.2095
" />
<path d="M201.2848 81.9238
L200.2848 81.9238
" />
<path d="M200.3801 82.4952
L200.3324 82.5429
" />
<path d="M200.3324 82.5429
L200.2848 82.6381
" />
<path d="M200.2848 82.6381
L200.2848 82.8762
" />
<path d="M200.2848 82.8762
L200.3324 82.9714
" />
<path d="M200.3324 82.9714
L200.3801 83.0190
" />
<path d="M200.3801 83.0190
L200.4753 83.0667
" />
<path d="M200.4753 83.0667
L200.5705 83.0667
" />
<path d="M200.5705 83.0667
L200.7134 83.0190
" />
<path d="M200.7134 83.0190
L201.2848 82.4476
" />
<path d="M201.2848 82.4476
L201.2848 83.0667
" />
</g><g transform="rotate(-90.000000 207.0450 66.6000)">
<text x="207.0450" y="67.1000"
transform="scale(-1 1) translate(-414.090000 0)"
textLength="1.4881" font-size="1.3333" lengthAdjust="spacingAndGlyphs"
text-anchor="middle" opacity="0" stroke-opacity="0">+</text>
</g>
<g class="stroked-text"><desc>+</desc>
<path d="M207.1189 66.2190
L207.1189 66.9810
" />
<path d="M207.4998 66.6000
L206.7379 66.6000
" />
</g></g>
<g style="fill:none;
stroke:#edece5; stroke-width:0.1200; stroke-opacity:1;
stroke-linecap:round; stroke-linejoin:round;">
<path d="M201.6600 74.3564
L201.6600 89.4436
" />
<path d="M206.2100 67.5300
L206.2100 71.3857
" />
<path d="M206.2100 92.4143
L206.2100 96.2700
" />
<path d="M206.2100 96.2700
L207.8200 96.2700
" />
<path d="M207.8200 67.5300
L206.2100 67.5300
" />
<path d="M211.8400 96.2700
L213.4500 96.2700
" />
<path d="M213.4500 67.5300
L211.8400 67.5300
" />
<path d="M213.4500 71.3857
L213.4500 67.5300
" />
<path d="M213.4500 96.2700
L213.4500 92.4143
" />
<path d="M218.0000 89.4436
L218.0000 74.3564
" />
<path d="M206.2100 71.3857 A11.1915 11.1915 0.0 0 0 201.6600 74.3564" />
<path d="M201.6600 89.4436 A11.1916 11.1916 0.0 0 0 206.2100 92.4143" />
<path d="M218.0000 74.3564 A11.1916 11.1916 0.0 0 0 213.4500 71.3857" />
<path d="M213.4500 92.4143 A11.1916 11.1916 0.0 0 0 218.0000 89.4436" />
<path style="fill:#edece5; fill-opacity:1.0000; stroke:none;fill-rule:evenodd;"
d="M 178.5905,103.2043
178.5905,103.5927
178.3560,103.5927
178.1215,103.5927
178.1215,103.5340
178.1215,103.4754
178.2827,103.4754
178.4439,103.4754
178.4439,103.1456
178.4439,102.8159
178.5172,102.8159
178.5905,102.8159
Z" />
<path style="fill:#edece5; fill-opacity:1.0000; stroke:none;fill-rule:evenodd;"
d="M 180.7153,103.0586
180.5985,103.3028
180.5985,103.4477
180.5985,103.5927
180.5252,103.5927
180.4519,103.5927
180.4519,103.4520
180.4519,103.3113
180.3346,103.0687
180.2985,102.9937
180.2660,102.9258
180.2403,102.8716
180.2235,102.8352
180.2174,102.8210
180.2234,102.8190
180.2513,102.8168
180.2943,102.8159
180.3713,102.8160
180.4436,102.9920
180.4494,103.0059
180.4765,103.0682
180.4999,103.1173
180.5174,103.1484
180.5265,103.1568
180.5354,103.1405
180.5528,103.1023
180.5760,103.0484
180.6025,102.9844
180.6680,102.8232
180.7500,102.8188
180.8321,102.8144
Z" />
<path style="fill:#edece5; fill-opacity:1.0000; stroke:none;fill-rule:evenodd;"
d="M 176.4332,103.2965
176.4625,103.3868
176.4874,103.4642
176.5067,103.5249
176.5192,103.5654
176.5236,103.5817
176.5192,103.5855
176.4933,103.5906
176.4521,103.5927
176.3802,103.5927
176.3489,103.4895
176.3175,103.3863
176.1915,103.3906
176.0655,103.3948
176.0360,103.4937
176.0066,103.5927
175.9285,103.5927
175.8892,103.5922
175.8643,103.5885
175.8574,103.5787
175.8625,103.5597
175.8681,103.5433
175.8821,103.5012
175.9026,103.4387
175.9282,103.3600
175.9574,103.2702
176.1007,103.2702
176.1930,103.2702
176.2852,103.2702
176.2397,103.1084
176.1941,102.9466
176.1753,103.0095
176.1636,103.0491
176.1461,103.1097
176.1286,103.1713
176.1007,103.2702
175.9574,103.2702
175.9577,103.2692
175.9896,103.1707
176.1047,102.8146
176.1912,102.8189
176.2777,102.8232
176.4005,103.1969
176.4006,103.1971
176.4245,103.2702
Z" />
<path style="fill:#edece5; fill-opacity:1.0000; stroke:none;fill-rule:evenodd;"
d="M 182.6892,102.9836
182.8189,103.1514
182.8231,102.9836
182.8272,102.8159
182.9000,102.8159
182.9728,102.8159
182.9728,103.2043
182.9728,103.5927
182.8996,103.5927
182.8263,103.5927
182.8263,103.4805
182.8262,103.4595
182.8242,103.4072
182.8175,103.3708
182.8032,103.3402
182.7786,103.3051
182.7592,103.2801
182.7358,103.2525
182.7237,103.2417
182.7227,103.2423
182.7107,103.2593
182.6880,103.2963
182.6576,103.3485
182.6224,103.4112
182.6154,103.4238
182.5796,103.4859
182.5481,103.5372
182.5240,103.5728
182.5106,103.5876
182.5031,103.5893
182.4700,103.5912
182.4256,103.5899
182.3584,103.5853
182.4958,103.3529
182.6333,103.1205
182.5301,102.9900
182.4928,102.9432
182.4555,102.8978
182.4279,102.8655
182.4141,102.8514
182.4030,102.8423
182.4039,102.8284
182.4305,102.8192
182.4804,102.8159
182.5595,102.8159
Z" />
<path style="fill:#edece5; fill-opacity:1.0000; stroke:none;fill-rule:evenodd;"
d="M 171.7576,102.8056
171.8452,102.8325
171.8528,102.8363
171.9155,102.8829
171.9531,102.9444
171.9656,103.0210
171.9648,103.0469
171.9559,103.0966
171.9340,103.1383
171.8954,103.1762
171.8364,103.2143
171.7531,103.2569
171.7379,103.2642
171.6712,103.2981
171.6270,103.3244
171.6015,103.3458
171.5908,103.3650
171.5885,103.3984
171.6055,103.4367
171.6413,103.4637
171.6904,103.4781
171.7476,103.4786
171.8076,103.4638
171.8649,103.4324
171.8924,103.4135
171.9187,103.4049
171.9417,103.4173
171.9712,103.4523
172.0094,103.5025
171.9553,103.5366
171.9459,103.5423
171.8985,103.5685
171.8564,103.5879
171.8317,103.5947
171.7803,103.6025
171.7239,103.6059
171.6602,103.6018
171.5755,103.5785
171.5092,103.5364
171.4636,103.4780
171.4412,103.4058
171.4443,103.3221
171.4569,103.2840
171.4961,103.2315
171.5612,103.1834
171.6538,103.1382
171.6923,103.1219
171.7536,103.0925
171.7926,103.0670
171.8131,103.0426
171.8191,103.0163
171.8167,102.9975
171.7943,102.9622
171.7537,102.9399
171.7012,102.9318
171.6429,102.9394
171.5853,102.9641
171.5346,102.9950
171.5011,102.9531
171.4823,102.9287
171.4703,102.9042
171.4785,102.8856
171.5077,102.8631
171.5730,102.8278
171.6643,102.8043
Z" />
<path style="fill:#edece5; fill-opacity:1.0000; stroke:none;fill-rule:evenodd;"
d="M 184.9925,102.8056
185.0802,102.8325
185.0852,102.8350
185.1489,102.8814
185.1875,102.9427
185.2006,103.0181
185.1988,103.0565
185.1869,103.1077
185.1607,103.1510
185.1167,103.1900
185.0514,103.2284
184.9611,103.2701
184.9252,103.2862
184.8684,103.3181
184.8361,103.3493
184.8256,103.3832
184.8339,103.4232
184.8354,103.4269
184.8648,103.4599
184.9124,103.4772
184.9722,103.4784
185.0382,103.4635
185.1042,103.4321
185.1330,103.4158
185.1614,103.4092
185.1855,103.4231
185.2147,103.4599
185.2448,103.5022
185.1904,103.5364
185.1809,103.5423
185.1335,103.5685
185.0914,103.5879
185.0874,103.5894
185.0308,103.6013
184.9606,103.6056
184.8901,103.6021
184.8328,103.5906
184.8255,103.5881
184.7560,103.5487
184.7066,103.4922
184.6794,103.4238
184.6768,103.3491
184.7009,103.2733
184.7044,103.2667
184.7300,103.2301
184.7657,103.1994
184.8178,103.1703
184.8922,103.1386
184.9346,103.1207
185.0017,103.0846
185.0412,103.0492
185.0541,103.0136
185.0514,102.9953
185.0285,102.9623
184.9877,102.9413
184.9355,102.9338
184.8786,102.9410
184.8235,102.9645
184.7727,102.9959
184.7380,102.9535
184.7176,102.9275
184.7057,102.9035
184.7139,102.8852
184.7426,102.8631
184.8079,102.8278
184.8993,102.8043
Z" />
<path style="fill:#edece5; fill-opacity:1.0000; stroke:none;fill-rule:evenodd;"
d="M 174.2082,103.2043
174.2082,103.3565
174.2082,103.5927
174.0149,103.5927
173.9947,103.5926
173.9175,103.5917
173.8617,103.5890
173.8206,103.5835
173.7879,103.5745
173.7570,103.5613
173.7372,103.5509
173.6801,103.5041
173.6472,103.4425
173.6366,103.3629
173.6368,103.3574
173.7831,103.3574
173.7836,103.3742
173.7938,103.4144
173.8217,103.4450
173.8282,103.4499
173.8588,103.4654
173.9000,103.4732
173.9610,103.4754
174.0616,103.4754
174.0616,103.3565
174.0616,103.2376
173.9615,103.2432
173.9352,103.2451
173.8639,103.2567
173.8169,103.2779
173.7910,103.3108
173.7831,103.3574
173.6368,103.3574
173.6384,103.3227
173.6493,103.2800
173.6738,103.2428
173.6796,103.2363
173.7117,103.2063
173.7395,103.1895
173.7573,103.1818
173.7556,103.1708
173.7331,103.1484
173.7172,103.1316
173.6847,103.0727
173.6761,103.0190
173.8180,103.0190
173.8294,103.0629
173.8595,103.1017
173.9017,103.1255
173.9087,103.1272
173.9507,103.1335
173.9993,103.1368
174.0616,103.1383
174.0616,103.0357
174.0616,102.9331
173.9817,102.9331
173.9548,102.9337
173.8861,102.9437
173.8417,102.9667
173.8200,103.0035
173.8180,103.0190
173.6761,103.0190
173.6741,103.0066
173.6858,102.9415
173.7202,102.8860
173.7309,102.8755
173.7645,102.8510
173.8067,102.8340
173.8625,102.8232
173.9372,102.8176
174.0359,102.8159
174.2082,102.8159
174.2082,103.0357
Z" />
<path style="fill:#edece5; fill-opacity:1.0000; stroke:none;fill-rule:evenodd;"
d="M 184.8579,98.4806
185.2461,98.4848
185.2450,99.5510
185.2448,99.6771
185.2442,99.8536
185.2432,100.0212
185.2419,100.1774
185.2404,100.3195
185.2386,100.4451
185.2366,100.5516
185.2344,100.6364
185.2321,100.6970
185.2297,100.7308
185.2105,100.8597
185.1623,101.0762
185.0966,101.2693
185.0131,101.4393
184.9116,101.5867
184.7917,101.7116
184.6532,101.8145
184.4959,101.8957
184.3194,101.9554
184.1234,101.9940
184.0662,101.9995
183.9764,102.0032
183.8742,102.0033
183.7679,102.0004
183.6658,101.9945
183.5764,101.9859
183.5078,101.9750
183.4960,101.9723
183.3105,101.9184
183.1463,101.8446
183.0024,101.7503
182.8783,101.6346
182.7729,101.4969
182.6856,101.3364
182.6154,101.1523
182.5976,101.0931
182.5796,101.0262
182.5641,100.9575
182.5507,100.8845
182.5394,100.8051
182.5300,100.7169
182.5224,100.6178
182.5164,100.5053
182.5119,100.3772
182.5088,100.2312
182.5069,100.0651
182.5060,99.8765
182.5060,99.6632
182.5069,99.4228
182.5112,98.4848
182.8849,98.4848
183.2586,98.4848
183.2670,99.5987
183.2681,99.7479
183.2697,99.9429
183.2712,100.1124
183.2729,100.2584
183.2748,100.3833
183.2772,100.4891
183.2800,100.5780
183.2836,100.6524
183.2880,100.7143
183.2933,100.7659
183.2997,100.8095
183.3074,100.8473
183.3164,100.8814
183.3269,100.9140
183.3390,100.9474
183.3529,100.9838
183.3739,101.0329
183.4376,101.1372
183.5186,101.2179
183.6170,101.2753
183.7334,101.3095
183.8680,101.3209
183.8771,101.3208
184.0091,101.3089
184.1219,101.2753
184.2166,101.2193
184.2946,101.1403
184.3569,101.0374
184.3575,101.0362
184.3752,100.9990
184.3907,100.9647
184.4041,100.9313
184.4156,100.8966
184.4254,100.8584
184.4336,100.8146
184.4404,100.7631
184.4460,100.7016
184.4504,100.6281
184.4539,100.5404
184.4565,100.4363
184.4586,100.3136
184.4602,100.1702
184.4615,100.0040
184.4627,99.8128
184.4639,99.5945
184.4698,98.4763
Z" />
<path style="fill:#edece5; fill-opacity:1.0000; stroke:none;fill-rule:evenodd;"
d="M 181.4632,100.2073
181.4632,101.9359
181.1005,101.9399
181.0235,101.9405
180.9300,101.9406
180.8493,101.9400
180.7856,101.9387
180.7429,101.9369
180.7254,101.9345
180.7253,101.9343
180.7226,101.9164
180.7206,101.8725
180.7191,101.8056
180.7181,101.7188
180.7176,101.6152
180.7176,101.4978
180.7180,101.3698
180.7189,101.2343
180.7201,101.0942
180.7217,100.9528
180.7235,100.8131
180.7257,100.6781
180.7281,100.5510
180.7308,100.4348
180.7336,100.3326
180.7366,100.2475
180.7397,100.1826
180.7430,100.1410
180.7441,100.1311
180.7523,100.0565
180.7621,99.9651
180.7724,99.8676
180.7820,99.7746
180.7855,99.7410
180.7938,99.6623
180.8014,99.5935
180.8076,99.5410
180.8116,99.5112
180.8130,99.5020
180.8142,99.4842
180.8101,99.4808
180.8000,99.4936
180.7828,99.5243
180.7576,99.5748
180.7236,99.6468
180.6796,99.7421
180.6248,99.8625
180.6012,99.9143
180.5457,100.0342
180.4879,100.1559
180.4261,100.2829
180.3585,100.4185
180.2836,100.5662
180.1995,100.7294
180.1047,100.9114
179.9973,101.1157
179.9574,101.1917
179.9007,101.3000
179.8399,101.4167
179.7800,101.5319
179.7262,101.6360
179.7114,101.6648
179.6695,101.7455
179.6324,101.8164
179.6023,101.8733
179.5813,101.9122
179.5715,101.9291
179.5678,101.9310
179.5386,101.9352
179.4821,101.9382
179.3997,101.9400
179.2930,101.9405
179.1634,101.9397
178.7664,101.9355
178.7664,100.2072
178.7664,98.4788
179.1365,98.4818
179.5065,98.4848
179.5062,99.2616
179.5060,99.3978
179.5049,99.6009
179.5030,99.7795
179.5003,99.9325
179.4968,100.0591
179.4926,100.1582
179.4876,100.2290
179.4853,100.2526
179.4752,100.3547
179.4643,100.4633
179.4530,100.5724
179.4420,100.6762
179.4320,100.7687
179.4236,100.8439
179.4173,100.8958
179.4152,100.9154
179.4153,100.9452
179.4233,100.9471
179.4319,100.9325
179.4508,100.8941
179.4783,100.8361
179.5125,100.7620
179.5517,100.6757
179.5943,100.5807
179.6062,100.5540
179.6796,100.3949
179.7668,100.2133
179.8668,100.0114
179.9783,99.7913
180.1004,99.5553
180.2319,99.3056
180.2501,99.2711
180.2832,99.2083
180.3236,99.1312
180.3678,99.0466
180.4124,98.9612
180.4455,98.8978
180.4917,98.8098
180.5356,98.7264
180.5734,98.6548
180.6016,98.6021
180.6646,98.4848
181.0639,98.4818
181.4632,98.4787
Z" />
<path style="fill:#edece5; fill-opacity:1.0000; stroke:none;fill-rule:evenodd;"
d="M 176.6746,98.4275
176.8512,98.4513
177.0179,98.4949
177.1729,98.5570
177.3143,98.6364
177.4403,98.7319
177.5489,98.8421
177.6385,98.9660
177.7071,99.1022
177.7529,99.2495
177.7740,99.4067
177.7686,99.5725
177.7402,99.7207
177.6845,99.8696
177.6021,100.0070
177.4924,100.1341
177.4666,100.1591
177.4294,100.1927
177.3904,100.2243
177.3471,100.2550
177.2968,100.2863
177.2371,100.3194
177.1654,100.3557
177.0793,100.3965
176.9761,100.4431
176.8534,100.4968
176.7086,100.5589
176.5392,100.6308
176.5361,100.6322
176.4190,100.6842
176.3272,100.7312
176.2578,100.7758
176.2079,100.8205
176.1747,100.8680
176.1551,100.9208
176.1464,100.9815
176.1462,100.9847
176.1549,101.0737
176.1896,101.1533
176.2474,101.2206
176.3257,101.2722
176.4218,101.3050
176.5157,101.3177
176.6302,101.3201
176.7475,101.3112
176.8550,101.2914
176.9281,101.2694
177.0369,101.2272
177.1488,101.1747
177.2558,101.1159
177.3501,101.0550
177.4237,100.9962
177.4467,100.9786
177.4642,100.9726
177.4697,100.9774
177.4921,101.0016
177.5288,101.0431
177.5770,101.0988
177.6341,101.1655
177.6973,101.2401
177.9193,101.5038
177.8629,101.5531
177.7967,101.6075
177.6249,101.7251
177.4353,101.8255
177.2336,101.9064
177.0256,101.9653
176.8170,101.9997
176.7724,102.0034
176.6564,102.0071
176.5341,102.0040
176.4209,101.9946
176.2399,101.9628
176.0525,101.9064
175.8834,101.8286
175.7335,101.7300
175.6037,101.6111
175.4952,101.4726
175.4748,101.4401
175.4061,101.2993
175.3611,101.1494
175.3395,100.9944
175.3410,100.8385
175.3655,100.6857
175.4126,100.5402
175.4820,100.4061
175.5735,100.2875
175.6046,100.2549
175.6462,100.2142
175.6887,100.1774
175.7350,100.1429
175.7880,100.1091
175.8507,100.0743
175.9261,100.0371
176.0170,99.9958
176.1264,99.9487
176.2573,99.8944
176.4126,99.8311
176.4561,99.8134
176.5632,99.7697
176.6479,99.7344
176.7137,99.7057
176.7642,99.6821
176.8030,99.6617
176.8336,99.6427
176.8597,99.6236
176.8848,99.6025
176.8930,99.5950
176.9464,99.5266
176.9745,99.4489
176.9762,99.3671
176.9505,99.2867
176.9246,99.2444
176.8693,99.1886
176.7958,99.1488
176.7012,99.1234
176.5825,99.1113
176.5598,99.1105
176.3932,99.1198
176.2327,99.1565
176.0763,99.2214
175.9219,99.3149
175.9160,99.3190
175.8739,99.3470
175.8428,99.3653
175.8291,99.3701
175.8276,99.3684
175.8121,99.3492
175.7819,99.3116
175.7399,99.2591
175.6888,99.1950
175.6314,99.1230
175.4393,98.8817
175.4943,98.8250
175.5386,98.7835
175.6355,98.7097
175.7505,98.6386
175.8765,98.5739
176.0064,98.5194
176.1332,98.4790
176.2991,98.4440
176.4900,98.4246
Z" />
<path style="fill:#edece5; fill-opacity:1.0000; stroke:none;fill-rule:evenodd;"
d="M 188.9394,102.9904
189.0273,102.9987
189.0952,103.0115
189.1281,103.0218
189.1940,103.0458
189.2815,103.0802
189.3876,103.1236
189.5095,103.1749
189.6443,103.2327
189.7891,103.2960
189.9411,103.3633
190.0973,103.4335
190.2550,103.5054
190.4111,103.5777
190.5239,103.6280
190.6285,103.6681
190.7223,103.6957
190.8123,103.7127
190.9054,103.7212
190.9168,103.7218
190.9886,103.7237
191.0439,103.7208
191.0940,103.7118
191.1498,103.6957
191.2040,103.6753
191.2732,103.6429
191.3307,103.6095
191.3546,103.5933
191.4110,103.5550
191.4762,103.5105
191.5407,103.4665
191.5912,103.4325
191.7052,103.3623
191.8090,103.3100
191.9097,103.2733
192.0145,103.2499
192.1306,103.2375
192.2652,103.2338
192.2916,103.2338
192.3754,103.2348
192.4393,103.2379
192.4910,103.2439
192.5379,103.2536
192.5876,103.2678
192.5923,103.2692
192.7422,103.3264
192.9044,103.4063
193.0760,103.5071
193.2538,103.6265
193.4349,103.7627
193.6161,103.9136
193.7946,104.0771
193.8380,104.1193
193.9283,104.2105
194.0054,104.2933
194.0680,104.3661
194.1151,104.4273
194.1453,104.4752
194.1574,104.5081
194.1504,104.5246
194.1229,104.5228
194.1042,104.5162
194.0624,104.4963
194.0084,104.4646
193.9394,104.4196
193.8528,104.3595
193.7461,104.2827
193.6309,104.1997
193.4877,104.0992
193.3585,104.0127
193.2388,103.9371
193.1236,103.8695
193.0083,103.8069
192.8881,103.7464
192.8754,103.7403
192.7960,103.7033
192.7171,103.6690
192.6472,103.6407
192.5949,103.6222
192.5439,103.6081
192.4554,103.5903
192.3725,103.5812
192.3024,103.5815
192.2525,103.5918
192.2317,103.6029
192.1966,103.6426
192.1827,103.6971
192.1907,103.7622
192.2211,103.8335
192.2234,103.8375
192.2450,103.8752
192.2745,103.9268
192.3063,103.9824
192.3582,104.0818
192.3937,104.1735
192.4130,104.2617
192.4185,104.3548
192.4181,104.3846
192.4133,104.4433
192.4012,104.4907
192.3790,104.5398
192.3774,104.5427
192.3280,104.6168
192.2674,104.6706
192.1929,104.7049
192.1018,104.7206
191.9917,104.7185
191.8597,104.6993
191.8347,104.6944
191.6223,104.6380
191.3997,104.5541
191.1669,104.4428
190.9241,104.3040
190.9050,104.2923
190.6702,104.1489
190.4578,104.0214
190.2664,103.9089
190.0943,103.8108
189.9400,103.7262
189.8019,103.6543
189.6784,103.5945
189.5681,103.5460
189.4693,103.5080
189.3805,103.4798
189.3002,103.4606
189.2267,103.4496
189.1585,103.4461
189.0918,103.4506
189.0228,103.4718
188.9694,103.5133
188.9260,103.5781
188.9177,103.5947
188.9023,103.6359
188.8971,103.6788
188.8999,103.7369
188.9033,103.7694
188.9084,103.7993
188.9170,103.8305
188.9308,103.8671
188.9515,103.9133
188.9807,103.9731
189.0203,104.0506
189.0718,104.1499
189.1064,104.2215
189.1530,104.3500
189.1791,104.4824
189.1873,104.6291
189.1872,104.6452
189.1805,104.7620
189.1626,104.8538
189.1323,104.9226
189.0890,104.9707
189.0316,105.0001
189.0000,105.0054
188.9390,105.0069
188.8569,105.0037
188.7579,104.9962
188.6461,104.9848
188.5259,104.9702
188.4014,104.9527
188.2768,104.9328
188.1563,104.9110
188.0440,104.8878
187.9237,104.8593
187.7679,104.8175
187.6121,104.7707
187.4589,104.7200
187.3108,104.6666
187.1705,104.6116
187.0406,104.5561
186.9235,104.5012
186.8220,104.4480
186.7385,104.3976
186.6757,104.3512
186.6361,104.3098
186.6223,104.2745
186.6261,104.2496
186.6401,104.2186
186.6662,104.1820
186.7065,104.1379
186.7628,104.0844
186.8371,104.0194
186.9314,103.9412
187.0474,103.8478
187.0736,103.8269
187.2966,103.6552
187.5047,103.5057
187.7000,103.3771
187.8849,103.2682
188.0616,103.1779
188.2322,103.1047
188.3990,103.0475
188.5644,103.0051
188.5703,103.0039
188.6471,102.9933
188.7402,102.9876
188.8407,102.9866
Z" />
<path style="fill:#edece5; fill-opacity:1.0000; stroke:none;fill-rule:evenodd;"
d="M 172.8402,98.4776
172.9180,98.4781
172.9743,98.4793
173.0128,98.4818
173.0373,98.4857
173.0515,98.4916
173.0593,98.4997
173.0644,98.5105
173.0688,98.5233
173.0807,98.5667
173.0977,98.6343
173.1191,98.7233
173.1444,98.8309
173.1728,98.9543
173.2037,99.0907
173.2366,99.2371
173.2708,99.3909
173.3057,99.5492
173.3406,99.7091
173.3750,99.8679
173.4082,100.0227
173.4396,100.1706
173.4685,100.3090
173.4944,100.4349
173.5166,100.5455
173.5345,100.6380
173.5451,100.6945
173.5726,100.8389
173.5953,100.9563
173.6137,101.0484
173.6280,101.1167
173.6386,101.1625
173.6458,101.1874
173.6499,101.1929
173.6512,101.1804
173.6513,101.1773
173.6543,101.1462
173.6609,101.0892
173.6710,101.0089
173.6841,100.9080
173.6999,100.7890
173.7180,100.6545
173.7380,100.5071
173.7596,100.3493
173.7825,100.1839
173.8062,100.0134
173.8303,99.8403
173.8547,99.6672
173.8787,99.4969
173.9022,99.3317
173.9247,99.1744
173.9459,99.0275
173.9655,98.8937
173.9829,98.7755
173.9980,98.6754
174.0103,98.5962
174.0194,98.5403
174.0251,98.5105
174.0328,98.4775
174.4258,98.4775
174.4263,98.4775
174.5306,98.4777
174.6250,98.4785
174.7057,98.4796
174.7687,98.4811
174.8102,98.4829
174.8262,98.4848
174.8264,98.4852
174.8262,98.5038
174.8213,98.5449
174.8124,98.6028
174.8003,98.6717
174.7483,98.9531
174.6945,99.2437
174.6442,99.5158
174.5962,99.7751
174.5496,100.0270
174.5033,100.2770
174.4563,100.5305
174.4076,100.7932
174.3876,100.9014
174.3596,101.0526
174.3331,101.1956
174.3088,101.3274
174.2871,101.4452
174.2685,101.5459
174.2537,101.6267
174.2431,101.6846
174.2373,101.7166
174.2290,101.7626
174.2169,101.8265
174.2066,101.8778
174.1927,101.9438
173.7103,101.9397
173.7016,101.9397
173.5711,101.9384
173.4667,101.9371
173.3856,101.9356
173.3247,101.9335
173.2811,101.9309
173.2519,101.9274
173.2340,101.9230
173.2246,101.9174
173.2206,101.9104
173.2201,101.9083
173.2140,101.8815
173.2032,101.8318
173.1888,101.7638
173.1717,101.6823
173.1530,101.5920
173.1360,101.5097
173.1114,101.3912
173.0863,101.2707
173.0627,101.1583
173.0429,101.0644
173.0138,100.9261
172.9800,100.7620
172.9466,100.5964
172.9143,100.4335
172.8840,100.2777
172.8565,100.1332
172.8327,100.0044
172.8134,99.8957
172.7995,99.8112
172.7943,99.7783
172.7822,99.7061
172.7713,99.6466
172.7627,99.6053
172.7572,99.5875
172.7571,99.5874
172.7514,99.5973
172.7430,99.6310
172.7329,99.6832
172.7223,99.7487
172.7143,99.8017
172.7051,99.8616
172.6957,99.9203
172.6856,99.9798
172.6746,100.0424
172.6620,100.1101
172.6476,100.1851
172.6308,100.2695
172.6113,100.3655
172.5886,100.4752
172.5623,100.6008
172.5319,100.7443
172.4970,100.9079
172.4572,101.0937
172.4121,101.3040
172.3612,101.5407
172.3474,101.6049
172.3272,101.6975
172.3094,101.7787
172.2948,101.8442
172.2845,101.8897
172.2793,101.9108
172.2785,101.9131
172.2734,101.9196
172.2623,101.9248
172.2425,101.9288
172.2109,101.9317
172.1646,101.9338
172.1007,101.9352
172.0163,101.9360
171.9084,101.9364
171.7742,101.9365
171.6523,101.9364
171.5425,101.9362
171.4565,101.9356
171.3914,101.9345
171.3443,101.9327
171.3123,101.9300
171.2924,101.9263
171.2818,101.9213
171.2776,101.9149
171.2768,101.9070
171.2768,101.9065
171.2757,101.8951
171.2724,101.8726
171.2670,101.8378
171.2590,101.7894
171.2484,101.7262
171.2349,101.6472
171.2183,101.5511
171.1984,101.4367
171.1750,101.3030
171.1479,101.1485
171.1168,100.9724
171.0817,100.7732
171.0422,100.5499
170.9983,100.3012
170.9495,100.0261
170.8959,99.7233
170.8801,99.6342
170.8544,99.4891
170.8294,99.3478
170.8058,99.2144
170.7844,99.0931
170.7659,98.9882
170.7510,98.9037
170.7406,98.8439
170.7362,98.8191
170.7218,98.7382
170.7082,98.6644
170.6968,98.6048
170.6891,98.5667
170.6856,98.5487
170.6826,98.5105
170.6873,98.4895
170.6986,98.4869
170.7360,98.4841
170.7955,98.4820
170.8729,98.4807
170.9640,98.4803
171.0648,98.4809
171.4297,98.4848
171.4775,98.8073
171.5195,99.0912
171.5593,99.3624
171.5951,99.6090
171.6274,99.8336
171.6563,100.0383
171.6823,100.2255
171.7057,100.3974
171.7267,100.5564
171.7457,100.7048
171.7551,100.7787
171.7692,100.8876
171.7820,100.9847
171.7930,101.0665
171.8019,101.1296
171.8080,101.1705
171.8111,101.1858
171.8118,101.1866
171.8134,101.1875
171.8152,101.1851
171.8179,101.1769
171.8219,101.1603
171.8277,101.1328
171.8359,101.0919
171.8469,101.0348
171.8613,100.9592
171.8797,100.8625
171.9024,100.7421
171.9301,100.5954
171.9440,100.5223
171.9700,100.3881
171.9964,100.2547
172.0221,100.1275
172.0459,100.0124
172.0667,99.9149
172.0834,99.8406
172.0970,99.7823
172.1183,99.6906
172.1439,99.5799
172.1727,99.4553
172.2034,99.3221
172.2349,99.1854
172.2659,99.0505
172.2710,99.0281
172.2990,98.9068
172.3251,98.7951
172.3484,98.6960
172.3683,98.6127
172.3839,98.5485
172.3946,98.5065
172.3995,98.4899
172.4031,98.4883
172.4307,98.4848
172.4814,98.4819
172.5509,98.4795
172.6349,98.4780
172.7290,98.4775
172.7372,98.4775
Z" />
<path style="fill:#edece5; fill-opacity:1.0000; stroke:none;fill-rule:evenodd;"
d="M 190.2734,96.8278
190.5443,96.8667
190.8089,96.9298
191.0648,97.0171
191.3102,97.1284
191.5428,97.2637
191.7606,97.4231
191.8607,97.5098
191.9877,97.6316
192.1187,97.7681
192.2479,97.9133
192.3700,98.0614
192.4795,98.2063
192.5227,98.2682
192.6700,98.5077
192.7950,98.7590
192.8961,99.0180
192.9717,99.2805
193.0200,99.5425
193.0397,99.7734
193.0380,100.0476
193.0107,100.3261
192.9586,100.6049
192.8824,100.8801
192.7829,101.1478
192.6609,101.4042
192.6319,101.4575
192.4711,101.7208
192.2930,101.9627
192.0987,102.1824
191.8893,102.3790
191.6659,102.5519
191.4294,102.7003
191.1809,102.8234
190.9216,102.9206
190.6524,102.9909
190.3745,103.0337
190.3406,103.0369
190.2077,103.0450
190.0684,103.0477
189.9344,103.0449
189.8175,103.0365
189.6791,103.0123
189.5089,102.9582
189.3393,102.8794
189.1725,102.7782
189.0113,102.6569
188.8580,102.5179
188.7154,102.3635
188.5858,102.1961
188.4719,102.0180
188.3762,101.8315
188.3012,101.6390
188.2564,101.4794
188.2286,101.3104
188.2243,101.1455
188.2436,100.9779
188.2861,100.8007
188.3109,100.7132
188.3456,100.5697
188.3686,100.4368
188.3817,100.3045
188.3862,100.1630
188.3788,99.9716
188.3512,99.7826
188.3027,99.6122
188.2330,99.4591
188.1417,99.3217
188.1268,99.3040
188.0700,99.2490
188.0019,99.1958
187.9324,99.1515
187.8710,99.1233
187.8621,99.1203
187.8255,99.1059
187.8096,99.0935
187.8162,99.0820
187.8468,99.0702
187.9032,99.0569
187.9869,99.0409
187.9882,99.0407
188.1060,99.0240
188.2353,99.0130
188.3662,99.0083
188.4886,99.0100
188.5926,99.0187
188.7565,99.0500
188.9217,99.1034
189.0692,99.1755
189.1970,99.2650
189.3031,99.3709
189.3853,99.4918
189.4011,99.5226
189.4150,99.5556
189.4175,99.5712
189.4174,99.5713
189.4020,99.5673
189.3694,99.5507
189.3265,99.5248
189.2630,99.4859
189.1578,99.4300
189.0632,99.3904
188.9813,99.3675
188.9140,99.3616
188.8636,99.3729
188.8319,99.4019
188.8212,99.4488
188.8216,99.4585
188.8368,99.5238
188.8714,99.5972
188.9217,99.6706
188.9678,99.7278
188.9273,99.7524
188.9207,99.7565
188.8521,99.8159
188.7894,99.8995
188.7356,100.0024
188.6938,100.1201
188.6843,100.1585
188.6773,100.2009
188.6725,100.2517
188.6698,100.3163
188.6686,100.3998
188.6687,100.5074
188.6703,100.6214
188.6747,100.7429
188.6819,100.8401
188.6915,100.9105
188.7128,101.0204
188.7312,100.8958
188.7337,100.8796
188.7796,100.6831
188.8527,100.4915
188.9511,100.3084
189.0728,100.1375
189.2160,99.9825
189.2485,99.9519
189.2855,99.9183
189.3230,99.8861
189.3642,99.8532
189.4119,99.8174
189.4692,99.7766
189.5391,99.7284
189.6245,99.6709
189.7286,99.6016
189.8541,99.5186
190.0421,99.3934
190.2383,99.2595
190.4158,99.1344
190.5782,99.0153
190.7292,98.8996
190.8725,98.7846
191.0120,98.6674
191.0791,98.6079
191.1664,98.5259
191.2538,98.4396
191.3367,98.3534
191.4106,98.2722
191.4712,98.2006
191.5139,98.1433
191.5751,98.0510
191.6208,98.1140
191.6217,98.1152
191.6694,98.1903
191.7176,98.2812
191.7617,98.3782
191.7973,98.4713
191.8198,98.5508
191.8321,98.6283
191.8333,98.7598
191.8080,98.8807
191.7565,98.9896
191.6793,99.0854
191.6085,99.1551
191.6435,99.2581
191.6588,99.3042
191.6940,99.4303
191.7120,99.5372
191.7128,99.6284
191.6961,99.7074
191.6617,99.7778
191.6093,99.8433
191.5575,99.8973
191.6140,99.9824
191.6424,100.0273
191.6993,100.1380
191.7323,100.2397
191.7413,100.3308
191.7264,100.4097
191.6876,100.4750
191.6247,100.5250
191.6164,100.5292
191.5769,100.5454
191.5162,100.5676
191.4392,100.5942
191.3510,100.6233
191.2565,100.6533
191.0315,100.7259
190.7779,100.8147
190.5399,100.9056
190.3198,100.9978
190.1199,101.0902
189.9422,101.1819
189.7892,101.2718
189.6630,101.3590
189.6455,101.3722
189.6228,101.3869
189.6139,101.3849
189.6123,101.3673
189.6128,101.3612
189.6195,101.3267
189.6327,101.2758
189.6502,101.2171
189.6968,101.0859
189.7991,100.8663
189.9286,100.6559
190.0846,100.4555
190.2665,100.2658
190.4736,100.0878
190.7053,99.9222
190.7144,99.9162
190.7863,99.8670
190.8560,99.8162
190.9158,99.7696
190.9582,99.7327
190.9771,99.7137
191.0275,99.6538
191.0689,99.5918
191.0970,99.5348
191.1073,99.4900
191.1068,99.4827
191.1009,99.4748
191.0845,99.4780
191.0528,99.4938
191.0010,99.5236
190.9965,99.5263
190.9475,99.5544
190.8795,99.5927
190.7982,99.6379
190.7097,99.6866
190.6200,99.7357
190.5672,99.7646
190.4143,99.8506
190.2824,99.9294
190.1668,100.0042
190.0629,100.0783
189.9661,100.1549
189.8717,100.2373
189.7753,100.3286
189.7023,100.4025
189.5649,100.5604
189.4529,100.7196
189.3643,100.8847
189.2967,101.0603
189.2479,101.2510
189.2157,101.4612
189.2101,101.5287
189.2132,101.7152
189.2418,101.9066
189.2947,102.0979
189.3711,102.2838
189.4061,102.3524
189.4358,102.4003
189.4650,102.4344
189.4987,102.4614
189.5672,102.5039
189.7167,102.5731
189.8828,102.6230
190.0615,102.6533
190.2491,102.6637
190.4415,102.6538
190.6348,102.6234
190.8252,102.5721
190.8504,102.5635
190.9841,102.5108
191.1255,102.4448
191.2632,102.3711
191.3861,102.2953
191.5592,102.1672
191.7452,102.0031
191.9236,101.8190
192.0907,101.6195
192.2431,101.4089
192.3774,101.1918
192.4901,100.9725
192.5777,100.7557
192.6433,100.5317
192.6912,100.2723
192.7110,100.0096
192.7030,99.7453
192.6675,99.4814
192.6046,99.2194
192.5147,98.9613
192.3979,98.7087
192.2545,98.4636
192.2532,98.4615
192.1920,98.3706
192.1321,98.2895
192.0676,98.2108
191.9926,98.1275
191.9013,98.0323
191.7171,97.8574
191.5271,97.7049
191.3282,97.5732
191.1146,97.4581
191.0601,97.4324
190.8029,97.3305
190.5386,97.2568
190.2681,97.2115
189.9923,97.1947
189.7122,97.2065
189.4288,97.2471
189.2483,97.2879
188.9816,97.3717
188.7288,97.4801
188.4911,97.6119
188.2700,97.7661
188.0667,97.9416
187.8828,98.1372
187.7194,98.3519
187.5780,98.5845
187.4600,98.8341
187.4297,98.9107
187.3400,99.1875
187.2792,99.4694
187.2472,99.7559
187.2440,100.0467
187.2697,100.3414
187.3242,100.6397
187.4075,100.9413
187.4114,100.9532
187.4503,101.0640
187.4928,101.1671
187.5420,101.2685
187.6011,101.3742
187.6731,101.4901
187.7611,101.6223
187.7887,101.6581
187.8356,101.7121
187.8938,101.7748
187.9575,101.8402
188.0211,101.9028
188.0791,101.9565
188.1256,101.9958
188.1723,102.0356
188.2143,102.0860
188.2488,102.1505
188.2936,102.2388
188.3690,102.3631
188.4603,102.4934
188.5628,102.6232
188.6723,102.7462
188.7008,102.7774
188.7253,102.8091
188.7299,102.8257
188.7136,102.8272
188.6754,102.8135
188.6143,102.7847
188.5291,102.7407
188.4837,102.7162
188.2251,102.5590
187.9853,102.3820
187.7655,102.1869
187.5672,101.9751
187.3915,101.7481
187.2397,101.5073
187.1132,101.2543
187.0132,100.9905
187.0061,100.9681
186.9432,100.7374
186.8997,100.5060
186.8746,100.2659
186.8665,100.0091
186.8758,99.7284
186.9079,99.4318
186.9636,99.1458
187.0435,98.8659
187.1351,98.6256
187.2618,98.3678
187.4125,98.1238
187.5853,97.8960
187.7786,97.6865
187.9907,97.4974
188.2199,97.3311
188.3736,97.2373
188.6306,97.1054
188.8959,96.9980
189.1675,96.9151
189.4431,96.8567
189.7207,96.8227
189.9981,96.8131
Z" />
</g>
</svg>
