<?xml version="1.0" standalone="no"?>
 <!DOCTYPE svg PUBLIC "-//W3C//DTD SVG 1.1//EN"
 "http://www.w3.org/Graphics/SVG/1.1/DTD/svg11.dtd">
<svg
  xmlns:svg="http://www.w3.org/2000/svg"
  xmlns="http://www.w3.org/2000/svg"
  xmlns:xlink="http://www.w3.org/1999/xlink"
  version="1.1"
  width="1170" height="2048" viewBox="72.11 52.9 60.000000000000014 105.00001">
<title>SVG Image created as silk-front.svg date 2026/09/27 17:56:12 </title>
  <desc>Image generated by PCBNEW </desc>
<g style="fill:#edece5; fill-opacity:1.0000;stroke:#edece5; stroke-opacity:1.0000;
stroke-linecap:round; stroke-linejoin:round;"
 transform="translate(0 0) scale(1 1)">
</g>
<g style="fill:none;
stroke:#edece5; stroke-width:0.1000; stroke-opacity:1;
stroke-linecap:round; stroke-linejoin:round;">
<path d="M82.6100 57.3100
L82.6100 62.5500
" />
<path d="M97.9750 62.9900
L99.1450 62.9900
" />
<path d="M83.7800 57.3100
L82.6100 57.3100
" />
<path d="M99.1450 62.9900
L99.1450 57.7500
" />
<path style="fill:#edece5; fill-opacity:1.0000; stroke:none;fill-rule:evenodd;"
d="M 120.3842,63.5689
120.4251,63.5895
120.4614,63.6250
120.4980,63.6928
120.5104,63.7720
120.4978,63.8532
120.4614,63.9190
120.4253,63.9528
120.3844,63.9725
120.3368,63.9792
120.2856,63.9723
120.2434,63.9524
120.2080,63.9190
120.1726,63.8533
120.1604,63.7720
120.1725,63.6927
120.2080,63.6250
120.2436,63.5899
120.2858,63.5691
120.3368,63.5620
Z" />
<path style="fill:#edece5; fill-opacity:1.0000; stroke:none;fill-rule:evenodd;"
d="M 120.4630,62.8055
120.5749,62.8362
120.6729,62.8858
120.7592,62.9549
120.8351,63.0454
120.9047,63.1719
120.9592,63.3350
120.9954,63.5431
121.0087,63.8056
120.9954,64.0680
120.9593,64.2766
120.9048,64.4407
120.8351,64.5686
120.7590,64.6603
120.6726,64.7301
120.5746,64.7802
120.4628,64.8112
120.3340,64.8220
120.2052,64.8112
120.0933,64.7802
119.9952,64.7301
119.9088,64.6603
119.8327,64.5686
119.7630,64.4407
119.7086,64.2766
119.6725,64.0680
119.6592,63.8056
120.0092,63.8056
120.0148,63.9686
120.0302,64.1010
120.0577,64.2223
120.0932,64.3152
120.1415,64.3933
120.1954,64.4454
120.2597,64.4778
120.3340,64.4887
120.4084,64.4778
120.4726,64.4454
120.5266,64.3933
120.5748,64.3152
120.6104,64.2223
120.6377,64.1010
120.6531,63.9686
120.6587,63.8056
120.6531,63.6451
120.6377,63.5130
120.6104,63.3917
120.5748,63.2988
120.5266,63.2207
120.4726,63.1686
120.4084,63.1362
120.3340,63.1253
120.2597,63.1362
120.1954,63.1686
120.1415,63.2207
120.0932,63.2988
120.0577,63.3917
120.0302,63.5130
120.0148,63.6451
120.0092,63.8056
119.6592,63.8056
119.6727,63.5450
119.7097,63.3377
119.7654,63.1743
119.8370,63.0469
119.9147,62.9552
120.0017,62.8856
120.0991,62.8360
120.2090,62.8054
120.3340,62.7948
Z" />
<path style="fill:#edece5; fill-opacity:1.0000; stroke:none;fill-rule:evenodd;"
d="M 121.1786,64.7800
121.2449,64.6617
121.3270,64.5309
121.5104,64.2677
121.6995,64.0213
121.1842,63.3072
121.5875,63.3072
121.9123,63.7664
122.2147,63.3072
122.6067,63.3072
122.1307,64.0156
122.2267,64.1371
122.3239,64.2732
122.4989,64.5463
122.6262,64.7800
122.2231,64.7800
122.1110,64.5812
122.0005,64.4105
121.8955,64.2676
121.7792,64.4315
121.6742,64.5952
121.5706,64.7800
Z" />
<path style="fill:#edece5; fill-opacity:1.0000; stroke:none;fill-rule:evenodd;"
d="M 123.8210,63.2764
123.9581,63.7440
124.0925,64.2438
124.2241,64.7800
123.8097,64.7800
123.7201,64.3321
123.2022,64.3321
123.1125,64.7800
122.7121,64.7800
122.8520,64.2340
122.9140,64.0128
123.2749,64.0128
123.6529,64.0128
123.6025,63.7469
123.5409,63.4906
123.4653,63.2148
123.3897,63.4906
123.3281,63.7469
123.2749,64.0128
122.9140,64.0128
122.9921,63.7343
123.1293,63.2722
123.2637,62.8396
123.6837,62.8396
Z" />
<path style="fill:#edece5; fill-opacity:1.0000; stroke:none;fill-rule:evenodd;"
d="M 125.1808,64.8220
125.0031,64.8078
124.8510,64.7675
124.7201,64.7031
124.6057,64.6131
124.5103,64.4990
124.4331,64.3572
124.3807,64.2030
124.3471,64.0216
124.3352,63.8084
124.3491,63.5961
124.3882,63.4148
124.4500,63.2596
124.5377,63.1182
124.6423,63.0039
124.7650,62.9139
124.9027,62.8483
125.0525,62.8084
125.2172,62.7948
125.3497,62.8023
125.4565,62.8229
125.5537,62.8534
125.6246,62.8831
125.7184,62.9347
125.6176,63.2429
125.5420,63.2004
125.4439,63.1630
125.3366,63.1392
125.2115,63.1307
125.0965,63.1455
124.9820,63.1910
124.9143,63.2384
124.8532,63.3057
124.7985,63.3969
124.7614,63.4967
124.7365,63.6276
124.7272,63.7972
124.7334,63.9426
124.7507,64.0658
124.7775,64.1696
124.8192,64.2671
124.8724,64.3444
124.9371,64.4048
125.0138,64.4487
125.1059,64.4762
125.2172,64.4861
125.3591,64.4769
125.4663,64.4525
125.5611,64.4161
125.6260,64.3824
125.7212,64.6847
125.6338,64.7306
125.5027,64.7787
125.3567,64.8106
Z" />
<path style="fill:#edece5; fill-opacity:1.0000; stroke:none;fill-rule:evenodd;"
d="M 97.7220,97.2650
97.7220,94.0981
98.3016,94.0016
98.3016,95.9294
98.5304,95.6459
98.7530,95.3372
98.9358,95.0558
99.6288,95.0558
99.3663,95.3729
99.0576,95.7173
98.7720,96.0260
99.0261,96.2969
99.2970,96.6266
99.5407,96.9648
99.6416,97.1284
99.7129,97.2650
99.0534,97.2650
98.9043,96.9983
98.7090,96.7065
98.4989,96.4313
98.3016,96.2192
98.3016,97.2650
Z" />
<path style="fill:#edece5; fill-opacity:1.0000; stroke:none;fill-rule:evenodd;"
d="M 101.3452,97.3154
101.1491,97.3008
100.9943,97.2611
100.8726,97.2000
100.7688,97.1128
100.6873,97.0034
100.6269,96.8682
100.5748,96.6399
100.5557,96.3495
100.5557,95.5347
99.9424,95.5347
99.9424,95.0558
101.1353,95.0558
101.1353,96.4249
101.1439,96.5491
101.1668,96.6413
101.2085,96.7174
101.2675,96.7695
101.3438,96.8000
101.4502,96.8114
101.6392,96.7926
101.7546,96.7633
101.8955,96.7065
101.9709,97.1727
101.7442,97.2588
101.5342,97.3027
Z" />
<path style="fill:#edece5; fill-opacity:1.0000; stroke:none;fill-rule:evenodd;"
d="M 100.7445,94.7869
100.6505,94.7756
100.5660,94.7424
100.4885,94.6862
100.4285,94.6127
100.3921,94.5246
100.3793,94.4174
100.3922,94.3075
100.4288,94.2188
100.4885,94.1465
100.5659,94.0914
100.6504,94.0588
100.7445,94.0478
100.8388,94.0588
100.9234,94.0914
101.0008,94.1465
101.0605,94.2188
101.0970,94.3075
101.1100,94.4174
101.0972,94.5246
101.0607,94.6127
101.0008,94.6862
100.9233,94.7424
100.8387,94.7756
Z" />
<path style="fill:#edece5; fill-opacity:1.0000; stroke:none;fill-rule:evenodd;"
d="M 102.4232,97.2650
102.4232,94.0981
103.0028,94.0016
103.0028,95.9294
103.2316,95.6459
103.4542,95.3372
103.6370,95.0558
104.3300,95.0558
104.0675,95.3729
103.7588,95.7173
103.4732,96.0260
103.7273,96.2969
103.9982,96.6266
104.2419,96.9648
104.3427,97.1284
104.4140,97.2650
103.7546,97.2650
103.6055,96.9983
103.4102,96.7065
103.2001,96.4313
103.0028,96.2192
103.0028,97.2650
Z" />
<path style="fill:#edece5; fill-opacity:1.0000; stroke:none;fill-rule:evenodd;"
d="M 105.6516,97.3154
105.4134,97.2983
105.2319,97.2523
105.0951,97.1831
104.9786,97.0840
104.8896,96.9633
104.8262,96.8179
104.7721,96.5751
104.7527,96.2864
104.7527,95.0558
105.3323,95.0558
105.3323,96.2108
105.3424,96.4133
105.3685,96.5596
105.4058,96.6623
105.4676,96.7431
105.5585,96.7930
105.6894,96.8114
105.8216,96.8052
105.9541,96.7904
105.9541,95.0558
106.5379,95.0558
106.5379,97.1893
106.1471,97.2734
105.9115,97.3046
Z" />
<path style="fill:#edece5; fill-opacity:1.0000; stroke:none;fill-rule:evenodd;"
d="M 83.4793,59.6900
83.4793,58.4233
83.7111,58.3846
83.7111,59.1558
83.8026,59.0423
83.8917,58.9189
83.9648,58.8063
84.2420,58.8063
84.1370,58.9332
84.0135,59.0709
83.8993,59.1944
84.0009,59.3028
84.1093,59.4346
84.2067,59.5699
84.2471,59.6354
84.2756,59.6900
84.0118,59.6900
83.9522,59.5833
83.8741,59.4666
83.7900,59.3565
83.7111,59.2717
83.7111,59.6900
Z" />
<path style="fill:#edece5; fill-opacity:1.0000; stroke:none;fill-rule:evenodd;"
d="M 84.9286,59.7101
84.8501,59.7043
84.7882,59.6884
84.7395,59.6640
84.6980,59.6291
84.6654,59.5854
84.6412,59.5313
84.6204,59.4400
84.6127,59.3238
84.6127,58.9979
84.3674,58.9979
84.3674,58.8063
84.8446,58.8063
84.8446,59.3540
84.8480,59.4036
84.8572,59.4405
84.8739,59.4709
84.8975,59.4918
84.9280,59.5040
84.9705,59.5086
85.0462,59.5010
85.0923,59.4893
85.1487,59.4666
85.1789,59.6531
85.0881,59.6875
85.0042,59.7051
Z" />
<path style="fill:#edece5; fill-opacity:1.0000; stroke:none;fill-rule:evenodd;"
d="M 84.6883,58.6988
84.6507,58.6943
84.6169,58.6810
84.5859,58.6585
84.5619,58.6291
84.5473,58.5939
84.5422,58.5510
84.5474,58.5070
84.5620,58.4715
84.5859,58.4426
84.6168,58.4206
84.6506,58.4075
84.6883,58.4031
84.7260,58.4075
84.7598,58.4206
84.7908,58.4426
84.8147,58.4715
84.8293,58.5070
84.8345,58.5510
84.8293,58.5939
84.8148,58.6291
84.7908,58.6585
84.7598,58.6810
84.7260,58.6943
Z" />
<path style="fill:#edece5; fill-opacity:1.0000; stroke:none;fill-rule:evenodd;"
d="M 85.3598,59.6900
85.3598,58.4233
85.5916,58.3846
85.5916,59.1558
85.6831,59.0423
85.7721,58.9189
85.8453,58.8063
86.1225,58.8063
86.0175,58.9332
85.8940,59.0709
85.7798,59.1944
85.8814,59.3028
85.9898,59.4346
86.0872,59.5699
86.1276,59.6354
86.1561,59.6900
85.8923,59.6900
85.8327,59.5833
85.7546,59.4666
85.6705,59.3565
85.5916,59.2717
85.5916,59.6900
Z" />
<path style="fill:#edece5; fill-opacity:1.0000; stroke:none;fill-rule:evenodd;"
d="M 86.6511,59.7101
86.5558,59.7033
86.4832,59.6849
86.4285,59.6572
86.3819,59.6176
86.3463,59.5693
86.3210,59.5111
86.2993,59.4141
86.2916,59.2986
86.2916,58.8063
86.5234,58.8063
86.5234,59.2683
86.5274,59.3493
86.5379,59.4078
86.5528,59.4489
86.5775,59.4812
86.6139,59.5012
86.6662,59.5086
86.7191,59.5061
86.7721,59.5001
86.7721,58.8063
87.0056,58.8063
87.0056,59.6597
86.8493,59.6934
86.7551,59.7058
Z" />
<path style="fill:#edece5; fill-opacity:1.0000; stroke:none;fill-rule:evenodd;"
d="M 88.2746,59.3204
88.2746,59.0936
88.7886,59.0936
88.7886,59.3204
Z" />
<path style="fill:#edece5; fill-opacity:1.0000; stroke:none;fill-rule:evenodd;"
d="M 90.5599,59.7101
90.4904,59.7049
90.4332,59.6903
90.3860,59.6674
90.3452,59.6348
90.3120,59.5933
90.2860,59.5413
90.2690,59.4850
90.2581,59.4181
90.2542,59.3389
90.2542,58.5879
90.0089,58.5879
90.0089,58.3948
90.4860,58.3948
90.4860,59.3557
90.4907,59.4109
90.5028,59.4481
90.5230,59.4772
90.5481,59.4952
90.5780,59.5051
90.6120,59.5086
90.6778,59.5036
90.7287,59.4901
90.7901,59.4666
90.8203,59.6531
90.7430,59.6849
90.6707,59.7030
Z" />
<path style="fill:#edece5; fill-opacity:1.0000; stroke:none;fill-rule:evenodd;"
d="M 91.5102,59.7101
91.4318,59.7043
91.3698,59.6884
91.3212,59.6640
91.2797,59.6291
91.2470,59.5854
91.2229,59.5313
91.2021,59.4400
91.1944,59.3238
91.1944,58.9979
90.9491,58.9979
90.9491,58.8063
91.4262,58.8063
91.4262,59.3540
91.4297,59.4036
91.4388,59.4405
91.4555,59.4709
91.4791,59.4918
91.5097,59.5040
91.5522,59.5086
91.6278,59.5010
91.6740,59.4893
91.7303,59.4666
91.7605,59.6531
91.6698,59.6875
91.5858,59.7051
Z" />
<path style="fill:#edece5; fill-opacity:1.0000; stroke:none;fill-rule:evenodd;"
d="M 91.2700,58.6988
91.2323,58.6943
91.1985,58.6810
91.1675,58.6585
91.1435,58.6291
91.1290,58.5939
91.1238,58.5510
91.1290,58.5070
91.1437,58.4715
91.1675,58.4426
91.1985,58.4206
91.2323,58.4075
91.2700,58.4031
91.3077,58.4075
91.3415,58.4206
91.3725,58.4426
91.3963,58.4715
91.4109,58.5070
91.4161,58.5510
91.4110,58.5939
91.3964,58.6291
91.3725,58.6585
91.3414,58.6810
91.3076,58.6943
Z" />
<path style="fill:#edece5; fill-opacity:1.0000; stroke:none;fill-rule:evenodd;"
d="M 92.2489,59.7101
92.1405,59.7032
92.0540,59.6841
91.9230,59.6379
91.9599,59.4431
92.0993,59.4917
92.1754,59.5094
92.2506,59.5152
92.3312,59.5116
92.3816,59.5027
92.4081,59.4907
92.4222,59.4745
92.4269,59.4531
92.4205,59.4229
92.4017,59.4002
92.3739,59.3827
92.3353,59.3658
92.2455,59.3355
92.1422,59.3011
92.0912,59.2788
92.0455,59.2515
92.0059,59.2174
91.9742,59.1751
91.9538,59.1250
91.9465,59.0600
91.9509,59.0107
91.9640,58.9648
91.9859,58.9214
92.0159,58.8834
92.0562,58.8498
92.1086,58.8206
92.1653,58.8007
92.2363,58.7876
92.3244,58.7828
92.4086,58.7863
92.4849,58.7963
92.5568,58.8128
92.6151,58.8332
92.5782,59.0297
92.5193,59.0105
92.4311,58.9878
92.3807,58.9803
92.3261,58.9777
92.2463,58.9842
92.2077,58.9987
92.1836,59.0220
92.1766,59.0449
92.1823,59.0696
92.2001,59.0919
92.2264,59.1101
92.2631,59.1272
92.3496,59.1591
92.4538,59.1969
92.5058,59.2206
92.5530,59.2490
92.5939,59.2841
92.6260,59.3272
92.6463,59.3782
92.6537,59.4448
92.6494,59.4929
92.6365,59.5374
92.6151,59.5791
92.5855,59.6151
92.5440,59.6470
92.4883,59.6749
92.4283,59.6932
92.3499,59.7056
Z" />
<path style="fill:#edece5; fill-opacity:1.0000; stroke:none;fill-rule:evenodd;"
d="M 93.3689,59.7101
93.2658,59.7033
93.1857,59.6849
93.1396,59.6627
93.1016,59.6296
93.0706,59.5842
93.0504,59.5320
93.0364,59.4594
93.0311,59.3607
93.0311,58.9979
92.8296,58.9979
92.8296,58.8063
93.0311,58.8063
93.0311,58.5828
93.2630,58.5459
93.2630,58.8063
93.6343,58.8063
93.6343,58.9979
93.2630,58.9979
93.2630,59.3557
93.2677,59.4168
93.2789,59.4540
93.2989,59.4816
93.3252,59.4977
93.3567,59.5057
93.3941,59.5086
93.4573,59.5063
93.5066,59.5001
93.5552,59.4873
93.6192,59.4615
93.6511,59.6614
93.5853,59.6841
93.5125,59.6992
93.4384,59.7075
Z" />
<path style="fill:#edece5; fill-opacity:1.0000; stroke:none;fill-rule:evenodd;"
d="M 94.2746,58.7909
94.3543,58.8136
94.4205,58.8495
94.4753,58.8987
94.5178,58.9589
94.5497,59.0332
94.5704,59.1244
94.5779,59.2364
94.5770,59.2826
94.5746,59.3238
94.0000,59.3238
94.0080,59.3772
94.0313,59.4215
94.0713,59.4590
94.1212,59.4857
94.1817,59.5025
94.2553,59.5086
94.3234,59.5050
94.3889,59.4943
94.4956,59.4649
94.5275,59.6614
94.4671,59.6809
94.3998,59.6967
94.3289,59.7066
94.2470,59.7101
94.1483,59.7040
94.0627,59.6866
93.9882,59.6589
93.9205,59.6188
93.8649,59.5682
93.8201,59.5061
93.7885,59.4360
93.7685,59.3531
93.7614,59.2549
93.7655,59.1770
93.7680,59.1625
94.0000,59.1625
94.3544,59.1625
94.3502,59.1165
94.3377,59.0735
94.3157,59.0353
94.2831,59.0046
94.2411,58.9850
94.1831,58.9777
94.1264,58.9847
94.0839,59.0037
94.0499,59.0337
94.0252,59.0718
94.0089,59.1152
94.0000,59.1625
93.7680,59.1625
93.7772,59.1089
93.7958,59.0491
93.8373,58.9669
93.8899,58.9012
93.9537,58.8489
94.0243,58.8122
94.1003,58.7901
94.1781,58.7828
Z" />
<path style="fill:#edece5; fill-opacity:1.0000; stroke:none;fill-rule:evenodd;"
d="M 94.7621,59.6900
94.7621,58.8332
94.9158,58.8013
95.0093,58.7901
95.1133,58.7862
95.2064,58.7928
95.2779,58.8105
95.3325,58.8374
95.3793,58.8759
95.4155,58.9228
95.4417,58.9794
95.4645,59.0745
95.4727,59.1910
95.4727,59.6900
95.2409,59.6900
95.2409,59.2213
95.2376,59.1429
95.2291,59.0878
95.2117,59.0418
95.1863,59.0122
95.1508,58.9945
95.0981,58.9878
95.0469,58.9903
94.9923,58.9962
94.9923,59.6900
Z" />
<path style="fill:#edece5; fill-opacity:1.0000; stroke:none;fill-rule:evenodd;"
d="M 96.2114,59.7101
96.1329,59.7043
96.0710,59.6884
96.0224,59.6640
95.9808,59.6291
95.9482,59.5854
95.9241,59.5313
95.9033,59.4400
95.8956,59.3238
95.8956,58.9979
95.6503,58.9979
95.6503,58.8063
96.1274,58.8063
96.1274,59.3540
96.1309,59.4036
96.1400,59.4405
96.1567,59.4709
96.1803,59.4918
96.2109,59.5040
96.2534,59.5086
96.3290,59.5010
96.3752,59.4893
96.4315,59.4666
96.4617,59.6531
96.3710,59.6875
96.2870,59.7051
Z" />
<path style="fill:#edece5; fill-opacity:1.0000; stroke:none;fill-rule:evenodd;"
d="M 95.9711,58.6988
95.9335,58.6943
95.8997,58.6810
95.8687,58.6585
95.8447,58.6291
95.8302,58.5939
95.8250,58.5510
95.8302,58.5070
95.8448,58.4715
95.8687,58.4426
95.8997,58.4206
95.9335,58.4075
95.9711,58.4031
96.0089,58.4075
96.0427,58.4206
96.0736,58.4426
96.0975,58.4715
96.1121,58.5070
96.1173,58.5510
96.1122,58.5939
96.0976,58.6291
96.0736,58.6585
96.0426,58.6810
96.0088,58.6943
Z" />
<path style="fill:#edece5; fill-opacity:1.0000; stroke:none;fill-rule:evenodd;"
d="M 96.6426,59.6900
96.6426,58.8332
96.7963,58.8013
96.8898,58.7901
96.9937,58.7862
97.0868,58.7928
97.1584,58.8105
97.2130,58.8374
97.2598,58.8759
97.2959,58.9228
97.3221,58.9794
97.3450,59.0745
97.3532,59.1910
97.3532,59.6900
97.1214,59.6900
97.1214,59.2213
97.1181,59.1429
97.1096,59.0878
97.0922,59.0418
97.0668,59.0122
97.0313,58.9945
96.9786,58.9878
96.9273,58.9903
96.8728,58.9962
96.8728,59.6900
Z" />
<path style="fill:#edece5; fill-opacity:1.0000; stroke:none;fill-rule:evenodd;"
d="M 98.0484,58.7891
98.1246,58.7980
98.2021,58.8123
98.2885,58.8332
98.2885,59.5825
98.2807,59.6919
98.2594,59.7790
98.2268,59.8481
98.1835,59.9025
98.1285,59.9445
98.0569,59.9767
97.9646,59.9980
97.8466,60.0058
97.7666,60.0016
97.6887,59.9890
97.5425,59.9504
97.5862,59.7538
97.7013,59.7924
97.7663,59.8059
97.8516,59.8110
97.9270,59.8041
97.9768,59.7866
98.0149,59.7575
98.0381,59.7211
98.0506,59.6783
98.0549,59.6295
98.0549,59.5942
97.9658,59.6211
97.9231,59.6287
97.8768,59.6312
97.8020,59.6253
97.7386,59.6085
97.6845,59.5817
97.6371,59.5443
97.5977,59.4975
97.5660,59.4397
97.5443,59.3768
97.5306,59.3040
97.5257,59.2196
97.7609,59.2196
97.7657,59.2887
97.7786,59.3414
97.8014,59.3859
97.8323,59.4171
97.8720,59.4362
97.9239,59.4431
97.9617,59.4405
97.9961,59.4330
98.0549,59.4094
98.0549,58.9844
98.0079,58.9768
97.9642,58.9743
97.8986,58.9818
97.8489,59.0023
97.8113,59.0348
97.7850,59.0781
97.7675,59.1380
97.7609,59.2196
97.5257,59.2196
97.5324,59.1234
97.5510,59.0434
97.5803,58.9768
97.6220,58.9178
97.6734,58.8702
97.7357,58.8332
97.8044,58.8078
97.8834,58.7918
97.9743,58.7862
Z" />
<path style="fill:#edece5; fill-opacity:1.0000; stroke:none;fill-rule:evenodd;"
d="M 83.5145,61.7060
83.4864,61.5912
83.4591,61.4540
83.4358,61.3103
83.4146,61.1516
83.3802,60.8223
83.5784,60.8223
83.5860,60.9819
83.5943,61.1407
83.6061,61.3003
83.6255,61.4641
83.6683,61.3305
83.7002,61.2138
83.7262,61.1063
83.7514,61.0004
83.9194,61.0004
83.9430,61.1063
83.9682,61.2129
83.9984,61.3297
84.0370,61.4641
84.0606,61.2440
84.0740,61.0374
84.0824,60.8223
84.2807,60.8223
84.2462,61.1525
84.2233,61.3103
84.1983,61.4532
84.1699,61.5898
84.1412,61.7060
83.9665,61.7060
83.9270,61.5985
83.8934,61.5036
83.8615,61.4079
83.8287,61.2977
83.7943,61.4070
83.7640,61.5011
83.7313,61.5960
83.6893,61.7060
Z" />
<path style="fill:#edece5; fill-opacity:1.0000; stroke:none;fill-rule:evenodd;"
d="M 84.9286,61.7261
84.8501,61.7203
84.7882,61.7044
84.7395,61.6800
84.6980,61.6451
84.6654,61.6014
84.6412,61.5473
84.6204,61.4560
84.6127,61.3398
84.6127,61.0139
84.3674,61.0139
84.3674,60.8223
84.8446,60.8223
84.8446,61.3700
84.8480,61.4196
84.8572,61.4565
84.8739,61.4869
84.8975,61.5078
84.9280,61.5200
84.9705,61.5246
85.0462,61.5170
85.0923,61.5053
85.1487,61.4826
85.1789,61.6691
85.0881,61.7035
85.0042,61.7211
Z" />
<path style="fill:#edece5; fill-opacity:1.0000; stroke:none;fill-rule:evenodd;"
d="M 84.6883,60.7148
84.6507,60.7103
84.6169,60.6970
84.5859,60.6745
84.5619,60.6451
84.5473,60.6099
84.5422,60.5670
84.5474,60.5230
84.5620,60.4875
84.5859,60.4586
84.6168,60.4366
84.6506,60.4235
84.6883,60.4191
84.7260,60.4235
84.7598,60.4366
84.7908,60.4586
84.8147,60.4875
84.8293,60.5230
84.8345,60.5670
84.8293,60.6099
84.8148,60.6451
84.7908,60.6745
84.7598,60.6970
84.7260,60.7103
Z" />
<path style="fill:#edece5; fill-opacity:1.0000; stroke:none;fill-rule:evenodd;"
d="M 85.8470,61.7261
85.7439,61.7193
85.6638,61.7009
85.6177,61.6787
85.5797,61.6456
85.5487,61.6002
85.5285,61.5480
85.5145,61.4754
85.5092,61.3767
85.5092,61.0139
85.3077,61.0139
85.3077,60.8223
85.5092,60.8223
85.5092,60.5988
85.7411,60.5619
85.7411,60.8223
86.1124,60.8223
86.1124,61.0139
85.7411,61.0139
85.7411,61.3717
85.7458,61.4328
85.7570,61.4700
85.7770,61.4976
85.8033,61.5137
85.8348,61.5217
85.8722,61.5246
85.9354,61.5223
85.9847,61.5161
86.0333,61.5033
86.0973,61.4775
86.1292,61.6774
86.0634,61.7001
85.9906,61.7152
85.9165,61.7235
Z" />
<path style="fill:#edece5; fill-opacity:1.0000; stroke:none;fill-rule:evenodd;"
d="M 86.3000,61.7060
86.3000,60.4393
86.5301,60.4006
86.5301,60.8291
86.5990,60.8106
86.6679,60.8022
86.7541,60.8087
86.8214,60.8263
86.8737,60.8534
86.9185,60.8917
86.9536,60.9386
86.9795,60.9954
87.0024,61.0905
87.0106,61.2070
87.0106,61.7060
86.7788,61.7060
86.7788,61.2373
86.7752,61.1589
86.7662,61.1038
86.7486,61.0575
86.7250,61.0282
86.6923,61.0104
86.6444,61.0038
86.5806,61.0113
86.5301,61.0256
86.5301,61.7060
Z" />
<path style="fill:#edece5; fill-opacity:1.0000; stroke:none;fill-rule:evenodd;"
d="M 88.8709,61.6791
88.8033,61.6968
88.7147,61.7127
88.6226,61.7228
88.5333,61.7261
88.4440,61.7195
88.3680,61.7007
88.3031,61.6708
88.2457,61.6287
88.1986,61.5764
88.1611,61.5129
88.1353,61.4429
88.1190,61.3624
88.1133,61.2692
88.1139,61.2574
88.3485,61.2574
88.3540,61.3360
88.3693,61.4001
88.3930,61.4523
88.4184,61.4853
88.4497,61.5085
88.4879,61.5228
88.5350,61.5279
88.5887,61.5255
88.6391,61.5195
88.6391,61.0374
88.5794,61.0122
88.5443,61.0046
88.5064,61.0021
88.4564,61.0099
88.4173,61.0323
88.3874,61.0678
88.3653,61.1189
88.3531,61.1786
88.3485,61.2574
88.1139,61.2574
88.1182,61.1734
88.1320,61.0912
88.1536,61.0206
88.1857,60.9549
88.2254,60.9017
88.2729,60.8593
88.3281,60.8282
88.3923,60.8090
88.4678,60.8022
88.5144,60.8049
88.5602,60.8131
88.6036,60.8263
88.6391,60.8425
88.6391,60.4393
88.8709,60.4006
Z" />
<path style="fill:#edece5; fill-opacity:1.0000; stroke:none;fill-rule:evenodd;"
d="M 89.5734,60.8069
89.6531,60.8296
89.7193,60.8655
89.7742,60.9147
89.8166,60.9749
89.8486,61.0492
89.8692,61.1404
89.8767,61.2524
89.8759,61.2986
89.8734,61.3398
89.2988,61.3398
89.3068,61.3932
89.3301,61.4375
89.3701,61.4750
89.4200,61.5017
89.4805,61.5185
89.5541,61.5246
89.6223,61.5210
89.6877,61.5103
89.7944,61.4809
89.8263,61.6774
89.7659,61.6969
89.6986,61.7127
89.6277,61.7226
89.5458,61.7261
89.4471,61.7200
89.3615,61.7026
89.2870,61.6749
89.2193,61.6348
89.1637,61.5842
89.1190,61.5221
89.0873,61.4520
89.0673,61.3691
89.0602,61.2709
89.0643,61.1930
89.0668,61.1785
89.2988,61.1785
89.6533,61.1785
89.6490,61.1325
89.6365,61.0895
89.6145,61.0513
89.5819,61.0206
89.5399,61.0010
89.4819,60.9937
89.4252,61.0007
89.3827,61.0197
89.3487,61.0497
89.3240,61.0878
89.3077,61.1312
89.2988,61.1785
89.0668,61.1785
89.0760,61.1249
89.0946,61.0651
89.1361,60.9829
89.1887,60.9172
89.2525,60.8649
89.3231,60.8282
89.3991,60.8061
89.4769,60.7988
Z" />
<path style="fill:#edece5; fill-opacity:1.0000; stroke:none;fill-rule:evenodd;"
d="M 90.5136,60.8069
90.5934,60.8296
90.6595,60.8655
90.7144,60.9147
90.7568,60.9749
90.7888,61.0492
90.8094,61.1404
90.8169,61.2524
90.8161,61.2986
90.8136,61.3398
90.2390,61.3398
90.2470,61.3932
90.2704,61.4375
90.3104,61.4750
90.3603,61.5017
90.4208,61.5185
90.4944,61.5246
90.5625,61.5210
90.6279,61.5103
90.7346,61.4809
90.7666,61.6774
90.7061,61.6969
90.6389,61.7127
90.5680,61.7226
90.4860,61.7261
90.3873,61.7200
90.3017,61.7026
90.2272,61.6749
90.1595,61.6348
90.1040,61.5842
90.0592,61.5221
90.0276,61.4520
90.0075,61.3691
90.0004,61.2709
90.0045,61.1930
90.0070,61.1785
90.2390,61.1785
90.5935,61.1785
90.5893,61.1325
90.5767,61.0895
90.5548,61.0513
90.5221,61.0206
90.4801,61.0010
90.4221,60.9937
90.3655,61.0007
90.3230,61.0197
90.2890,61.0497
90.2642,61.0878
90.2479,61.1312
90.2390,61.1785
90.0070,61.1785
90.0163,61.1249
90.0349,61.0651
90.0763,60.9829
90.1289,60.9172
90.1928,60.8649
90.2633,60.8282
90.3393,60.8061
90.4171,60.7988
Z" />
<path style="fill:#edece5; fill-opacity:1.0000; stroke:none;fill-rule:evenodd;"
d="M 91.4309,60.8090
91.5074,60.8281
91.5723,60.8585
91.6298,60.9011
91.6772,60.9541
91.7152,61.0189
91.7415,61.0899
91.7581,61.1711
91.7639,61.2642
91.7593,61.3543
91.7462,61.4339
91.7253,61.5044
91.6943,61.5702
91.6554,61.6240
91.6085,61.6674
91.5537,61.6994
91.4898,61.7192
91.4144,61.7261
91.3708,61.7236
91.3262,61.7160
91.2814,61.7034
91.2313,61.6842
91.2313,62.0168
91.0012,62.0168
91.0012,61.0071
91.2313,61.0071
91.2313,61.4926
91.2571,61.5059
91.2927,61.5178
91.3305,61.5255
91.3674,61.5279
91.4188,61.5200
91.4581,61.4977
91.4881,61.4620
91.5110,61.4095
91.5239,61.3484
91.5287,61.2709
91.5229,61.1925
91.5068,61.1284
91.4816,61.0760
91.4550,61.0429
91.4231,61.0197
91.3850,61.0054
91.3388,61.0004
91.2817,61.0029
91.2313,61.0071
91.0012,61.0071
91.0012,60.8492
91.0690,60.8326
91.1591,60.8165
91.2525,60.8057
91.3405,60.8022
Z" />
<path style="fill:#edece5; fill-opacity:1.0000; stroke:none;fill-rule:evenodd;"
d="M 93.3907,61.7261
93.3122,61.7203
93.2503,61.7044
93.2016,61.6800
93.1601,61.6451
93.1275,61.6014
93.1034,61.5473
93.0825,61.4560
93.0749,61.3398
93.0749,61.0139
92.8296,61.0139
92.8296,60.8223
93.3067,60.8223
93.3067,61.3700
93.3102,61.4196
93.3193,61.4565
93.3360,61.4869
93.3596,61.5078
93.3901,61.5200
93.4327,61.5246
93.5083,61.5170
93.5545,61.5053
93.6108,61.4826
93.6410,61.6691
93.5503,61.7035
93.4663,61.7211
Z" />
<path style="fill:#edece5; fill-opacity:1.0000; stroke:none;fill-rule:evenodd;"
d="M 93.1504,60.7148
93.1128,60.7103
93.0790,60.6970
93.0480,60.6745
93.0240,60.6451
93.0094,60.6099
93.0043,60.5670
93.0095,60.5230
93.0241,60.4875
93.0480,60.4586
93.0790,60.4366
93.1128,60.4235
93.1504,60.4191
93.1881,60.4235
93.2220,60.4366
93.2529,60.4586
93.2768,60.4875
93.2914,60.5230
93.2966,60.5670
93.2915,60.6099
93.2769,60.6451
93.2529,60.6745
93.2219,60.6970
93.1881,60.7103
Z" />
<path style="fill:#edece5; fill-opacity:1.0000; stroke:none;fill-rule:evenodd;"
d="M 93.8219,61.7060
93.8219,60.8492
93.9756,60.8173
94.0690,60.8061
94.1730,60.8022
94.2661,60.8088
94.3377,60.8265
94.3923,60.8534
94.4391,60.8919
94.4752,60.9388
94.5014,60.9954
94.5243,61.0905
94.5325,61.2070
94.5325,61.7060
94.3007,61.7060
94.3007,61.2373
94.2974,61.1589
94.2889,61.1038
94.2715,61.0578
94.2461,61.0282
94.2106,61.0105
94.1579,61.0038
94.1066,61.0063
94.0520,61.0122
94.0520,61.7060
Z" />
<path style="fill:#edece5; fill-opacity:1.0000; stroke:none;fill-rule:evenodd;"
d="M 95.2493,61.7261
95.1462,61.7193
95.0662,61.7009
95.0201,61.6787
94.9820,61.6456
94.9511,61.6002
94.9309,61.5480
94.9169,61.4754
94.9116,61.3767
94.9116,61.0139
94.7100,61.0139
94.7100,60.8223
94.9116,60.8223
94.9116,60.5988
95.1435,60.5619
95.1435,60.8223
95.5148,60.8223
95.5148,61.0139
95.1435,61.0139
95.1435,61.3717
95.1481,61.4328
95.1594,61.4700
95.1793,61.4976
95.2057,61.5137
95.2372,61.5217
95.2745,61.5246
95.3378,61.5223
95.3871,61.5161
95.4357,61.5033
95.4996,61.4775
95.5316,61.6774
95.4657,61.7001
95.3929,61.7152
95.3188,61.7235
Z" />
<path style="fill:#edece5; fill-opacity:1.0000; stroke:none;fill-rule:evenodd;"
d="M 96.1551,60.8069
96.2348,60.8296
96.3009,60.8655
96.3558,60.9147
96.3983,60.9749
96.4302,61.0492
96.4509,61.1404
96.4583,61.2524
96.4575,61.2986
96.4550,61.3398
95.8804,61.3398
95.8885,61.3932
95.9118,61.4375
95.9518,61.4750
96.0017,61.5017
96.0622,61.5185
96.1358,61.5246
96.2039,61.5210
96.2694,61.5103
96.3760,61.4809
96.4080,61.6774
96.3475,61.6969
96.2803,61.7127
96.2094,61.7226
96.1274,61.7261
96.0288,61.7200
95.9431,61.7026
95.8686,61.6749
95.8010,61.6348
95.7454,61.5842
95.7006,61.5221
95.6690,61.4520
95.6490,61.3691
95.6418,61.2709
95.6460,61.1930
95.6485,61.1785
95.8804,61.1785
96.2349,61.1785
96.2307,61.1325
96.2181,61.0895
96.1962,61.0513
96.1636,61.0206
96.1215,61.0010
96.0635,60.9937
96.0069,61.0007
95.9644,61.0197
95.9304,61.0497
95.9056,61.0878
95.8893,61.1312
95.8804,61.1785
95.6485,61.1785
95.6577,61.1249
95.6763,61.0651
95.7177,60.9829
95.7704,60.9172
95.8342,60.8649
95.9048,60.8282
95.9808,60.8061
96.0586,60.7988
Z" />
<path style="fill:#edece5; fill-opacity:1.0000; stroke:none;fill-rule:evenodd;"
d="M 96.6426,61.7060
96.6426,60.8492
96.7963,60.8173
96.8898,60.8061
96.9937,60.8022
97.0868,60.8088
97.1584,60.8265
97.2130,60.8534
97.2598,60.8919
97.2959,60.9388
97.3221,60.9954
97.3450,61.0905
97.3532,61.2070
97.3532,61.7060
97.1214,61.7060
97.1214,61.2373
97.1181,61.1589
97.1096,61.1038
97.0922,61.0578
97.0668,61.0282
97.0313,61.0105
96.9786,61.0038
96.9273,61.0063
96.8728,61.0122
96.8728,61.7060
Z" />
<path style="fill:#edece5; fill-opacity:1.0000; stroke:none;fill-rule:evenodd;"
d="M 98.0700,61.7261
97.9669,61.7193
97.8869,61.7009
97.8408,61.6787
97.8027,61.6456
97.7718,61.6002
97.7516,61.5480
97.7376,61.4754
97.7323,61.3767
97.7323,61.0139
97.5307,61.0139
97.5307,60.8223
97.7323,60.8223
97.7323,60.5988
97.9642,60.5619
97.9642,60.8223
98.3355,60.8223
98.3355,61.0139
97.9642,61.0139
97.9642,61.3717
97.9689,61.4328
97.9801,61.4700
98.0001,61.4976
98.0264,61.5137
98.0579,61.5217
98.0952,61.5246
98.1585,61.5223
98.2078,61.5161
98.2564,61.5033
98.3203,61.4775
98.3523,61.6774
98.2865,61.7001
98.2137,61.7152
98.1395,61.7235
Z" />
<path style="fill:#edece5; fill-opacity:1.0000; stroke:none;fill-rule:evenodd;"
d="M 113.3175,127.9600
113.3370,127.4658
113.3608,126.9534
113.3903,126.4592
113.4295,126.0196
113.7487,126.0196
113.8271,126.2591
113.9265,126.5740
114.0231,126.8792
114.1281,126.5587
114.2275,126.2520
114.3059,126.0196
114.6251,126.0196
114.6796,126.6763
114.7188,127.3091
114.7399,127.9600
114.3871,127.9600
114.3926,127.4573
114.3982,126.9534
114.4039,126.4508
114.1659,127.2740
113.8831,127.2740
113.6562,126.4508
113.6604,126.9534
113.6647,127.4573
113.6703,127.9600
Z" />
<path style="fill:#edece5; fill-opacity:1.0000; stroke:none;fill-rule:evenodd;"
d="M 115.7339,126.4593
115.8538,126.4917
115.9610,126.5446
116.0565,126.6170
116.1375,126.7064
116.2047,126.8149
116.2526,126.9336
116.2825,127.0679
116.2930,127.2208
116.2828,127.3719
116.2535,127.5064
116.2061,127.6269
116.1397,127.7372
116.0592,127.8284
115.9638,127.9026
115.8564,127.9570
115.7356,127.9904
115.5986,128.0020
115.4633,127.9905
115.3429,127.9571
115.2345,127.9026
115.1383,127.8284
115.0569,127.7371
114.9896,127.6269
114.9415,127.5063
114.9117,127.3718
114.9016,127.2236
115.2934,127.2236
115.3024,127.3527
115.3274,127.4576
115.3662,127.5428
115.4078,127.5969
115.4581,127.6346
115.5189,127.6578
115.5930,127.6661
115.6869,127.6519
115.7614,127.6114
115.8211,127.5428
115.8622,127.4573
115.8886,127.3524
115.8981,127.2236
115.8892,127.0925
115.8645,126.9877
115.8267,126.9044
115.7860,126.8520
115.7358,126.8150
115.6744,126.7921
115.5986,126.7840
115.5080,126.7976
115.4342,126.8371
115.3731,126.9044
115.3307,126.9883
115.3033,127.0931
115.2934,127.2236
114.9016,127.2236
114.9014,127.2208
114.9121,127.0681
114.9429,126.9337
114.9924,126.8149
115.0613,126.7064
115.1436,126.6169
115.2402,126.5446
115.3483,126.4915
115.4669,126.4591
115.5986,126.4480
Z" />
<path style="fill:#edece5; fill-opacity:1.0000; stroke:none;fill-rule:evenodd;"
d="M 117.7284,127.9152
117.6157,127.9447
117.4680,127.9711
117.3145,127.9880
117.1656,127.9936
117.0168,127.9825
116.8902,127.9511
116.7821,127.9013
116.6863,127.8311
116.6078,127.7441
116.5454,127.6381
116.5024,127.5216
116.4752,127.3873
116.4656,127.2320
116.4666,127.2124
116.8577,127.2124
116.8668,127.3433
116.8923,127.4501
116.9318,127.5372
116.9742,127.5922
117.0264,127.6308
117.0900,127.6547
117.1685,127.6632
117.2580,127.6591
117.3420,127.6492
117.3420,126.8456
117.2426,126.8036
117.1840,126.7911
117.1208,126.7868
117.0375,126.7999
116.9723,126.8372
116.9226,126.8963
116.8856,126.9814
116.8653,127.0809
116.8577,127.2124
116.4666,127.2124
116.4738,127.0723
116.4968,126.9353
116.5328,126.8177
116.5863,126.7081
116.6525,126.6194
116.7316,126.5489
116.8236,126.4971
116.9307,126.4649
117.0565,126.4536
117.1342,126.4582
117.2105,126.4718
117.2828,126.4938
117.3420,126.5208
117.3420,125.8488
117.7284,125.7844
Z" />
<path style="fill:#edece5; fill-opacity:1.0000; stroke:none;fill-rule:evenodd;"
d="M 118.8992,126.4615
119.0321,126.4993
119.1423,126.5592
119.2338,126.6412
119.3045,126.7415
119.3578,126.8653
119.3922,127.0174
119.4046,127.2039
119.4033,127.2810
119.3991,127.3496
118.4414,127.3496
118.4548,127.4386
118.4937,127.5125
118.5604,127.5751
118.6436,127.6194
118.7444,127.6476
118.8670,127.6576
118.9806,127.6516
119.0897,127.6338
119.2675,127.5848
119.3207,127.9124
119.2200,127.9448
119.1079,127.9711
118.9898,127.9877
118.8531,127.9936
118.6887,127.9834
118.5460,127.9543
118.4218,127.9082
118.3090,127.8414
118.2164,127.7570
118.1418,127.6535
118.0890,127.5366
118.0557,127.3985
118.0438,127.2348
118.0507,127.1051
118.0549,127.0808
118.4414,127.0808
119.0323,127.0808
119.0252,127.0042
119.0043,126.9325
118.9677,126.8689
118.9133,126.8177
118.8433,126.7849
118.7466,126.7729
118.6522,126.7844
118.5814,126.8162
118.5247,126.8662
118.4835,126.9297
118.4563,127.0020
118.4414,127.0808
118.0549,127.0808
118.0702,126.9914
118.1012,126.8918
118.1703,126.7549
118.2580,126.6454
118.3644,126.5581
118.4820,126.4970
118.6087,126.4602
118.7383,126.4480
Z" />
<path style="fill:#edece5; fill-opacity:1.0000; stroke:none;fill-rule:evenodd;"
d="M 120.5434,127.9936
120.4276,127.9848
120.3322,127.9605
120.2535,127.9223
120.1854,127.8680
120.1301,127.7988
120.0869,127.7122
120.0586,127.6183
120.0403,127.5068
120.0338,127.3748
120.0338,126.1232
119.6249,126.1232
119.6249,125.8013
120.4202,125.8013
120.4202,127.4028
120.4280,127.4949
120.4481,127.5569
120.4819,127.6053
120.5237,127.6353
120.5734,127.6519
120.6301,127.6576
120.7399,127.6493
120.8246,127.6269
120.9270,127.5877
120.9773,127.8984
120.8485,127.9516
120.7279,127.9816
Z" />
<path style="fill:#edece5; fill-opacity:1.0000; stroke:none;fill-rule:evenodd;"
d="M 122.8459,127.9600
122.8459,125.8488
123.2323,125.7844
123.2323,127.0696
123.3848,126.8806
123.5332,126.6748
123.6551,126.4872
124.1170,126.4872
123.9420,126.6986
123.7363,126.9282
123.5459,127.1340
123.7153,127.3146
123.8959,127.5344
124.0583,127.7598
124.1256,127.8689
124.1731,127.9600
123.7335,127.9600
123.6340,127.7822
123.5039,127.5877
123.3638,127.4042
123.2323,127.2628
123.2323,127.9600
Z" />
<path style="fill:#edece5; fill-opacity:1.0000; stroke:none;fill-rule:evenodd;"
d="M 125.2613,127.9936
125.1306,127.9839
125.0274,127.9574
124.9462,127.9166
124.8771,127.8585
124.8227,127.7856
124.7825,127.6955
124.7477,127.5433
124.7350,127.3496
124.7350,126.8064
124.3261,126.8064
124.3261,126.4872
125.1214,126.4872
125.1214,127.4000
125.1271,127.4827
125.1424,127.5442
125.1702,127.5949
125.2095,127.6297
125.2604,127.6500
125.3313,127.6576
125.4573,127.6450
125.5343,127.6255
125.6282,127.5877
125.6785,127.8984
125.5273,127.9558
125.3873,127.9852
Z" />
<path style="fill:#edece5; fill-opacity:1.0000; stroke:none;fill-rule:evenodd;"
d="M 124.8609,126.3079
124.7982,126.3004
124.7419,126.2783
124.6902,126.2408
124.6502,126.1918
124.6259,126.1331
124.6174,126.0616
124.6260,125.9883
124.6504,125.9292
124.6902,125.8810
124.7418,125.8443
124.7981,125.8226
124.8609,125.8152
124.9237,125.8226
124.9801,125.8443
125.0317,125.8810
125.0715,125.9292
125.0959,125.9883
125.1045,126.0616
125.0960,126.1331
125.0717,126.1918
125.0317,126.2408
124.9800,126.2783
124.9237,126.3004
Z" />
<path style="fill:#edece5; fill-opacity:1.0000; stroke:none;fill-rule:evenodd;"
d="M 125.9800,127.9600
125.9800,125.8488
126.3664,125.7844
126.3664,127.0696
126.5189,126.8806
126.6673,126.6748
126.7892,126.4872
127.2512,126.4872
127.0762,126.6986
126.8704,126.9282
126.6800,127.1340
126.8494,127.3146
127.0300,127.5344
127.1924,127.7598
127.2597,127.8689
127.3072,127.9600
126.8676,127.9600
126.7682,127.7822
126.6380,127.5877
126.4979,127.4042
126.3664,127.2628
126.3664,127.9600
Z" />
<path style="fill:#edece5; fill-opacity:1.0000; stroke:none;fill-rule:evenodd;"
d="M 128.1323,127.9936
127.9734,127.9822
127.8525,127.9516
127.7613,127.9054
127.6836,127.8393
127.6242,127.7589
127.5820,127.6619
127.5459,127.5001
127.5330,127.3076
127.5330,126.4872
127.9194,126.4872
127.9194,127.2572
127.9261,127.3922
127.9435,127.4897
127.9684,127.5582
128.0096,127.6121
128.0702,127.6453
128.1574,127.6576
128.2456,127.6535
128.3339,127.6436
128.3339,126.4872
128.7231,126.4872
128.7231,127.9096
128.4626,127.9656
128.3055,127.9864
Z" />
<path style="fill:#edece5; fill-opacity:1.0000; stroke:none;fill-rule:evenodd;"
d="M 112.6431,131.3200
112.6357,131.2869
112.6347,131.2416
112.6375,131.1744
112.6460,131.0567
112.6709,130.9485
112.7118,130.8482
112.7954,130.7076
112.8980,130.5795
113.1191,130.3540
113.2745,130.2028
113.3401,130.1284
113.3879,130.0586
113.4199,129.9860
113.4299,129.9172
113.4212,129.8420
113.3967,129.7826
113.3572,129.7352
113.3054,129.6998
113.2455,129.6783
113.1752,129.6707
113.1158,129.6755
113.0505,129.6904
112.9856,129.7147
112.9175,129.7506
112.8527,129.7972
112.7860,129.8613
112.5956,129.5923
112.6844,129.5127
112.7817,129.4482
112.8866,129.3981
112.9959,129.3629
113.1076,129.3417
113.2144,129.3348
113.3195,129.3418
113.4185,129.3624
113.5125,129.3965
113.5994,129.4446
113.6736,129.5059
113.7365,129.5812
113.7827,129.6672
113.8117,129.7686
113.8220,129.8892
113.8149,129.9754
113.7936,130.0595
113.7575,130.1426
113.6849,130.2604
113.5924,130.3750
113.3823,130.5892
113.2913,130.6774
113.1906,130.7852
113.1094,130.8972
113.0846,130.9531
113.0771,131.0008
113.9088,131.0008
113.9088,131.3200
Z" />
<path style="fill:#edece5; fill-opacity:1.0000; stroke:none;fill-rule:evenodd;"
d="M 114.8624,130.1089
114.9033,130.1295
114.9396,130.1650
114.9762,130.2328
114.9886,130.3120
114.9760,130.3932
114.9396,130.4590
114.9035,130.4928
114.8626,130.5125
114.8150,130.5192
114.7638,130.5123
114.7216,130.4924
114.6862,130.4590
114.6509,130.3933
114.6386,130.3120
114.6507,130.2327
114.6862,130.1650
114.7218,130.1299
114.7640,130.1091
114.8150,130.1020
Z" />
<path style="fill:#edece5; fill-opacity:1.0000; stroke:none;fill-rule:evenodd;"
d="M 114.9412,129.3455
115.0531,129.3762
115.1511,129.4258
115.2374,129.4949
115.3133,129.5854
115.3829,129.7119
115.4374,129.8750
115.4736,130.0831
115.4870,130.3456
115.4737,130.6080
115.4375,130.8166
115.3830,130.9807
115.3133,131.1086
115.2373,131.2003
115.1509,131.2701
115.0529,131.3202
114.9410,131.3512
114.8122,131.3620
114.6834,131.3512
114.5715,131.3202
114.4735,131.2701
114.3870,131.2003
114.3109,131.1086
114.2413,130.9807
114.1868,130.8166
114.1507,130.6080
114.1374,130.3456
114.4874,130.3456
114.4930,130.5086
114.5084,130.6410
114.5359,130.7623
114.5714,130.8552
114.6197,130.9333
114.6736,130.9854
114.7379,131.0178
114.8122,131.0287
114.8866,131.0178
114.9508,130.9854
115.0048,130.9333
115.0531,130.8552
115.0886,130.7623
115.1160,130.6410
115.1313,130.5086
115.1370,130.3456
115.1314,130.1851
115.1160,130.0530
115.0886,129.9317
115.0531,129.8388
115.0048,129.7607
114.9508,129.7086
114.8866,129.6762
114.8122,129.6653
114.7379,129.6762
114.6736,129.7086
114.6197,129.7607
114.5714,129.8388
114.5359,129.9317
114.5084,130.0530
114.4930,130.1851
114.4874,130.3456
114.1374,130.3456
114.1510,130.0850
114.1879,129.8777
114.2437,129.7143
114.3152,129.5869
114.3929,129.4952
114.4799,129.4256
114.5773,129.3760
114.6872,129.3454
114.8122,129.3348
Z" />
<path style="fill:#edece5; fill-opacity:1.0000; stroke:none;fill-rule:evenodd;"
d="M 115.7772,131.3200
115.7698,131.2869
115.7688,131.2416
115.7716,131.1744
115.7801,131.0567
115.8050,130.9485
115.8459,130.8482
115.9295,130.7076
116.0321,130.5795
116.2533,130.3540
116.4086,130.2028
116.4742,130.1284
116.5221,130.0586
116.5540,129.9860
116.5641,129.9172
116.5553,129.8420
116.5309,129.7826
116.4913,129.7352
116.4396,129.6998
116.3797,129.6783
116.3093,129.6707
116.2499,129.6755
116.1846,129.6904
116.1197,129.7147
116.0516,129.7506
115.9868,129.7972
115.9201,129.8613
115.7297,129.5923
115.8185,129.5127
115.9159,129.4482
116.0207,129.3981
116.1301,129.3629
116.2417,129.3417
116.3485,129.3348
116.4536,129.3418
116.5526,129.3624
116.6466,129.3965
116.7335,129.4446
116.8077,129.5059
116.8706,129.5812
116.9169,129.6672
116.9458,129.7686
116.9561,129.8892
116.9490,129.9754
116.9277,130.0595
116.8916,130.1426
116.8190,130.2604
116.7265,130.3750
116.5164,130.5892
116.4255,130.6774
116.3247,130.7852
116.2435,130.8972
116.2187,130.9531
116.2113,131.0008
117.0429,131.0008
117.0429,131.3200
Z" />
<path style="fill:#edece5; fill-opacity:1.0000; stroke:none;fill-rule:evenodd;"
d="M 118.4980,129.6960
118.3349,129.7084
118.1788,129.7395
118.0793,129.7731
117.9906,129.8184
117.9113,129.8753
117.8445,129.9448
117.7918,130.0297
117.7532,130.1329
117.8678,130.0922
117.9687,130.0768
118.1180,130.0875
118.2369,130.1170
118.3313,130.1623
118.4144,130.2260
118.4796,130.3008
118.5286,130.3876
118.5624,130.4827
118.5832,130.5858
118.5903,130.6984
118.5814,130.8103
118.5539,130.9266
118.5079,131.0383
118.4419,131.1422
118.3567,131.2313
118.2501,131.3018
118.1705,131.3344
118.0793,131.3548
117.9743,131.3620
117.8158,131.3479
117.6838,131.3080
117.5731,131.2444
117.4801,131.1562
117.4101,131.0503
117.3563,130.9149
117.3209,130.7433
117.3099,130.5613
117.6860,130.5613
117.6920,130.6772
117.7097,130.7866
117.7440,130.8864
117.7951,130.9616
117.8402,130.9981
117.8960,131.0207
117.9659,131.0287
118.0460,131.0153
118.1073,130.9770
118.1543,130.9197
118.1871,130.8496
118.2062,130.7742
118.2123,130.7040
118.2041,130.6090
118.1815,130.5355
118.1465,130.4787
118.0967,130.4370
118.0235,130.4094
117.9184,130.3988
117.7951,130.4114
117.7344,130.4273
117.6915,130.4463
117.6873,130.5024
117.6860,130.5613
117.3099,130.5613
117.3079,130.5276
117.3179,130.3388
117.3465,130.1721
117.3920,130.0244
117.4535,129.8934
117.5342,129.7709
117.6284,129.6653
117.7369,129.5753
117.8609,129.5000
117.9932,129.4427
118.1385,129.4007
118.2986,129.3746
118.4755,129.3656
Z" />
<path style="fill:#edece5; fill-opacity:1.0000; stroke:none;fill-rule:evenodd;"
d="M 121.1357,129.3681
121.2778,129.3988
121.3987,129.4473
121.5018,129.5126
121.5867,129.5973
121.6486,129.7024
121.6879,129.8321
121.7021,129.9928
121.6942,130.1050
121.6711,130.2072
121.6335,130.3009
121.5787,130.3836
121.5029,130.4533
121.4025,130.5108
121.5551,130.7558
121.7077,131.0414
121.7761,131.1873
121.8309,131.3200
121.4249,131.3200
121.3763,131.1981
121.3198,131.0778
121.1925,130.8412
121.0525,130.6060
121.0314,130.6060
121.0105,130.6060
120.8509,130.6060
120.8509,131.3200
120.4645,131.3200
120.4645,129.7016
120.8509,129.7016
120.8509,130.2840
120.9349,130.2840
121.0621,130.2743
121.1518,130.2490
121.2245,130.2052
121.2722,130.1482
121.3001,130.0777
121.3101,129.9900
121.2984,129.8931
121.2666,129.8221
121.2154,129.7661
121.1462,129.7255
121.0654,129.7017
120.9685,129.6932
120.9153,129.6947
120.8509,129.7016
120.4645,129.7016
120.4645,129.4076
120.6339,129.3768
120.8172,129.3614
120.9685,129.3571
Z" />
<path style="fill:#edece5; fill-opacity:1.0000; stroke:none;fill-rule:evenodd;"
d="M 122.0623,131.3200
122.0623,129.3796
123.2384,129.3796
123.2384,129.6988
122.4459,129.6988
122.4459,130.1355
123.1347,130.1355
123.1347,130.4548
122.4459,130.4548
122.4459,131.0008
123.3055,131.0008
123.3055,131.3200
Z" />
<path style="fill:#edece5; fill-opacity:1.0000; stroke:none;fill-rule:evenodd;"
d="M 124.0130,131.3200
123.8856,130.9364
123.7568,130.5052
123.6364,130.0727
123.5370,129.6821
123.4726,129.3796
123.8785,129.3796
123.9346,129.7283
124.0171,130.1398
124.1152,130.5584
124.2174,130.9252
124.3182,130.5598
124.4134,130.1413
124.4946,129.7283
124.5562,129.3796
124.9622,129.3796
124.8698,129.7996
124.7423,130.2882
124.5883,130.8076
124.4134,131.3200
Z" />
<path style="fill:#edece5; fill-opacity:1.0000; stroke:none;fill-rule:evenodd;"
d="M 127.7015,129.8164
127.8387,130.2840
127.9731,130.7838
128.1047,131.3200
127.6903,131.3200
127.6007,130.8721
127.0828,130.8721
126.9931,131.3200
126.5927,131.3200
126.7326,130.7740
126.7946,130.5528
127.1555,130.5528
127.5335,130.5528
127.4831,130.2869
127.4215,130.0306
127.3459,129.7548
127.2703,130.0306
127.2087,130.2869
127.1555,130.5528
126.7946,130.5528
126.8727,130.2743
127.0099,129.8122
127.1443,129.3796
127.5643,129.3796
Z" />
</g>
<g style="fill:none;
stroke:#edece5; stroke-width:0.3750; stroke-opacity:1;
stroke-linecap:round; stroke-linejoin:round;">
<text x="102.1250" y="102.3500"
textLength="8.0964" font-size="4.0000" lengthAdjust="spacingAndGlyphs"
text-anchor="middle" opacity="0" stroke-opacity="0">聴く</text>
<g class="stroked-text"><desc>聴く</desc>
<path d="M98.9107 100.3919
L99.9107 100.3919
" />
<path d="M98.9107 99.5348
L99.9107 99.5348
" />
<path d="M98.9107 98.8205
L98.9107 101.3919
" />
<path d="M99.7679 101.2491
L98.6250 101.3919
" />
<path d="M99.9107 98.8205
L99.9107 101.9634
" />
<path d="M100.3393 100.5348
L102.1964 100.5348
" />
<path d="M100.3393 99.5348
L100.3393 100.5348
" />
<path d="M100.4821 101.1062
L100.0536 101.8205
" />
<path d="M100.9107 101.9634
L101.7679 101.9634
" />
<path d="M100.9107 99.5348
L100.9107 100.5348
" />
<path d="M100.9107 101.1062
L100.9107 101.9634
" />
<path d="M101.1964 100.8205
L101.4821 101.1062
" />
<path d="M101.1964 98.5348
L101.1964 99.5348
" />
<path d="M101.4821 99.5348
L101.4821 100.5348
" />
<path d="M101.7679 101.5348
L101.7679 101.9634
" />
<path d="M101.9107 101.1062
L102.3393 101.8205
" />
<path d="M98.6250 98.8205
L100.1964 98.9634
" />
<path d="M100.1964 98.9634
L102.1964 98.9634
" />
<path d="M100.3393 99.5348
L102.1964 99.5348
" />
<path d="M102.1964 99.5348
L102.1964 100.5348
" />
<path d="M104.6250 98.8205
L103.9107 100.2491
" />
<path d="M103.9107 100.2491
L104.6250 101.8205
" />
</g></g>
<g style="fill:none;
stroke:#edece5; stroke-width:0.1500; stroke-opacity:1;
stroke-linecap:round; stroke-linejoin:round;">
<text x="79.6800" y="152.0400"
textLength="1.9643" font-size="1.3333" lengthAdjust="spacingAndGlyphs"
text-anchor="middle" opacity="0" stroke-opacity="0">J6</text>
<g class="stroked-text"><desc>J6</desc>
<path d="M79.3467 150.9948
L79.3467 151.7091
" />
<path d="M79.3467 151.7091
L79.2990 151.8520
" />
<path d="M79.2990 151.8520
L79.2038 151.9472
" />
<path d="M79.2038 151.9472
L79.0610 151.9948
" />
<path d="M79.0610 151.9948
L78.9657 151.9948
" />
<path d="M80.2514 150.9948
L80.0610 150.9948
" />
<path d="M80.0610 150.9948
L79.9657 151.0424
" />
<path d="M79.9657 151.0424
L79.9181 151.0901
" />
<path d="M79.9181 151.0901
L79.8229 151.2329
" />
<path d="M79.8229 151.2329
L79.7752 151.4234
" />
<path d="M79.7752 151.4234
L79.7752 151.8043
" />
<path d="M79.7752 151.8043
L79.8229 151.8996
" />
<path d="M79.8229 151.8996
L79.8705 151.9472
" />
<path d="M79.8705 151.9472
L79.9657 151.9948
" />
<path d="M79.9657 151.9948
L80.1562 151.9948
" />
<path d="M80.1562 151.9948
L80.2514 151.9472
" />
<path d="M80.2514 151.9472
L80.2990 151.8996
" />
<path d="M80.2990 151.8996
L80.3467 151.8043
" />
<path d="M80.3467 151.8043
L80.3467 151.5662
" />
<path d="M80.3467 151.5662
L80.2990 151.4710
" />
<path d="M80.2990 151.4710
L80.2514 151.4234
" />
<path d="M80.2514 151.4234
L80.1562 151.3758
" />
<path d="M80.1562 151.3758
L79.9657 151.3758
" />
<path d="M79.9657 151.3758
L79.8705 151.4234
" />
<path d="M79.8705 151.4234
L79.8229 151.4710
" />
<path d="M79.8229 151.4710
L79.7752 151.5662
" />
</g><text x="105.6100" y="131.6900"
textLength="2.9643" font-size="1.3333" lengthAdjust="spacingAndGlyphs"
text-anchor="middle" opacity="0" stroke-opacity="0">LS1</text>
<g class="stroked-text"><desc>LS1</desc>
<path d="M104.9671 131.6448
L104.4910 131.6448
" />
<path d="M104.4910 131.6448
L104.4910 130.6448
" />
<path d="M105.2529 131.5972
L105.3957 131.6448
" />
<path d="M105.3957 131.6448
L105.6338 131.6448
" />
<path d="M105.6338 131.6448
L105.7290 131.5972
" />
<path d="M105.7290 131.5972
L105.7767 131.5496
" />
<path d="M105.7767 131.5496
L105.8243 131.4543
" />
<path d="M105.8243 131.4543
L105.8243 131.3591
" />
<path d="M105.8243 131.3591
L105.7767 131.2639
" />
<path d="M105.7767 131.2639
L105.7290 131.2162
" />
<path d="M105.7290 131.2162
L105.6338 131.1686
" />
<path d="M105.6338 131.1686
L105.4433 131.1210
" />
<path d="M105.4433 131.1210
L105.3481 131.0734
" />
<path d="M105.3481 131.0734
L105.3005 131.0258
" />
<path d="M105.3005 131.0258
L105.2529 130.9305
" />
<path d="M105.2529 130.9305
L105.2529 130.8353
" />
<path d="M105.2529 130.8353
L105.3005 130.7401
" />
<path d="M105.3005 130.7401
L105.3481 130.6924
" />
<path d="M105.3481 130.6924
L105.4433 130.6448
" />
<path d="M105.4433 130.6448
L105.6814 130.6448
" />
<path d="M105.6814 130.6448
L105.8243 130.6924
" />
<path d="M106.7767 131.6448
L106.2052 131.6448
" />
<path d="M106.4910 131.6448
L106.4910 130.6448
" />
<path d="M106.4910 130.6448
L106.3957 130.7877
" />
<path d="M106.3957 130.7877
L106.3005 130.8829
" />
<path d="M106.3005 130.8829
L106.2052 130.9305
" />
</g><text x="75.9000" y="141.6300"
textLength="2.2024" font-size="1.3333" lengthAdjust="spacingAndGlyphs"
text-anchor="middle" opacity="0" stroke-opacity="0">C6</text>
<g class="stroked-text"><desc>C6</desc>
<path d="M75.7333 141.4896
L75.6857 141.5372
" />
<path d="M75.6857 141.5372
L75.5429 141.5848
" />
<path d="M75.5429 141.5848
L75.4476 141.5848
" />
<path d="M75.4476 141.5848
L75.3048 141.5372
" />
<path d="M75.3048 141.5372
L75.2095 141.4420
" />
<path d="M75.2095 141.4420
L75.1619 141.3467
" />
<path d="M75.1619 141.3467
L75.1143 141.1562
" />
<path d="M75.1143 141.1562
L75.1143 141.0134
" />
<path d="M75.1143 141.0134
L75.1619 140.8229
" />
<path d="M75.1619 140.8229
L75.2095 140.7277
" />
<path d="M75.2095 140.7277
L75.3048 140.6324
" />
<path d="M75.3048 140.6324
L75.4476 140.5848
" />
<path d="M75.4476 140.5848
L75.5429 140.5848
" />
<path d="M75.5429 140.5848
L75.6857 140.6324
" />
<path d="M75.6857 140.6324
L75.7333 140.6801
" />
<path d="M76.5905 140.5848
L76.4000 140.5848
" />
<path d="M76.4000 140.5848
L76.3048 140.6324
" />
<path d="M76.3048 140.6324
L76.2571 140.6801
" />
<path d="M76.2571 140.6801
L76.1619 140.8229
" />
<path d="M76.1619 140.8229
L76.1143 141.0134
" />
<path d="M76.1143 141.0134
L76.1143 141.3943
" />
<path d="M76.1143 141.3943
L76.1619 141.4896
" />
<path d="M76.1619 141.4896
L76.2095 141.5372
" />
<path d="M76.2095 141.5372
L76.3048 141.5848
" />
<path d="M76.3048 141.5848
L76.4952 141.5848
" />
<path d="M76.4952 141.5848
L76.5905 141.5372
" />
<path d="M76.5905 141.5372
L76.6381 141.4896
" />
<path d="M76.6381 141.4896
L76.6857 141.3943
" />
<path d="M76.6857 141.3943
L76.6857 141.1562
" />
<path d="M76.6857 141.1562
L76.6381 141.0610
" />
<path d="M76.6381 141.0610
L76.5905 141.0134
" />
<path d="M76.5905 141.0134
L76.4952 140.9658
" />
<path d="M76.4952 140.9658
L76.3048 140.9658
" />
<path d="M76.3048 140.9658
L76.2095 141.0134
" />
<path d="M76.2095 141.0134
L76.1619 141.0610
" />
<path d="M76.1619 141.0610
L76.1143 141.1562
" />
</g><text x="92.2000" y="155.9000"
textLength="1.9643" font-size="1.3333" lengthAdjust="spacingAndGlyphs"
text-anchor="middle" opacity="0" stroke-opacity="0">J1</text>
<g class="stroked-text"><desc>J1</desc>
<path d="M91.8667 154.8548
L91.8667 155.5691
" />
<path d="M91.8667 155.5691
L91.8190 155.7120
" />
<path d="M91.8190 155.7120
L91.7238 155.8072
" />
<path d="M91.7238 155.8072
L91.5810 155.8548
" />
<path d="M91.5810 155.8548
L91.4857 155.8548
" />
<path d="M92.8667 155.8548
L92.2952 155.8548
" />
<path d="M92.5810 155.8548
L92.5810 154.8548
" />
<path d="M92.5810 154.8548
L92.4857 154.9977
" />
<path d="M92.4857 154.9977
L92.3905 155.0929
" />
<path d="M92.3905 155.0929
L92.2952 155.1405
" />
</g><g transform="rotate(-90.000000 86.2000 134.8400)">
<text x="86.2000" y="135.3400"
textLength="2.0119" font-size="1.3333" lengthAdjust="spacingAndGlyphs"
text-anchor="middle" opacity="0" stroke-opacity="0">L2</text>
</g>
<g class="stroked-text"><desc>L2</desc>
<path d="M86.6548 135.0067
L86.6548 135.4829
" />
<path d="M86.6548 135.4829
L85.6548 135.4829
" />
<path d="M85.7501 134.7210
L85.7024 134.6733
" />
<path d="M85.7024 134.6733
L85.6548 134.5781
" />
<path d="M85.6548 134.5781
L85.6548 134.3400
" />
<path d="M85.6548 134.3400
L85.7024 134.2448
" />
<path d="M85.7024 134.2448
L85.7501 134.1971
" />
<path d="M85.7501 134.1971
L85.8453 134.1495
" />
<path d="M85.8453 134.1495
L85.9405 134.1495
" />
<path d="M85.9405 134.1495
L86.0834 134.1971
" />
<path d="M86.0834 134.1971
L86.6548 134.7686
" />
<path d="M86.6548 134.7686
L86.6548 134.1495
" />
</g><text x="109.0750" y="62.0450"
textLength="1.9643" font-size="1.3333" lengthAdjust="spacingAndGlyphs"
text-anchor="middle" opacity="0" stroke-opacity="0">J2</text>
<g class="stroked-text"><desc>J2</desc>
<path d="M108.7417 60.9998
L108.7417 61.7141
" />
<path d="M108.7417 61.7141
L108.6940 61.8570
" />
<path d="M108.6940 61.8570
L108.5988 61.9522
" />
<path d="M108.5988 61.9522
L108.4560 61.9998
" />
<path d="M108.4560 61.9998
L108.3607 61.9998
" />
<path d="M109.1702 61.0951
L109.2179 61.0474
" />
<path d="M109.2179 61.0474
L109.3131 60.9998
" />
<path d="M109.3131 60.9998
L109.5512 60.9998
" />
<path d="M109.5512 60.9998
L109.6464 61.0474
" />
<path d="M109.6464 61.0474
L109.6940 61.0951
" />
<path d="M109.6940 61.0951
L109.7417 61.1903
" />
<path d="M109.7417 61.1903
L109.7417 61.2855
" />
<path d="M109.7417 61.2855
L109.6940 61.4284
" />
<path d="M109.6940 61.4284
L109.1226 61.9998
" />
<path d="M109.1226 61.9998
L109.7417 61.9998
" />
</g><g transform="rotate(-90.000000 98.5500 154.8500)">
<text x="98.5500" y="155.3500"
textLength="2.2500" font-size="1.3333" lengthAdjust="spacingAndGlyphs"
text-anchor="middle" opacity="0" stroke-opacity="0">U1</text>
</g>
<g class="stroked-text"><desc>U1</desc>
<path d="M98.0048 155.6119
L98.8143 155.6119
" />
<path d="M98.8143 155.6119
L98.9096 155.5643
" />
<path d="M98.9096 155.5643
L98.9572 155.5167
" />
<path d="M98.9572 155.5167
L99.0048 155.4214
" />
<path d="M99.0048 155.4214
L99.0048 155.2310
" />
<path d="M99.0048 155.2310
L98.9572 155.1357
" />
<path d="M98.9572 155.1357
L98.9096 155.0881
" />
<path d="M98.9096 155.0881
L98.8143 155.0405
" />
<path d="M98.8143 155.0405
L98.0048 155.0405
" />
<path d="M99.0048 154.0405
L99.0048 154.6119
" />
<path d="M99.0048 154.3262
L98.0048 154.3262
" />
<path d="M98.0048 154.3262
L98.1477 154.4214
" />
<path d="M98.1477 154.4214
L98.2429 154.5167
" />
<path d="M98.2429 154.5167
L98.2905 154.6119
" />
</g><text x="98.5500" y="132.8750"
textLength="2.4614" font-size="1.0667" lengthAdjust="spacingAndGlyphs"
text-anchor="middle" opacity="0" stroke-opacity="0">BT1</text>
<g class="stroked-text"><desc>BT1</desc>
<path d="M97.9214 132.3060
L98.0357 132.3536
" />
<path d="M98.0357 132.3536
L98.0738 132.4012
" />
<path d="M98.0738 132.4012
L98.1119 132.4965
" />
<path d="M98.1119 132.4965
L98.1119 132.6393
" />
<path d="M98.1119 132.6393
L98.0738 132.7346
" />
<path d="M98.0738 132.7346
L98.0357 132.7822
" />
<path d="M98.0357 132.7822
L97.9595 132.8298
" />
<path d="M97.9595 132.8298
L97.6548 132.8298
" />
<path d="M97.6548 132.8298
L97.6548 131.8298
" />
<path d="M97.6548 131.8298
L97.9214 131.8298
" />
<path d="M97.9214 131.8298
L97.9976 131.8774
" />
<path d="M97.9976 131.8774
L98.0357 131.9251
" />
<path d="M98.0357 131.9251
L98.0738 132.0203
" />
<path d="M98.0738 132.0203
L98.0738 132.1155
" />
<path d="M98.0738 132.1155
L98.0357 132.2108
" />
<path d="M98.0357 132.2108
L97.9976 132.2584
" />
<path d="M97.9976 132.2584
L97.9214 132.3060
" />
<path d="M97.9214 132.3060
L97.6548 132.3060
" />
<path d="M98.3405 131.8298
L98.7976 131.8298
" />
<path d="M98.5690 132.8298
L98.5690 131.8298
" />
<path d="M99.4833 132.8298
L99.0262 132.8298
" />
<path d="M99.2548 132.8298
L99.2548 131.8298
" />
<path d="M99.2548 131.8298
L99.1786 131.9727
" />
<path d="M99.1786 131.9727
L99.1024 132.0679
" />
<path d="M99.1024 132.0679
L99.0262 132.1155
" />
</g><text x="77.1900" y="67.9900"
textLength="1.9643" font-size="1.3333" lengthAdjust="spacingAndGlyphs"
text-anchor="middle" opacity="0" stroke-opacity="0">J4</text>
<g class="stroked-text"><desc>J4</desc>
<path d="M76.8567 66.9448
L76.8567 67.6591
" />
<path d="M76.8567 67.6591
L76.8090 67.8020
" />
<path d="M76.8090 67.8020
L76.7138 67.8972
" />
<path d="M76.7138 67.8972
L76.5710 67.9448
" />
<path d="M76.5710 67.9448
L76.4757 67.9448
" />
<path d="M77.7614 67.2782
L77.7614 67.9448
" />
<path d="M77.5233 66.8972
L77.2852 67.6115
" />
<path d="M77.2852 67.6115
L77.9043 67.6115
" />
</g><text x="92.9800" y="148.4500"
textLength="2.2500" font-size="1.3333" lengthAdjust="spacingAndGlyphs"
text-anchor="middle" opacity="0" stroke-opacity="0">U4</text>
<g class="stroked-text"><desc>U4</desc>
<path d="M92.2181 147.4048
L92.2181 148.2143
" />
<path d="M92.2181 148.2143
L92.2657 148.3096
" />
<path d="M92.2657 148.3096
L92.3133 148.3572
" />
<path d="M92.3133 148.3572
L92.4086 148.4048
" />
<path d="M92.4086 148.4048
L92.5990 148.4048
" />
<path d="M92.5990 148.4048
L92.6943 148.3572
" />
<path d="M92.6943 148.3572
L92.7419 148.3096
" />
<path d="M92.7419 148.3096
L92.7895 148.2143
" />
<path d="M92.7895 148.2143
L92.7895 147.4048
" />
<path d="M93.6943 147.7382
L93.6943 148.4048
" />
<path d="M93.4562 147.3572
L93.2181 148.0715
" />
<path d="M93.2181 148.0715
L93.8371 148.0715
" />
</g><text x="91.1600" y="136.9300"
textLength="2.0119" font-size="1.3333" lengthAdjust="spacingAndGlyphs"
text-anchor="middle" opacity="0" stroke-opacity="0">L1</text>
<g class="stroked-text"><desc>L1</desc>
<path d="M90.9933 136.8848
L90.5171 136.8848
" />
<path d="M90.5171 136.8848
L90.5171 135.8848
" />
<path d="M91.8505 136.8848
L91.2790 136.8848
" />
<path d="M91.5648 136.8848
L91.5648 135.8848
" />
<path d="M91.5648 135.8848
L91.4695 136.0277
" />
<path d="M91.4695 136.0277
L91.3743 136.1229
" />
<path d="M91.3743 136.1229
L91.2790 136.1705
" />
</g><text x="83.5800" y="141.6200"
textLength="2.2024" font-size="1.3333" lengthAdjust="spacingAndGlyphs"
text-anchor="middle" opacity="0" stroke-opacity="0">C5</text>
<g class="stroked-text"><desc>C5</desc>
<path d="M83.4133 141.4796
L83.3657 141.5272
" />
<path d="M83.3657 141.5272
L83.2229 141.5748
" />
<path d="M83.2229 141.5748
L83.1276 141.5748
" />
<path d="M83.1276 141.5748
L82.9848 141.5272
" />
<path d="M82.9848 141.5272
L82.8895 141.4320
" />
<path d="M82.8895 141.4320
L82.8419 141.3367
" />
<path d="M82.8419 141.3367
L82.7943 141.1462
" />
<path d="M82.7943 141.1462
L82.7943 141.0034
" />
<path d="M82.7943 141.0034
L82.8419 140.8129
" />
<path d="M82.8419 140.8129
L82.8895 140.7177
" />
<path d="M82.8895 140.7177
L82.9848 140.6224
" />
<path d="M82.9848 140.6224
L83.1276 140.5748
" />
<path d="M83.1276 140.5748
L83.2229 140.5748
" />
<path d="M83.2229 140.5748
L83.3657 140.6224
" />
<path d="M83.3657 140.6224
L83.4133 140.6701
" />
<path d="M84.3181 140.5748
L83.8419 140.5748
" />
<path d="M83.8419 140.5748
L83.7943 141.0510
" />
<path d="M83.7943 141.0510
L83.8419 141.0034
" />
<path d="M83.8419 141.0034
L83.9371 140.9558
" />
<path d="M83.9371 140.9558
L84.1752 140.9558
" />
<path d="M84.1752 140.9558
L84.2705 141.0034
" />
<path d="M84.2705 141.0034
L84.3181 141.0510
" />
<path d="M84.3181 141.0510
L84.3657 141.1462
" />
<path d="M84.3657 141.1462
L84.3657 141.3843
" />
<path d="M84.3657 141.3843
L84.3181 141.4796
" />
<path d="M84.3181 141.4796
L84.2705 141.5272
" />
<path d="M84.2705 141.5272
L84.1752 141.5748
" />
<path d="M84.1752 141.5748
L83.9371 141.5748
" />
<path d="M83.9371 141.5748
L83.8419 141.5272
" />
<path d="M83.8419 141.5272
L83.7943 141.4796
" />
</g><text x="114.5500" y="90.8900"
textLength="2.1548" font-size="1.3333" lengthAdjust="spacingAndGlyphs"
text-anchor="middle" opacity="0" stroke-opacity="0">X1</text>
<g class="stroked-text"><desc>X1</desc>
<path d="M113.7405 89.8448
L114.4071 90.8448
" />
<path d="M114.4071 89.8448
L113.7405 90.8448
" />
<path d="M115.3119 90.8448
L114.7405 90.8448
" />
<path d="M115.0262 90.8448
L115.0262 89.8448
" />
<path d="M115.0262 89.8448
L114.9310 89.9877
" />
<path d="M114.9310 89.9877
L114.8357 90.0829
" />
<path d="M114.8357 90.0829
L114.7405 90.1305
" />
</g><g transform="rotate(-90.000000 124.7400 73.9750)">
<text x="124.7400" y="74.4750"
textLength="4.0595" font-size="1.3333" lengthAdjust="spacingAndGlyphs"
text-anchor="middle" opacity="0" stroke-opacity="0">FPC1</text>
</g>
<g class="stroked-text"><desc>FPC1</desc>
<path d="M124.6710 75.3083
L124.6710 75.6417
" />
<path d="M125.1948 75.6417
L124.1948 75.6417
" />
<path d="M124.1948 75.6417
L124.1948 75.1655
" />
<path d="M125.1948 74.7845
L124.1948 74.7845
" />
<path d="M124.1948 74.7845
L124.1948 74.4036
" />
<path d="M124.1948 74.4036
L124.2424 74.3083
" />
<path d="M124.2424 74.3083
L124.2901 74.2607
" />
<path d="M124.2901 74.2607
L124.3853 74.2131
" />
<path d="M124.3853 74.2131
L124.5282 74.2131
" />
<path d="M124.5282 74.2131
L124.6234 74.2607
" />
<path d="M124.6234 74.2607
L124.6710 74.3083
" />
<path d="M124.6710 74.3083
L124.7186 74.4036
" />
<path d="M124.7186 74.4036
L124.7186 74.7845
" />
<path d="M125.0996 73.2131
L125.1472 73.2607
" />
<path d="M125.1472 73.2607
L125.1948 73.4036
" />
<path d="M125.1948 73.4036
L125.1948 73.4988
" />
<path d="M125.1948 73.4988
L125.1472 73.6417
" />
<path d="M125.1472 73.6417
L125.0520 73.7369
" />
<path d="M125.0520 73.7369
L124.9567 73.7845
" />
<path d="M124.9567 73.7845
L124.7662 73.8321
" />
<path d="M124.7662 73.8321
L124.6234 73.8321
" />
<path d="M124.6234 73.8321
L124.4329 73.7845
" />
<path d="M124.4329 73.7845
L124.3377 73.7369
" />
<path d="M124.3377 73.7369
L124.2424 73.6417
" />
<path d="M124.2424 73.6417
L124.1948 73.4988
" />
<path d="M124.1948 73.4988
L124.1948 73.4036
" />
<path d="M124.1948 73.4036
L124.2424 73.2607
" />
<path d="M124.2424 73.2607
L124.2901 73.2131
" />
<path d="M125.1948 72.2607
L125.1948 72.8321
" />
<path d="M125.1948 72.5464
L124.1948 72.5464
" />
<path d="M124.1948 72.5464
L124.3377 72.6417
" />
<path d="M124.3377 72.6417
L124.4329 72.7369
" />
<path d="M124.4329 72.7369
L124.4805 72.8321
" />
</g><text x="88.5800" y="76.3200"
textLength="3.2024" font-size="1.3333" lengthAdjust="spacingAndGlyphs"
text-anchor="middle" opacity="0" stroke-opacity="0">U10</text>
<g class="stroked-text"><desc>U10</desc>
<path d="M87.3419 75.2748
L87.3419 76.0843
" />
<path d="M87.3419 76.0843
L87.3895 76.1796
" />
<path d="M87.3895 76.1796
L87.4371 76.2272
" />
<path d="M87.4371 76.2272
L87.5324 76.2748
" />
<path d="M87.5324 76.2748
L87.7229 76.2748
" />
<path d="M87.7229 76.2748
L87.8181 76.2272
" />
<path d="M87.8181 76.2272
L87.8657 76.1796
" />
<path d="M87.8657 76.1796
L87.9133 76.0843
" />
<path d="M87.9133 76.0843
L87.9133 75.2748
" />
<path d="M88.9133 76.2748
L88.3419 76.2748
" />
<path d="M88.6276 76.2748
L88.6276 75.2748
" />
<path d="M88.6276 75.2748
L88.5324 75.4177
" />
<path d="M88.5324 75.4177
L88.4371 75.5129
" />
<path d="M88.4371 75.5129
L88.3419 75.5605
" />
<path d="M89.5324 75.2748
L89.6276 75.2748
" />
<path d="M89.6276 75.2748
L89.7229 75.3224
" />
<path d="M89.7229 75.3224
L89.7705 75.3701
" />
<path d="M89.7705 75.3701
L89.8181 75.4653
" />
<path d="M89.8181 75.4653
L89.8657 75.6558
" />
<path d="M89.8657 75.6558
L89.8657 75.8939
" />
<path d="M89.8657 75.8939
L89.8181 76.0843
" />
<path d="M89.8181 76.0843
L89.7705 76.1796
" />
<path d="M89.7705 76.1796
L89.7229 76.2272
" />
<path d="M89.7229 76.2272
L89.6276 76.2748
" />
<path d="M89.6276 76.2748
L89.5324 76.2748
" />
<path d="M89.5324 76.2748
L89.4371 76.2272
" />
<path d="M89.4371 76.2272
L89.3895 76.1796
" />
<path d="M89.3895 76.1796
L89.3419 76.0843
" />
<path d="M89.3419 76.0843
L89.2943 75.8939
" />
<path d="M89.2943 75.8939
L89.2943 75.6558
" />
<path d="M89.2943 75.6558
L89.3419 75.4653
" />
<path d="M89.3419 75.4653
L89.3895 75.3701
" />
<path d="M89.3895 75.3701
L89.4371 75.3224
" />
<path d="M89.4371 75.3224
L89.5324 75.2748
" />
</g><g transform="rotate(-90.000000 79.2200 127.6300)">
<text x="79.2200" y="128.1300"
textLength="2.2500" font-size="1.3333" lengthAdjust="spacingAndGlyphs"
text-anchor="middle" opacity="0" stroke-opacity="0">U6</text>
</g>
<g class="stroked-text"><desc>U6</desc>
<path d="M78.6748 128.3919
L79.4843 128.3919
" />
<path d="M79.4843 128.3919
L79.5796 128.3443
" />
<path d="M79.5796 128.3443
L79.6272 128.2967
" />
<path d="M79.6272 128.2967
L79.6748 128.2014
" />
<path d="M79.6748 128.2014
L79.6748 128.0110
" />
<path d="M79.6748 128.0110
L79.6272 127.9157
" />
<path d="M79.6272 127.9157
L79.5796 127.8681
" />
<path d="M79.5796 127.8681
L79.4843 127.8205
" />
<path d="M79.4843 127.8205
L78.6748 127.8205
" />
<path d="M78.6748 126.9157
L78.6748 127.1062
" />
<path d="M78.6748 127.1062
L78.7224 127.2014
" />
<path d="M78.7224 127.2014
L78.7701 127.2490
" />
<path d="M78.7701 127.2490
L78.9129 127.3443
" />
<path d="M78.9129 127.3443
L79.1034 127.3919
" />
<path d="M79.1034 127.3919
L79.4843 127.3919
" />
<path d="M79.4843 127.3919
L79.5796 127.3443
" />
<path d="M79.5796 127.3443
L79.6272 127.2967
" />
<path d="M79.6272 127.2967
L79.6748 127.2014
" />
<path d="M79.6748 127.2014
L79.6748 127.0110
" />
<path d="M79.6748 127.0110
L79.6272 126.9157
" />
<path d="M79.6272 126.9157
L79.5796 126.8681
" />
<path d="M79.5796 126.8681
L79.4843 126.8205
" />
<path d="M79.4843 126.8205
L79.2462 126.8205
" />
<path d="M79.2462 126.8205
L79.1510 126.8681
" />
<path d="M79.1510 126.8681
L79.1034 126.9157
" />
<path d="M79.1034 126.9157
L79.0558 127.0110
" />
<path d="M79.0558 127.0110
L79.0558 127.2014
" />
<path d="M79.0558 127.2014
L79.1034 127.2967
" />
<path d="M79.1034 127.2967
L79.1510 127.3443
" />
<path d="M79.1510 127.3443
L79.2462 127.3919
" />
</g></g>
<g style="fill:none;
stroke:#edece5; stroke-width:0.1200; stroke-opacity:1;
stroke-linecap:round; stroke-linejoin:round;">
<path d="M102.8673 137.4975
L102.3927 137.4975
" />
<path d="M102.8673 138.5425
L102.3927 138.5425
" />
<path d="M73.6800 145.6900
L85.6800 145.6900
" />
<path d="M73.6800 156.6900
L73.6800 145.6900
" />
<path d="M75.1800 156.6900
L73.6800 156.6900
" />
<path d="M75.1800 157.8900
L75.1800 156.6900
" />
<path d="M76.6800 157.8900
L75.1800 157.8900
" />
<path d="M76.6800 159.6900
L76.6800 157.8900
" />
<path d="M77.6800 156.6900
L77.6800 159.6900
" />
<path d="M81.6800 156.6900
L77.6800 156.6900
" />
<path d="M81.6800 159.6900
L81.6800 156.6900
" />
<path d="M82.6800 157.8900
L82.6800 159.6900
" />
<path d="M82.6800 159.6900
L76.6800 159.6900
" />
<path d="M84.1800 156.6900
L84.1800 157.8900
" />
<path d="M84.1800 157.8900
L82.6800 157.8900
" />
<path d="M85.6800 145.6900
L85.6800 156.6900
" />
<path d="M85.6800 156.6900
L84.1800 156.6900
" />
<path d="M88.9400 148.3721
L88.9400 147.1679
" />
<path d="M90.7600 148.3721
L90.7600 147.1679
" />
<path d="M103.3700 131.7500
L103.3700 132.7000
" />
<path d="M103.3700 132.7000
L104.3200 132.7000
" />
<path d="M106.8900 132.7000
L106.8900 133.3900
" />
<path d="M107.4700 128.7800
L103.7400 128.7800
" />
<path d="M107.8400 131.7500
L107.8400 132.7000
" />
<path d="M107.8400 132.7000
L106.8900 132.7000
" />
<path d="M74.0156 135.8650
L73.7344 135.8650
" />
<path d="M74.0156 136.8850
L73.7344 136.8850
" />
<path d="M88.6200 122.5556
L88.6200 122.2744
" />
<path d="M89.6400 122.5556
L89.6400 122.2744
" />
<path d="M97.4173 144.8975
L96.9427 144.8975
" />
<path d="M97.4173 145.9425
L96.9427 145.9425
" />
<path d="M88.7500 140.6806
L88.7500 140.3994
" />
<path d="M89.7700 140.6806
L89.7700 140.3994
" />
<path d="M113.4100 134.2756
L113.4100 133.9944
" />
<path d="M114.4300 134.2756
L114.4300 133.9944
" />
<path d="M117.8056 73.2300
L117.5244 73.2300
" />
<path d="M117.8056 74.2500
L117.5244 74.2500
" />
<path d="M88.1606 144.2200
L87.8794 144.2200
" />
<path d="M88.1606 145.2400
L87.8794 145.2400
" />
<path d="M113.3975 136.9627
L113.3975 137.4373
" />
<path d="M114.4425 136.9627
L114.4425 137.4373
" />
</g>
<g style="fill:none;
stroke:#edece5; stroke-width:0.2500; stroke-opacity:1;
stroke-linecap:round; stroke-linejoin:round;">
<path d="M87.9700 124.8550
L87.9700 126.1250
" />
<path d="M87.9700 126.8850
L87.9700 128.0250
" />
<path d="M87.9700 128.0250
L87.9700 128.1550
" />
<path d="M87.9700 128.1550
L88.2300 128.4150
" />
<path d="M88.2300 124.6050
L87.9700 124.8550
" />
<path d="M88.2300 128.4150
L89.6300 128.4150
" />
<path d="M88.3600 124.6050
L88.2300 124.6050
" />
<path d="M89.6300 128.4150
L89.7500 128.4150
" />
<path d="M89.7500 124.6050
L88.3600 124.6050
" />
<path d="M89.7500 128.4150
L90.0100 128.1550
" />
<path d="M90.0100 124.8550
L89.7500 124.6050
" />
<path d="M90.0100 124.9850
L90.0100 124.8550
" />
<path d="M90.0100 126.1250
L90.0100 124.9850
" />
<path d="M90.0100 128.1550
L90.0100 126.8850
" />
</g>
<g style="fill:none;
stroke:#edece5; stroke-width:0.0600; stroke-opacity:1;
stroke-linecap:round; stroke-linejoin:round;">
<circle cx="89.6300" cy="127.4650" r="0.0300" />
</g>
<g style="fill:none;
stroke:#edece5; stroke-width:0.1200; stroke-opacity:1;
stroke-linecap:round; stroke-linejoin:round;">
<path d="M98.9627 155.6175
L99.4373 155.6175
" />
<path d="M98.9627 156.6625
L99.4373 156.6625
" />
<path d="M77.1827 78.2875
L77.6573 78.2875
" />
<path d="M77.1827 79.3325
L77.6573 79.3325
" />
<path d="M82.4800 122.5256
L82.4800 122.2444
" />
<path d="M83.5000 122.5256
L83.5000 122.2444
" />
<path d="M109.7894 134.3300
L110.0706 134.3300
" />
<path d="M109.7894 135.3500
L110.0706 135.3500
" />
<path d="M81.9100 98.3000
L83.5100 96.7500
" />
<path d="M81.9100 99.4500
L81.9100 98.3000
" />
<path d="M81.9100 101.3500
L81.9100 104.4500
" />
<path d="M81.9100 106.3500
L81.9100 107.5000
" />
<path d="M81.9100 107.5000
L83.5100 109.0500
" />
<path d="M83.5100 96.7500
L92.7100 96.7500
" />
<path d="M83.5100 109.0500
L92.7100 109.0500
" />
<path d="M92.7100 96.7500
L94.3100 98.3000
" />
<path d="M92.7100 109.0500
L94.3100 107.5000
" />
<path d="M94.3100 99.4500
L94.3100 98.3000
" />
<path d="M94.3100 101.3500
L94.3100 104.4500
" />
<path d="M94.3100 106.3500
L94.3100 107.5000
" />
<path d="M109.9100 98.3000
L111.5100 96.7500
" />
<path d="M109.9100 99.4500
L109.9100 98.3000
" />
<path d="M109.9100 101.3500
L109.9100 104.4500
" />
<path d="M109.9100 106.3500
L109.9100 107.5000
" />
<path d="M109.9100 107.5000
L111.5100 109.0500
" />
<path d="M111.5100 96.7500
L120.7100 96.7500
" />
<path d="M111.5100 109.0500
L120.7100 109.0500
" />
<path d="M120.7100 96.7500
L122.3100 98.3000
" />
<path d="M120.7100 109.0500
L122.3100 107.5000
" />
<path d="M122.3100 99.4500
L122.3100 98.3000
" />
<path d="M122.3100 101.3500
L122.3100 104.4500
" />
<path d="M122.3100 106.3500
L122.3100 107.5000
" />
<path d="M105.2525 72.1073
L105.2525 71.6327
" />
<path d="M106.2975 72.1073
L106.2975 71.6327
" />
<path d="M77.9594 110.6900
L78.2406 110.6900
" />
<path d="M77.9594 111.7100
L78.2406 111.7100
" />
</g>
<g style="fill:none;
stroke:#edece5; stroke-width:0.1500; stroke-opacity:1;
stroke-linecap:round; stroke-linejoin:round;">
<path d="M91.4800 85.4800
L86.4800 85.4800
" />
<path d="M91.4800 88.9800
L86.4800 88.9800
" />
</g>
<g style="fill:none;
stroke:#edece5; stroke-width:0.1200; stroke-opacity:1;
stroke-linecap:round; stroke-linejoin:round;">
<path d="M97.3373 140.0875
L96.8627 140.0875
" />
<path d="M97.3373 141.1325
L96.8627 141.1325
" />
<path d="M83.0300 86.2194
L83.0300 86.5006
" />
<path d="M84.0500 86.2194
L84.0500 86.5006
" />
<path d="M73.1400 139.4344
L73.1400 143.8900
" />
<path d="M73.1400 143.8900
L74.8400 143.8900
" />
<path d="M74.2044 138.3700
L73.1400 139.4344
" />
<path d="M74.2044 138.3700
L74.8400 138.3700
" />
<path d="M77.5850 137.5050
L77.5850 138.1300
" />
<path d="M77.5956 138.3700
L76.9600 138.3700
" />
<path d="M77.5956 138.3700
L78.6600 139.4344
" />
<path d="M77.8975 137.8175
L77.2725 137.8175
" />
<path d="M78.6600 139.4344
L78.6600 143.8900
" />
<path d="M78.6600 143.8900
L76.9600 143.8900
" />
<path d="M94.0675 137.8073
L94.0675 137.3327
" />
<path d="M95.1125 137.8073
L95.1125 137.3327
" />
<path d="M86.3375 127.6873
L86.3375 127.2127
" />
<path d="M87.3825 127.6873
L87.3825 127.2127
" />
<path d="M109.6827 137.3775
L110.1573 137.3775
" />
<path d="M109.6827 138.4225
L110.1573 138.4225
" />
<path d="M114.9300 137.0594
L114.9300 137.3406
" />
<path d="M115.9500 137.0594
L115.9500 137.3406
" />
<path d="M112.0056 91.2100
L111.7244 91.2100
" />
<path d="M112.0056 92.2300
L111.7244 92.2300
" />
<path d="M108.3025 72.1073
L108.3025 71.6327
" />
<path d="M109.3475 72.1073
L109.3475 71.6327
" />
</g>
<g style="fill:none;
stroke:#edece5; stroke-width:0.2500; stroke-opacity:1;
stroke-linecap:round; stroke-linejoin:round;">
<path d="M95.8600 110.9500
L98.4100 110.9500
" />
<path d="M95.8600 115.5000
L95.8600 110.9500
" />
<path d="M95.8600 124.3500
L95.8600 119.8000
" />
<path d="M95.8600 124.3500
L98.7100 124.3500
" />
<path d="M100.5100 124.3500
L101.2100 124.3500
" />
<path d="M100.8400 110.9500
L103.3800 110.9500
" />
<path d="M103.0300 124.3500
L103.7300 124.3500
" />
<path d="M103.3800 118.9200
L100.8400 118.9200
" />
<path d="M105.5100 124.3500
L108.3600 124.3500
" />
<path d="M105.8100 110.9500
L108.3600 110.9500
" />
<path d="M108.3600 115.5000
L108.3600 110.9500
" />
<path d="M108.3600 124.3500
L108.3600 119.8000
" />
<path d="M103.3800 118.9200 A1.7961 1.7961 0.0 1 0 100.8400 118.9200" />
</g>
<g style="fill:none;
stroke:#edece5; stroke-width:0.0600; stroke-opacity:1;
stroke-linecap:round; stroke-linejoin:round;">
<circle cx="95.8600" cy="110.2000" r="0.0300" />
</g>
<g style="fill:none;
stroke:#edece5; stroke-width:0.2500; stroke-opacity:1;
stroke-linecap:round; stroke-linejoin:round;">
<circle cx="102.1100" cy="117.6500" r="3.0000" />
</g>
<g style="fill:none;
stroke:#edece5; stroke-width:0.1200; stroke-opacity:1;
stroke-linecap:round; stroke-linejoin:round;">
<path d="M88.6200 119.2294
L88.6200 119.5106
" />
<path d="M89.6400 119.2294
L89.6400 119.5106
" />
<path d="M99.2694 71.1400
L99.5506 71.1400
" />
<path d="M99.2694 72.1600
L99.5506 72.1600
" />
<path d="M79.2200 139.4994
L79.2200 139.7806
" />
<path d="M80.2400 139.4994
L80.2400 139.7806
" />
<path d="M87.0900 119.2294
L87.0900 119.5106
" />
<path d="M88.1100 119.2294
L88.1100 119.5106
" />
<path d="M76.0350 128.4394
L76.0350 128.7206
" />
<path d="M77.0550 128.4394
L77.0550 128.7206
" />
<path d="M92.6000 86.1994
L92.6000 86.4806
" />
<path d="M93.6200 86.1994
L93.6200 86.4806
" />
<path d="M97.4394 67.4900
L97.7206 67.4900
" />
<path d="M97.4394 68.5100
L97.7206 68.5100
" />
<path d="M119.4123 71.6875
L118.9377 71.6875
" />
<path d="M119.4123 72.7325
L118.9377 72.7325
" />
<path d="M87.5000 153.5000
L87.5000 155.5000
" />
<path d="M87.5000 157.4000
L87.5000 159.3000
" />
<path d="M87.5000 159.3000
L96.9000 159.3000
" />
<path d="M96.9000 153.5000
L96.9000 155.5000
" />
<path d="M96.9000 157.4000
L96.9000 159.3000
" />
<path d="M82.8375 130.7723
L82.8375 130.2977
" />
<path d="M83.8825 130.7723
L83.8825 130.2977
" />
<path d="M94.1000 122.5756
L94.1000 122.2944
" />
<path d="M95.1200 122.5756
L95.1200 122.2944
" />
<path d="M90.9600 132.4206
L90.9600 132.1394
" />
<path d="M91.9800 132.4206
L91.9800 132.1394
" />
</g>
<g style="fill:none;
stroke:#edece5; stroke-width:0.1500; stroke-opacity:1;
stroke-linecap:round; stroke-linejoin:round;">
<path d="M84.1200 132.7400
L84.1200 132.9400
" />
<path d="M84.1300 136.7400
L84.1300 136.9400
" />
<path d="M84.1300 136.9400
L88.2800 136.9400
" />
<path d="M88.2700 132.7400
L84.1200 132.7400
" />
<path d="M88.2700 132.9500
L88.2700 132.7400
" />
<path d="M88.2800 136.9400
L88.2800 136.7200
" />
</g>
<g style="fill:none;
stroke:#edece5; stroke-width:0.0600; stroke-opacity:1;
stroke-linecap:round; stroke-linejoin:round;">
<circle cx="88.2000" cy="132.8400" r="0.0300" />
</g>
<g style="fill:none;
stroke:#edece5; stroke-width:0.1200; stroke-opacity:1;
stroke-linecap:round; stroke-linejoin:round;">
<path d="M73.7344 132.8150
L74.0156 132.8150
" />
<path d="M73.7344 133.8350
L74.0156 133.8350
" />
<path d="M102.0800 69.4350
L102.0800 55.4250
" />
<path d="M103.5600 53.3650
L103.3000 53.3650
" />
<path d="M103.7600 53.1650
L103.5600 53.3650
" />
<path d="M103.7600 53.1650
L106.0700 53.1650
" />
<path d="M104.0000 69.4350
L102.0800 69.4350
" />
<path d="M106.0700 53.1650
L106.5800 53.5150
" />
<path d="M112.9500 53.5150
L106.5800 53.5150
" />
<path d="M112.9500 53.5150
L112.9500 53.3650
" />
<path d="M113.1600 53.1650
L112.9500 53.3650
" />
<path d="M115.0200 53.1650
L113.1600 53.1650
" />
<path d="M115.0200 53.1650
L115.2200 53.3650
" />
<path d="M115.6000 69.4350
L116.0500 69.4350
" />
<path d="M116.0500 58.1250
L116.0500 56.3250
" />
<path d="M116.0500 64.1250
L116.0500 59.4250
" />
<path d="M116.0500 69.4350
L116.0500 65.8250
" />
<path d="M115.9750 89.5294
L115.9750 89.8106
" />
<path d="M116.9950 89.5294
L116.9950 89.8106
" />
<path d="M99.4200 139.3900
L99.4200 142.0600
" />
<path d="M99.4200 152.1800
L99.4200 154.8500
" />
<path d="M99.4200 154.8500
L100.9900 154.8500
" />
<path d="M100.9900 139.3900
L99.4200 139.3900
" />
<path style="fill:#edece5; fill-opacity:1.0000;
stroke:#edece5; stroke-width:0.1200; stroke-opacity:1;
stroke-linecap:round; stroke-linejoin:round;fill-rule:evenodd;"
d="M 121.6500,139.3200
121.1500,139.3200
121.1500,138.8200
Z" />
</g>
<g style="fill:none;
stroke:#edece5; stroke-width:0.1200; stroke-opacity:1;
stroke-linecap:round; stroke-linejoin:round;">
<path d="M83.0700 65.6606
L83.0700 65.3794
" />
<path d="M84.0900 65.6606
L84.0900 65.3794
" />
</g>
<g style="fill:none;
stroke:#edece5; stroke-width:0.1500; stroke-opacity:1;
stroke-linecap:round; stroke-linejoin:round;">
<path d="M91.2100 139.7157
L91.7100 139.7157
" />
<path d="M91.2100 140.2157
L91.2100 139.7157
" />
<path d="M91.2100 143.3757
L91.2100 143.5058
" />
<path d="M91.2100 143.3757
L91.2100 143.8757
" />
<path d="M91.2100 143.5058
L91.5800 143.8757
" />
<path d="M91.2100 143.8757
L91.7100 143.8757
" />
<path d="M95.3700 139.7157
L94.8700 139.7157
" />
<path d="M95.3700 140.2157
L95.3700 139.7157
" />
<path d="M95.3700 143.3757
L95.3700 143.8757
" />
<path d="M95.3700 143.8757
L94.8700 143.8757
" />
</g>
<g style="fill:none;
stroke:#edece5; stroke-width:0.0600; stroke-opacity:1;
stroke-linecap:round; stroke-linejoin:round;">
<circle cx="91.2900" cy="143.7957" r="0.0300" />
</g>
<g style="fill:none;
stroke:#edece5; stroke-width:0.1500; stroke-opacity:1;
stroke-linecap:round; stroke-linejoin:round;">
<circle cx="91.6400" cy="144.1457" r="0.1450" />
<path style="fill:#edece5; fill-opacity:1.0000; stroke:none;fill-rule:evenodd;"
d="M 91.5900,143.8719
91.2138,143.8719
91.2138,143.3762
Z" />
</g>
<g style="fill:none;
stroke:#edece5; stroke-width:0.1200; stroke-opacity:1;
stroke-linecap:round; stroke-linejoin:round;">
<circle cx="100.0300" cy="138.2400" r="0.7000" />
<path d="M93.7294 124.2300
L94.0106 124.2300
" />
<path d="M93.7294 125.2500
L94.0106 125.2500
" />
<circle cx="105.8500" cy="156.5800" r="0.7000" />
<path d="M93.9300 128.6700
L93.9300 129.9200
" />
<path d="M94.2300 128.9700
L94.2300 133.6900
" />
<path d="M94.2300 130.2800
L94.8400 130.2800
" />
<path d="M94.2300 131.5800
L94.8400 131.5800
" />
<path d="M94.2300 133.6900
L100.3500 133.6900
" />
<path d="M94.8400 129.5800
L94.8400 133.0800
" />
<path d="M94.8400 133.0800
L99.7400 133.0800
" />
<path d="M95.1800 128.6700
L93.9300 128.6700
" />
<path d="M95.6900 128.7700
L95.6900 128.9700
" />
<path d="M95.9900 128.7700
L95.6900 128.7700
" />
<path d="M95.9900 128.8700
L95.6900 128.8700
" />
<path d="M95.9900 128.9700
L95.9900 128.7700
" />
<path d="M96.7900 128.9700
L96.7900 129.5800
" />
<path d="M96.7900 129.5800
L94.8400 129.5800
" />
<path d="M97.1900 132.5800
L97.3900 132.5800
" />
<path d="M97.1900 133.0800
L97.1900 132.5800
" />
<path d="M97.2900 133.0800
L97.2900 132.5800
" />
<path d="M97.3900 132.5800
L97.3900 133.0800
" />
<path d="M97.7900 129.5800
L97.7900 128.9700
" />
<path d="M99.7400 129.5800
L97.7900 129.5800
" />
<path d="M99.7400 133.0800
L99.7400 129.5800
" />
<path d="M100.3500 128.9700
L94.2300 128.9700
" />
<path d="M100.3500 130.2800
L99.7400 130.2800
" />
<path d="M100.3500 131.5800
L99.7400 131.5800
" />
<path d="M100.3500 133.6900
L100.3500 128.9700
" />
<path d="M81.2700 130.3994
L81.2700 130.6806
" />
<path d="M82.2900 130.3994
L82.2900 130.6806
" />
<path d="M106.2800 102.6694
L106.2800 102.9506
" />
<path d="M107.3000 102.6694
L107.3000 102.9506
" />
<path d="M91.0400 122.5656
L91.0400 122.2844
" />
<path d="M92.0600 122.5656
L92.0600 122.2844
" />
<path d="M117.8006 74.7500
L117.5194 74.7500
" />
<path d="M117.8006 75.7700
L117.5194 75.7700
" />
<path d="M97.9275 153.6027
L97.9275 154.0773
" />
<path d="M98.9725 153.6027
L98.9725 154.0773
" />
<path d="M82.4094 135.3400
L82.6906 135.3400
" />
<path d="M82.4094 136.3600
L82.6906 136.3600
" />
<path d="M75.3750 68.4250
L76.5550 68.4250
" />
<path d="M75.3750 69.2350
L75.3750 68.4250
" />
<path d="M75.3750 70.0450
L75.3750 75.0600
" />
<path d="M75.3750 70.0450
L75.8883 70.0450
" />
<path d="M75.3750 75.0600
L76.2371 75.0600
" />
<path d="M76.8729 75.0600
L77.5071 75.0600
" />
<path d="M78.1429 68.4900
L79.0050 68.4900
" />
<path d="M78.1429 75.0600
L79.0050 75.0600
" />
<path d="M79.0050 68.4900
L79.0050 75.0600
" />
</g>
<g style="fill:none;
stroke:#edece5; stroke-width:0.1500; stroke-opacity:1;
stroke-linecap:round; stroke-linejoin:round;">
<path d="M95.5200 134.9600
L96.1800 134.9600
" />
<path d="M95.5200 139.0200
L95.5200 134.9600
" />
<path d="M98.6000 134.9600
L97.9400 134.9600
" />
<path d="M98.6000 139.0200
L98.6000 134.9600
" />
</g>
<g style="fill:none;
stroke:#edece5; stroke-width:0.2500; stroke-opacity:1;
stroke-linecap:round; stroke-linejoin:round;">
<circle cx="97.0600" cy="136.9900" r="0.9000" />
</g>
<g style="fill:none;
stroke:#edece5; stroke-width:0.1200; stroke-opacity:1;
stroke-linecap:round; stroke-linejoin:round;">
<path d="M91.4175 147.9500
L91.4175 147.1500
" />
<path d="M91.4175 147.9500
L91.4175 148.7500
" />
<path d="M94.5375 147.9500
L94.5375 147.1500
" />
<path d="M94.5375 147.9500
L94.5375 148.7500
" />
<path style="fill:#edece5; fill-opacity:1.0000;
stroke:#edece5; stroke-width:0.1200; stroke-opacity:1;
stroke-linecap:round; stroke-linejoin:round;fill-rule:evenodd;"
d="M 91.4675,149.2500
91.1375,149.4900
91.1375,149.0100
Z" />
</g>
<g style="fill:none;
stroke:#edece5; stroke-width:0.1200; stroke-opacity:1;
stroke-linecap:round; stroke-linejoin:round;">
<path d="M106.7725 72.1073
L106.7725 71.6327
" />
<path d="M107.8175 72.1073
L107.8175 71.6327
" />
<path d="M77.6473 79.8175
L77.1727 79.8175
" />
<path d="M77.6473 80.8625
L77.1727 80.8625
" />
</g>
<g style="fill:none;
stroke:#edece5; stroke-width:0.2000; stroke-opacity:1;
stroke-linecap:round; stroke-linejoin:round;">
<path d="M88.6600 133.9200
L88.6600 134.1100
" />
<path d="M88.6600 133.9200
L93.6600 133.9200
" />
<path d="M88.6600 138.7300
L88.6600 138.9200
" />
<path d="M88.6600 138.9200
L93.6600 138.9200
" />
<path d="M93.6600 134.1100
L93.6600 133.9200
" />
<path d="M93.6600 138.9200
L93.6600 138.7300
" />
</g>
<g style="fill:none;
stroke:#edece5; stroke-width:0.1000; stroke-opacity:1;
stroke-linecap:round; stroke-linejoin:round;">
<circle cx="88.6600" cy="138.9200" r="0.0500" />
</g>
<g style="fill:none;
stroke:#edece5; stroke-width:0.1200; stroke-opacity:1;
stroke-linecap:round; stroke-linejoin:round;">
<path d="M94.9150 146.3150
L94.9150 148.6000
" />
<path d="M96.3850 146.3150
L94.9150 146.3150
" />
<path d="M96.3850 148.6000
L96.3850 146.3150
" />
<path d="M98.5844 82.4550
L98.8656 82.4550
" />
<path d="M98.5844 83.4750
L98.8656 83.4750
" />
<path d="M87.0900 122.5456
L87.0900 122.2644
" />
<path d="M88.1100 122.5456
L88.1100 122.2644
" />
<path d="M78.3373 112.1975
L77.8627 112.1975
" />
<path d="M78.3373 113.2425
L77.8627 113.2425
" />
</g>
<g style="fill:none;
stroke:#edece5; stroke-width:0.2500; stroke-opacity:1;
stroke-linecap:round; stroke-linejoin:round;">
<path d="M84.7000 129.7000
L84.7000 129.8700
" />
<path d="M84.7000 132.0800
L84.7000 132.2000
" />
<path d="M84.7000 132.2000
L85.3400 132.2000
" />
<path d="M85.0900 129.7000
L84.7000 129.7000
" />
<path d="M87.0600 132.2000
L87.7000 132.2000
" />
<path d="M87.7000 129.7000
L87.3100 129.7000
" />
<path d="M87.7000 129.8700
L87.7000 129.7000
" />
<path d="M87.7000 132.2000
L87.7000 132.0800
" />
<circle cx="86.9900" cy="129.1800" r="0.1850" />
</g>
<g style="fill:none;
stroke:#edece5; stroke-width:0.0600; stroke-opacity:1;
stroke-linecap:round; stroke-linejoin:round;">
<circle cx="87.7000" cy="129.7300" r="0.0300" />
</g>
<g style="fill:none;
stroke:#edece5; stroke-width:0.1200; stroke-opacity:1;
stroke-linecap:round; stroke-linejoin:round;">
<path d="M100.4300 135.8506
L100.4300 135.5694
" />
<path d="M101.4500 135.8506
L101.4500 135.5694
" />
<path d="M84.0200 122.5356
L84.0200 122.2544
" />
<path d="M85.0400 122.5356
L85.0400 122.2544
" />
</g>
<g style="fill:none;
stroke:#edece5; stroke-width:0.1500; stroke-opacity:1;
stroke-linecap:round; stroke-linejoin:round;">
<path d="M75.5700 131.0500
L76.0700 131.0500
" />
<path d="M75.5700 131.5500
L75.5700 131.0500
" />
<path d="M75.5700 135.7100
L75.5700 136.2100
" />
<path d="M75.5700 136.2100
L76.0700 136.2100
" />
<path d="M80.7300 131.0500
L80.2300 131.0500
" />
<path d="M80.7300 131.5500
L80.7300 131.0500
" />
<path d="M80.7300 135.7100
L80.7300 136.2100
" />
<path d="M80.7300 136.2100
L80.2300 136.2100
" />
<circle cx="79.9000" cy="130.5900" r="0.0800" />
</g>
<g style="fill:none;
stroke:#edece5; stroke-width:0.0600; stroke-opacity:1;
stroke-linecap:round; stroke-linejoin:round;">
<circle cx="80.6500" cy="131.1300" r="0.0300" />
</g>
<g style="fill:none;
stroke:#edece5; stroke-width:0.1200; stroke-opacity:1;
stroke-linecap:round; stroke-linejoin:round;">
<path d="M92.5000 132.4156
L92.5000 132.1344
" />
<path d="M93.5200 132.4156
L93.5200 132.1344
" />
<path d="M87.7827 142.6875
L88.2573 142.6875
" />
<path d="M87.7827 143.7325
L88.2573 143.7325
" />
<path d="M109.7844 135.8600
L110.0656 135.8600
" />
<path d="M109.7844 136.8800
L110.0656 136.8800
" />
<circle cx="102.4500" cy="156.5100" r="0.7000" />
<path d="M96.9300 102.7594
L96.9300 103.0406
" />
<path d="M97.9500 102.7594
L97.9500 103.0406
" />
<path d="M118.8475 86.4527
L118.8475 86.9273
" />
<path d="M119.8925 86.4527
L119.8925 86.9273
" />
<path d="M77.1827 76.7575
L77.6573 76.7575
" />
<path d="M77.1827 77.8025
L77.6573 77.8025
" />
<path d="M90.5975 126.2027
L90.5975 126.6773
" />
<path d="M91.6425 126.2027
L91.6425 126.6773
" />
<path d="M80.8200 139.4244
L80.8200 143.8800
" />
<path d="M80.8200 143.8800
L82.5200 143.8800
" />
<path d="M81.8844 138.3600
L80.8200 139.4244
" />
<path d="M81.8844 138.3600
L82.5200 138.3600
" />
<path d="M85.2650 137.4950
L85.2650 138.1200
" />
<path d="M85.2756 138.3600
L84.6400 138.3600
" />
<path d="M85.2756 138.3600
L86.3400 139.4244
" />
<path d="M85.5775 137.8075
L84.9525 137.8075
" />
<path d="M86.3400 139.4244
L86.3400 143.8800
" />
<path d="M86.3400 143.8800
L84.6400 143.8800
" />
<path d="M120.4375 86.4527
L120.4375 86.9273
" />
<path d="M121.4825 86.4527
L121.4825 86.9273
" />
<path d="M82.8375 127.7473
L82.8375 127.2727
" />
<path d="M83.8825 127.7473
L83.8825 127.2727
" />
<path d="M92.5700 122.5706
L92.5700 122.2894
" />
<path d="M93.5900 122.5706
L93.5900 122.2894
" />
</g>
<g style="fill:none;
stroke:#edece5; stroke-width:0.1500; stroke-opacity:1;
stroke-linecap:round; stroke-linejoin:round;">
<path d="M113.4600 88.2600
L115.6200 88.2600
" />
<path d="M113.4600 92.5200
L113.4600 88.2600
" />
<path d="M115.6200 88.2600
L115.6200 92.5200
" />
<path d="M115.6200 92.5200
L113.4600 92.5200
" />
</g>
<g style="fill:none;
stroke:#edece5; stroke-width:0.0800; stroke-opacity:1;
stroke-linecap:round; stroke-linejoin:round;">
<circle cx="113.2700" cy="92.6800" r="0.1000" />
</g>
<g style="fill:none;
stroke:#edece5; stroke-width:0.0600; stroke-opacity:1;
stroke-linecap:round; stroke-linejoin:round;">
<circle cx="115.2900" cy="91.9900" r="0.0300" />
</g>
<g style="fill:none;
stroke:#edece5; stroke-width:0.1200; stroke-opacity:1;
stroke-linecap:round; stroke-linejoin:round;">
<path d="M89.7800 143.4094
L89.7800 143.6906
" />
<path d="M90.8000 143.4094
L90.8000 143.6906
" />
<path d="M114.3825 72.1123
L114.3825 71.6377
" />
<path d="M115.4275 72.1123
L115.4275 71.6377
" />
<path d="M86.8575 139.0573
L86.8575 138.5827
" />
<path d="M87.9025 139.0573
L87.9025 138.5827
" />
<path d="M96.7075 147.5527
L96.7075 148.0273
" />
<path d="M97.7525 147.5527
L97.7525 148.0273
" />
<path d="M84.8100 127.7694
L84.8100 128.0506
" />
<path d="M85.8300 127.7694
L85.8300 128.0506
" />
<path d="M94.1300 86.1994
L94.1300 86.4806
" />
<path d="M95.1500 86.1994
L95.1500 86.4806
" />
<path d="M77.8627 113.7175
L78.3373 113.7175
" />
<path d="M77.8627 114.7625
L78.3373 114.7625
" />
<path d="M111.8775 137.4323
L111.8775 136.9577
" />
<path d="M112.9225 137.4323
L112.9225 136.9577
" />
<path d="M112.0006 88.5300
L111.7194 88.5300
" />
<path d="M112.0006 89.5500
L111.7194 89.5500
" />
<path d="M82.8300 133.7356
L82.8300 133.4544
" />
<path d="M83.8500 133.7356
L83.8500 133.4544
" />
</g>
<g style="fill:none;
stroke:#edece5; stroke-width:0.1000; stroke-opacity:1;
stroke-linecap:round; stroke-linejoin:round;">
<circle cx="127.3250" cy="92.5300" r="0.0500" />
</g>
<g style="fill:none;
stroke:#edece5; stroke-width:0.1200; stroke-opacity:1;
stroke-linecap:round; stroke-linejoin:round;">
<circle cx="108.3200" cy="156.5600" r="0.7000" />
<path d="M80.7994 136.8600
L81.0806 136.8600
" />
<path d="M80.7994 137.8800
L81.0806 137.8800
" />
<path d="M101.9694 109.5100
L102.2506 109.5100
" />
<path d="M101.9694 110.5300
L102.2506 110.5300
" />
</g>
<g style="fill:none;
stroke:#edece5; stroke-width:0.2500; stroke-opacity:1;
stroke-linecap:round; stroke-linejoin:round;">
<path d="M121.4750 68.4750
L121.4750 70.8450
" />
<path d="M121.4750 79.4750
L121.4750 77.1050
" />
<path d="M123.1350 68.4750
L121.4750 68.4750
" />
<path d="M123.1350 79.4750
L121.4750 79.4750
" />
<path d="M127.9650 68.4750
L125.5850 68.4750
" />
<path d="M127.9650 68.4750
L127.9650 79.4750
" />
<path d="M127.9650 79.4750
L125.5850 79.4750
" />
<circle cx="120.9650" cy="77.4050" r="0.1300" />
</g>
<g style="fill:none;
stroke:#edece5; stroke-width:0.1000; stroke-opacity:1;
stroke-linecap:round; stroke-linejoin:round;">
<circle cx="121.4550" cy="79.2850" r="0.0500" />
</g>
<g style="fill:none;
stroke:#edece5; stroke-width:0.1200; stroke-opacity:1;
stroke-linecap:round; stroke-linejoin:round;">
<path d="M81.2675 133.8173
L81.2675 133.3427
" />
<path d="M82.3125 133.8173
L82.3125 133.3427
" />
<path d="M95.9075 143.3873
L95.9075 142.9127
" />
<path d="M96.9525 143.3873
L96.9525 142.9127
" />
<path d="M85.5600 122.5456
L85.5600 122.2644
" />
<path d="M86.5800 122.5456
L86.5800 122.2644
" />
<path d="M94.1400 126.8744
L94.1400 127.1556
" />
<path d="M95.1600 126.8744
L95.1600 127.1556
" />
</g>
<g style="fill:none;
stroke:#edece5; stroke-width:0.2000; stroke-opacity:1;
stroke-linecap:round; stroke-linejoin:round;">
<path d="M82.3400 69.5700
L82.3400 82.0700
" />
<path d="M82.3400 82.0700
L94.8400 82.0700
" />
<path d="M94.8400 69.5700
L82.3400 69.5700
" />
<path d="M94.8400 82.0700
L94.8400 69.5700
" />
</g>
<g style="fill:none;
stroke:#edece5; stroke-width:0.3000; stroke-opacity:1;
stroke-linecap:round; stroke-linejoin:round;">
<path d="M81.7075 83.5200 A0.1500 0.1500 0.0 1 0 81.7100 83.5200" />
</g>
<g style="fill:none;
stroke:#edece5; stroke-width:0.6000; stroke-opacity:1;
stroke-linecap:round; stroke-linejoin:round;">
<path d="M83.3349 80.7700 A0.3000 0.3000 0.0 1 0 83.3400 80.7700" />
</g>
<g style="fill:none;
stroke:#edece5; stroke-width:0.0600; stroke-opacity:1;
stroke-linecap:round; stroke-linejoin:round;">
<circle cx="80.5900" cy="83.8200" r="0.0300" />
</g>
<g style="fill:none;
stroke:#edece5; stroke-width:0.1200; stroke-opacity:1;
stroke-linecap:round; stroke-linejoin:round;">
<path d="M96.8394 127.2700
L97.1206 127.2700
" />
<path d="M96.8394 128.2900
L97.1206 128.2900
" />
</g>
<g style="fill:none;
stroke:#edece5; stroke-width:0.2500; stroke-opacity:1;
stroke-linecap:round; stroke-linejoin:round;">
<path d="M105.0400 134.5900
L105.0400 134.9800
" />
<path d="M105.0400 134.5900
L105.4400 134.5900
" />
<path d="M105.0400 137.1900
L105.0400 137.5900
" />
<path d="M105.0400 137.5900
L105.4400 137.5900
" />
<path d="M107.6500 134.5900
L108.0400 134.5900
" />
<path d="M107.6500 137.5900
L108.0400 137.5900
" />
<path d="M108.0400 134.9800
L108.0400 134.5900
" />
<path d="M108.0400 137.5900
L108.0400 137.1900
" />
</g>
<g style="fill:none;
stroke:#edece5; stroke-width:0.0600; stroke-opacity:1;
stroke-linecap:round; stroke-linejoin:round;">
<circle cx="105.0400" cy="137.5900" r="0.0300" />
</g>
<g style="fill:none;
stroke:#edece5; stroke-width:0.2500; stroke-opacity:1;
stroke-linecap:round; stroke-linejoin:round;">
<circle cx="105.2500" cy="137.9300" r="0.1850" />
</g>
<g style="fill:none;
stroke:#edece5; stroke-width:0.1200; stroke-opacity:1;
stroke-linecap:round; stroke-linejoin:round;">
<circle cx="102.8600" cy="136.1800" r="0.7000" />
<path d="M88.3575 130.4377
L88.3575 130.9123
" />
<path d="M89.4025 130.4377
L89.4025 130.9123
" />
</g>
<g style="fill:none;
stroke:#edece5; stroke-width:0.1500; stroke-opacity:1;
stroke-linecap:round; stroke-linejoin:round;">
<path d="M117.6950 69.1700
L117.6950 70.6300
" />
<path d="M117.6950 70.6300
L118.7350 70.6300
" />
<path d="M118.7650 69.1700
L119.6850 69.1700
" />
<path d="M120.7550 69.1700
L120.7550 70.6300
" />
<path d="M120.7550 70.6300
L119.7150 70.6300
" />
</g>
<g style="fill:none;
stroke:#edece5; stroke-width:0.0600; stroke-opacity:1;
stroke-linecap:round; stroke-linejoin:round;">
<circle cx="120.6750" cy="68.7000" r="0.0300" />
</g>
<g style="fill:none;
stroke:#edece5; stroke-width:0.1200; stroke-opacity:1;
stroke-linecap:round; stroke-linejoin:round;">
<path d="M112.8625 72.1123
L112.8625 71.6377
" />
<path d="M113.9075 72.1123
L113.9075 71.6377
" />
<path d="M85.5700 119.2294
L85.5700 119.5106
" />
<path d="M86.5900 119.2294
L86.5900 119.5106
" />
<path d="M75.9044 125.7400
L76.1856 125.7400
" />
<path d="M75.9044 126.7600
L76.1856 126.7600
" />
<path d="M98.5844 80.9150
L98.8656 80.9150
" />
<path d="M98.5844 81.9350
L98.8656 81.9350
" />
<path d="M73.7344 134.3350
L74.0156 134.3350
" />
<path d="M73.7344 135.3550
L74.0156 135.3550
" />
</g>
<g style="fill:none;
stroke:#edece5; stroke-width:0.1500; stroke-opacity:1;
stroke-linecap:round; stroke-linejoin:round;">
<path d="M128.8650 90.0800
L128.8650 90.6200
" />
<path d="M128.8650 92.0800
L128.8650 92.6200
" />
<path d="M128.8650 92.6200
L128.9350 92.6200
" />
<path d="M128.9350 90.0800
L128.8650 90.0800
" />
<path d="M131.5950 92.6200
L131.6650 92.6200
" />
<path d="M131.6650 90.0800
L131.5950 90.0800
" />
<path d="M131.6650 90.6200
L131.6650 90.0800
" />
<path d="M131.6650 90.6200
L131.6650 92.0800
" />
<path d="M131.6650 92.6200
L131.6650 92.0800
" />
<circle cx="128.7150" cy="92.8500" r="0.1050" />
</g>
<g style="fill:none;
stroke:#edece5; stroke-width:0.1500; stroke-opacity:1;
stroke-linecap:round; stroke-linejoin:round;">
<circle cx="130.2650" cy="91.3500" r="0.5700" />
</g>
<g style="fill:none;
stroke:#edece5; stroke-width:0.1200; stroke-opacity:1;
stroke-linecap:round; stroke-linejoin:round;">
<path d="M111.3550 71.7344
L111.3550 72.0156
" />
<path d="M112.3750 71.7344
L112.3750 72.0156
" />
</g>
<g style="fill:none;
stroke:#edece5; stroke-width:0.1500; stroke-opacity:1;
stroke-linecap:round; stroke-linejoin:round;">
<path d="M86.4600 149.9400
L86.4600 146.0800
" />
<path d="M86.4600 149.9400
L88.4600 149.9400
" />
<path d="M88.4600 149.9400
L88.4600 146.0800
" />
</g>
<g style="fill:none;
stroke:#edece5; stroke-width:0.1200; stroke-opacity:1;
stroke-linecap:round; stroke-linejoin:round;">
<path d="M111.8800 134.2706
L111.8800 133.9894
" />
<path d="M112.9000 134.2706
L112.9000 133.9894
" />
</g>
<g style="fill:none;
stroke:#edece5; stroke-width:0.1500; stroke-opacity:1;
stroke-linecap:round; stroke-linejoin:round;">
<path d="M90.9900 128.1600
L92.6400 128.1600
" />
<path d="M90.9900 130.3200
L92.6400 130.3200
" />
<path d="M93.1500 128.1600
L91.5000 128.1600
" />
<path d="M93.1500 130.3200
L91.5000 130.3200
" />
</g>
<g style="fill:none;
stroke:#edece5; stroke-width:0.0600; stroke-opacity:1;
stroke-linecap:round; stroke-linejoin:round;">
<circle cx="93.0700" cy="130.2400" r="0.0300" />
</g>
<g style="fill:none;
stroke:#edece5; stroke-width:0.2000; stroke-opacity:1;
stroke-linecap:round; stroke-linejoin:round;">
<circle cx="93.5000" cy="129.9900" r="0.1000" />
</g>
<g style="fill:none;
stroke:#edece5; stroke-width:0.1200; stroke-opacity:1;
stroke-linecap:round; stroke-linejoin:round;">
<path d="M122.2075 87.7227
L122.2075 88.1973
" />
<path d="M123.2525 87.7227
L123.2525 88.1973
" />
<path d="M109.8350 71.7344
L109.8350 72.0156
" />
<path d="M110.8550 71.7344
L110.8550 72.0156
" />
<path d="M77.6175 128.1700
L77.6175 127.3700
" />
<path d="M77.6175 128.1700
L77.6175 128.9700
" />
<path d="M80.7375 128.1700
L80.7375 127.3700
" />
<path d="M80.7375 128.1700
L80.7375 128.9700
" />
<path style="fill:#edece5; fill-opacity:1.0000;
stroke:#edece5; stroke-width:0.1200; stroke-opacity:1;
stroke-linecap:round; stroke-linejoin:round;fill-rule:evenodd;"
d="M 77.6675,129.4700
77.3375,129.7100
77.3375,129.2300
Z" />
</g>
<g style="fill:none;
stroke:#edece5; stroke-width:0.1200; stroke-opacity:1;
stroke-linecap:round; stroke-linejoin:round;">
<path d="M86.4200 90.4794
L86.4200 90.7606
" />
<path d="M87.4400 90.4794
L87.4400 90.7606
" />
</g>
<g style="fill:#edece5; fill-opacity:1.0000; stroke:none;">
<circle cx="121.5000" cy="91.9000" r="0.0500" />
<circle cx="121.6000" cy="91.9000" r="0.0500" />
</g>
<g style="fill:none;
stroke:#edece5; stroke-width:0.1000; stroke-opacity:1;
stroke-linecap:round; stroke-linejoin:round;">
<path d="M121.6000 91.9000 A0.0500 0.0500 0.0 0 0 121.5000 91.9000" />
<path d="M121.5000 91.9000 A0.0500 0.0500 0.0 0 0 121.6000 91.9000" />
</g>
<g style="fill:none;
stroke:#edece5; stroke-width:0.1200; stroke-opacity:1;
stroke-linecap:round; stroke-linejoin:round;">
<path d="M90.5400 90.4794
L90.5400 90.7606
" />
<path d="M91.5600 90.4794
L91.5600 90.7606
" />
<path d="M119.4123 66.8675
L118.9377 66.8675
" />
<path d="M119.4123 67.9125
L118.9377 67.9125
" />
<path d="M77.5456 81.3600
L77.2644 81.3600
" />
<path d="M77.5456 82.3800
L77.2644 82.3800
" />
<path d="M99.2694 69.6200
L99.5506 69.6200
" />
<path d="M99.2694 70.6400
L99.5506 70.6400
" />
<path d="M115.9750 92.5594
L115.9750 92.8406
" />
<path d="M116.9950 92.5594
L116.9950 92.8406
" />
<path d="M79.2200 142.5344
L79.2200 142.8156
" />
<path d="M80.2400 142.5344
L80.2400 142.8156
" />
<path d="M97.4275 142.9127
L97.4275 143.3873
" />
<path d="M98.4725 142.9127
L98.4725 143.3873
" />
<path d="M80.3300 67.4606
L80.3300 67.1794
" />
<path d="M81.3500 67.4606
L81.3500 67.1794
" />
<path d="M84.5600 86.2294
L84.5600 86.5106
" />
<path d="M85.5800 86.2294
L85.5800 86.5106
" />
</g>
</svg>
